{"glyphs":{"0":{"ha":780,"x_min":83,"x_max":697,"o":"m 151 0 q 98 16 112 0 q 83 64 83 33 l 83 861 q 98 909 83 892 q 151 925 112 925 l 628 927 q 683 911 669 927 q 697 863 697 894 l 697 64 q 683 16 697 33 q 628 0 669 0 l 151 0 m 315 174 l 465 174 l 465 753 l 315 753 l 315 174 z "},"1":{"ha":444,"x_min":19,"x_max":361,"o":"m 147 0 q 130 17 130 0 l 130 744 l 37 741 q 19 758 19 741 l 19 908 q 37 926 19 926 l 344 926 q 361 908 361 926 l 361 17 q 344 0 361 0 l 147 0 z "},"2":{"ha":576,"x_min":50,"x_max":549,"o":"m 68 0 q 51 17 51 0 l 50 243 q 53 255 50 250 q 60 265 56 259 l 280 533 l 280 674 l 60 758 q 50 779 50 762 l 50 908 q 67 926 50 926 l 243 926 q 258 923 253 926 q 271 917 264 920 l 500 816 q 510 806 509 813 q 512 788 512 800 l 512 488 q 509 478 512 481 q 500 467 506 475 l 283 203 l 283 175 l 531 175 q 549 158 549 175 l 549 17 q 531 0 549 0 l 68 0 z "},"3":{"ha":707,"x_min":83,"x_max":624,"o":"m 101 0 q 83 17 83 0 l 83 156 q 101 174 83 174 l 392 174 l 392 382 l 158 382 q 141 399 141 382 l 141 538 q 158 556 141 556 l 392 556 l 392 741 l 101 741 q 83 758 83 741 l 83 908 q 101 926 83 926 l 446 926 q 474 915 462 926 l 613 776 q 624 748 624 764 l 624 609 q 617 588 624 594 l 526 485 l 526 441 l 617 338 q 624 317 624 331 l 624 178 q 613 151 624 162 l 474 12 q 446 0 462 0 l 101 0 z "},"4":{"ha":780,"x_min":83,"x_max":697,"o":"m 483 0 q 465 17 465 0 l 465 290 l 101 290 q 83 307 83 290 l 83 908 q 101 926 83 926 l 297 926 q 315 908 315 926 l 315 474 l 465 474 l 465 908 q 483 926 465 926 l 679 926 q 697 908 697 926 l 697 17 q 679 0 697 0 l 483 0 z "},"5":{"ha":617,"x_min":29,"x_max":588,"o":"m 47 0 q 29 17 29 0 l 29 156 q 47 174 29 174 l 356 174 l 356 370 l 47 370 q 29 388 29 370 l 30 908 q 47 926 30 926 l 571 926 q 588 908 588 926 l 588 769 q 571 752 588 752 l 262 752 l 262 556 l 571 556 q 588 538 588 556 l 588 177 q 580 155 588 165 l 433 8 q 411 0 425 0 l 47 0 z "},"6":{"ha":803,"x_min":83,"x_max":720,"o":"m 262 0 q 234 12 245 0 l 95 151 q 83 178 83 162 l 83 698 q 94 719 83 710 l 347 919 q 368 926 355 926 l 542 926 q 559 908 559 926 l 559 821 q 549 800 559 808 l 317 628 l 317 590 l 565 590 q 592 578 581 590 l 708 463 q 720 435 720 451 l 720 178 q 708 151 720 162 l 569 12 q 542 0 558 0 l 262 0 m 401 178 q 484 205 463 178 q 506 308 506 232 q 484 410 506 383 q 401 438 463 438 q 319 410 341 438 q 297 308 297 383 q 319 205 297 232 q 401 178 341 178 z "},"7":{"ha":628,"x_min":28,"x_max":575,"o":"m 126 0 q 111 19 106 0 l 322 686 l 322 706 l 45 706 q 28 724 28 706 l 28 908 q 45 926 28 926 l 453 926 q 474 915 466 926 l 567 786 q 572 763 575 773 l 359 15 q 340 0 355 0 l 126 0 z "},"8":{"ha":802,"x_min":83,"x_max":719,"o":"m 262 0 q 234 12 245 0 l 95 151 q 83 178 83 162 l 83 328 q 90 349 83 342 l 169 441 l 169 485 l 90 576 q 83 597 83 583 l 83 748 q 95 776 83 764 l 234 915 q 262 926 245 926 l 540 926 q 568 915 557 926 l 707 776 q 719 748 719 764 l 719 597 q 712 576 719 583 l 633 485 l 633 441 l 712 349 q 719 328 719 342 l 719 178 q 707 151 719 162 l 568 12 q 540 0 557 0 l 262 0 m 401 147 q 484 174 463 147 q 506 276 506 201 q 484 379 506 352 q 401 406 463 406 q 319 379 341 406 q 297 276 297 352 q 319 174 297 201 q 401 147 341 147 m 401 519 q 484 547 463 519 q 506 649 506 574 q 484 752 506 725 q 401 779 463 779 q 319 752 341 779 q 297 649 297 725 q 319 547 297 574 q 401 519 341 519 z "},"9":{"ha":803,"x_min":83,"x_max":720,"o":"m 542 926 q 569 914 558 926 l 708 775 q 720 747 720 764 l 720 228 q 710 207 720 215 l 456 7 q 435 0 449 0 l 262 0 q 244 17 244 0 l 244 105 q 255 126 244 117 l 486 297 l 486 335 l 239 335 q 211 347 222 335 l 95 463 q 83 490 83 474 l 83 747 q 95 775 83 764 l 234 914 q 262 926 246 926 l 542 926 m 402 747 q 319 720 341 747 q 298 618 298 694 q 319 515 298 542 q 402 488 341 488 q 484 515 463 488 q 506 618 506 542 q 484 720 506 694 q 402 747 463 747 z "},"A":{"ha":776,"x_min":78,"x_max":697,"o":"m 96 0 q 78 17 78 0 l 78 661 q 85 682 78 670 l 250 915 q 272 926 258 926 l 502 926 q 524 915 517 926 l 690 682 q 697 661 697 672 l 697 17 q 679 0 697 0 l 483 0 q 465 17 465 0 l 465 313 l 310 313 l 310 17 q 293 0 310 0 l 96 0 m 388 462 q 474 490 451 462 q 497 597 497 518 q 474 705 497 676 q 388 733 451 733 q 302 705 324 733 q 279 597 279 676 q 302 490 279 518 q 388 462 324 462 z "},"Á":{"ha":776,"x_min":78,"x_max":697,"o":"m 96 0 q 78 17 78 0 l 78 661 q 85 682 78 670 l 250 915 q 272 926 258 926 l 502 926 q 524 915 517 926 l 690 682 q 697 661 697 672 l 697 17 q 679 0 697 0 l 483 0 q 465 17 465 0 l 465 313 l 310 313 l 310 17 q 293 0 310 0 l 96 0 m 388 462 q 474 490 451 462 q 497 597 497 518 q 474 705 497 676 q 388 733 451 733 q 302 705 324 733 q 279 597 279 676 q 302 490 279 518 q 388 462 324 462 m 316 960 q 297 966 303 953 l 273 1018 q 281 1039 268 1031 l 444 1145 q 463 1136 457 1153 l 503 1053 q 495 1035 508 1042 l 316 960 z "},"Ă":{"ha":776,"x_min":78,"x_max":697,"o":"m 96 0 q 78 17 78 0 l 78 661 q 85 682 78 670 l 250 915 q 272 926 258 926 l 502 926 q 524 915 517 926 l 690 682 q 697 661 697 672 l 697 17 q 679 0 697 0 l 483 0 q 465 17 465 0 l 465 313 l 310 313 l 310 17 q 293 0 310 0 l 96 0 m 388 462 q 474 490 451 462 q 497 597 497 518 q 474 705 497 676 q 388 733 451 733 q 302 705 324 733 q 279 597 279 676 q 302 490 279 518 q 388 462 324 462 m 303 960 q 282 971 290 960 l 253 1010 q 247 1031 247 1020 l 247 1082 q 264 1099 247 1099 l 338 1099 q 355 1082 355 1099 l 355 1039 l 420 1039 l 420 1082 q 438 1099 420 1099 l 511 1099 q 528 1082 528 1099 l 528 1031 q 522 1010 528 1020 l 493 971 q 472 960 485 960 l 303 960 z "},"Ắ":{"ha":776,"x_min":78,"x_max":697,"o":"m 96 0 q 78 17 78 0 l 78 661 q 85 682 78 670 l 250 915 q 272 926 258 926 l 502 926 q 524 915 517 926 l 690 682 q 697 661 697 672 l 697 17 q 679 0 697 0 l 483 0 q 465 17 465 0 l 465 313 l 310 313 l 310 17 q 293 0 310 0 l 96 0 m 388 462 q 474 490 451 462 q 497 597 497 518 q 474 705 497 676 q 388 733 451 733 q 302 705 324 733 q 279 597 279 676 q 302 490 279 518 q 388 462 324 462 m 303 960 q 282 971 290 960 l 253 1010 q 247 1031 247 1020 l 247 1082 q 264 1099 247 1099 l 338 1099 q 355 1082 355 1099 l 355 1039 l 420 1039 l 420 1082 q 438 1099 420 1099 l 511 1099 q 528 1082 528 1099 l 528 1031 q 522 1010 528 1020 l 493 971 q 472 960 485 960 l 303 960 m 316 1133 q 297 1140 303 1127 l 273 1192 q 281 1213 268 1204 l 444 1319 q 463 1310 457 1326 l 503 1227 q 495 1208 508 1215 l 316 1133 z "},"Ặ":{"ha":776,"x_min":78,"x_max":697,"o":"m 96 0 q 78 17 78 0 l 78 661 q 85 682 78 670 l 250 915 q 272 926 258 926 l 502 926 q 524 915 517 926 l 690 682 q 697 661 697 672 l 697 17 q 679 0 697 0 l 483 0 q 465 17 465 0 l 465 313 l 310 313 l 310 17 q 293 0 310 0 l 96 0 m 388 462 q 474 490 451 462 q 497 597 497 518 q 474 705 497 676 q 388 733 451 733 q 302 705 324 733 q 279 597 279 676 q 302 490 279 518 q 388 462 324 462 m 388 -172 q 338 -152 358 -172 q 318 -102 318 -132 q 338 -51 318 -72 q 388 -31 358 -31 q 438 -51 418 -31 q 457 -102 457 -72 q 438 -152 457 -132 q 388 -172 418 -172 m 303 960 q 282 971 290 960 l 253 1010 q 247 1031 247 1020 l 247 1082 q 264 1099 247 1099 l 338 1099 q 355 1082 355 1099 l 355 1039 l 420 1039 l 420 1082 q 438 1099 420 1099 l 511 1099 q 528 1082 528 1099 l 528 1031 q 522 1010 528 1020 l 493 971 q 472 960 485 960 l 303 960 z "},"Ằ":{"ha":776,"x_min":78,"x_max":697,"o":"m 96 0 q 78 17 78 0 l 78 661 q 85 682 78 670 l 250 915 q 272 926 258 926 l 502 926 q 524 915 517 926 l 690 682 q 697 661 697 672 l 697 17 q 679 0 697 0 l 483 0 q 465 17 465 0 l 465 313 l 310 313 l 310 17 q 293 0 310 0 l 96 0 m 388 462 q 474 490 451 462 q 497 597 497 518 q 474 705 497 676 q 388 733 451 733 q 302 705 324 733 q 279 597 279 676 q 302 490 279 518 q 388 462 324 462 m 472 960 l 303 960 q 282 971 290 960 l 253 1010 q 247 1031 247 1020 l 247 1082 q 264 1099 247 1099 l 338 1099 q 355 1082 355 1099 l 355 1039 l 420 1039 l 420 1082 q 438 1099 420 1099 l 511 1099 q 528 1082 528 1099 l 528 1031 q 522 1010 528 1020 l 493 971 q 472 960 485 960 m 459 1133 l 280 1208 q 272 1227 267 1215 l 312 1310 q 331 1319 318 1326 l 494 1213 q 502 1192 507 1204 l 478 1140 q 459 1133 473 1127 z "},"Ẳ":{"ha":776,"x_min":78,"x_max":697,"o":"m 96 0 q 78 17 78 0 l 78 661 q 85 682 78 670 l 250 915 q 272 926 258 926 l 502 926 q 524 915 517 926 l 690 682 q 697 661 697 672 l 697 17 q 679 0 697 0 l 483 0 q 465 17 465 0 l 465 313 l 310 313 l 310 17 q 293 0 310 0 l 96 0 m 388 462 q 474 490 451 462 q 497 597 497 518 q 474 705 497 676 q 388 733 451 733 q 302 705 324 733 q 279 597 279 676 q 302 490 279 518 q 388 462 324 462 m 303 960 q 282 971 290 960 l 253 1010 q 247 1031 247 1020 l 247 1082 q 264 1099 247 1099 l 338 1099 q 355 1082 355 1099 l 355 1039 l 420 1039 l 420 1082 q 438 1099 420 1099 l 511 1099 q 528 1082 528 1099 l 528 1031 q 522 1010 528 1020 l 493 971 q 472 960 485 960 l 303 960 m 436 1134 q 419 1151 419 1134 l 419 1193 l 267 1193 q 250 1210 250 1193 l 250 1249 q 271 1273 250 1273 l 456 1273 q 476 1264 467 1273 l 516 1222 q 524 1200 524 1213 l 524 1151 q 507 1134 524 1134 l 436 1134 z "},"Ẵ":{"ha":776,"x_min":78,"x_max":697,"o":"m 96 0 q 78 17 78 0 l 78 661 q 85 682 78 670 l 250 915 q 272 926 258 926 l 502 926 q 524 915 517 926 l 690 682 q 697 661 697 672 l 697 17 q 679 0 697 0 l 483 0 q 465 17 465 0 l 465 313 l 310 313 l 310 17 q 293 0 310 0 l 96 0 m 388 462 q 474 490 451 462 q 497 597 497 518 q 474 705 497 676 q 388 733 451 733 q 302 705 324 733 q 279 597 279 676 q 302 490 279 518 q 388 462 324 462 m 303 960 q 282 971 290 960 l 253 1010 q 247 1031 247 1020 l 247 1082 q 264 1099 247 1099 l 338 1099 q 355 1082 355 1099 l 355 1039 l 420 1039 l 420 1082 q 438 1099 420 1099 l 511 1099 q 528 1082 528 1099 l 528 1031 q 522 1010 528 1020 l 493 971 q 472 960 485 960 l 303 960 m 249 1134 q 240 1153 234 1134 l 285 1261 q 299 1273 293 1273 l 397 1273 q 408 1261 404 1273 l 426 1212 l 445 1261 q 469 1273 451 1273 l 525 1273 q 534 1253 540 1273 l 492 1146 q 478 1134 488 1134 l 381 1134 q 370 1146 374 1134 l 357 1199 l 324 1146 q 299 1134 317 1134 l 249 1134 z "},"Ǎ":{"ha":776,"x_min":78,"x_max":697,"o":"m 96 0 q 78 17 78 0 l 78 661 q 85 682 78 670 l 250 915 q 272 926 258 926 l 502 926 q 524 915 517 926 l 690 682 q 697 661 697 672 l 697 17 q 679 0 697 0 l 483 0 q 465 17 465 0 l 465 313 l 310 313 l 310 17 q 293 0 310 0 l 96 0 m 388 462 q 474 490 451 462 q 497 597 497 518 q 474 705 497 676 q 388 733 451 733 q 302 705 324 733 q 279 597 279 676 q 302 490 279 518 q 388 462 324 462 m 320 960 q 301 971 305 960 l 244 1081 q 243 1094 240 1088 q 256 1099 247 1099 l 346 1099 q 363 1087 355 1099 l 381 1052 l 384 1038 l 388 1038 l 392 1052 l 410 1087 q 428 1099 418 1099 l 518 1099 q 531 1094 527 1099 q 530 1081 534 1088 l 472 971 q 452 960 467 960 l 320 960 z "},"Â":{"ha":776,"x_min":78,"x_max":697,"o":"m 96 0 q 78 17 78 0 l 78 661 q 85 682 78 670 l 250 915 q 272 926 258 926 l 502 926 q 524 915 517 926 l 690 682 q 697 661 697 672 l 697 17 q 679 0 697 0 l 483 0 q 465 17 465 0 l 465 313 l 310 313 l 310 17 q 293 0 310 0 l 96 0 m 388 462 q 474 490 451 462 q 497 597 497 518 q 474 705 497 676 q 388 733 451 733 q 302 705 324 733 q 279 597 279 676 q 302 490 279 518 q 388 462 324 462 m 244 960 q 231 966 235 960 q 232 980 228 972 l 294 1099 q 315 1111 299 1111 l 458 1111 q 478 1099 473 1111 l 541 980 q 542 966 546 972 q 530 960 538 960 l 431 960 q 413 974 421 960 l 394 1011 l 391 1026 l 381 1026 l 379 1011 l 360 974 q 342 960 353 960 l 244 960 z "},"Ấ":{"ha":776,"x_min":78,"x_max":697,"o":"m 96 0 q 78 17 78 0 l 78 661 q 85 682 78 670 l 250 915 q 272 926 258 926 l 502 926 q 524 915 517 926 l 690 682 q 697 661 697 672 l 697 17 q 679 0 697 0 l 483 0 q 465 17 465 0 l 465 313 l 310 313 l 310 17 q 293 0 310 0 l 96 0 m 388 462 q 474 490 451 462 q 497 597 497 518 q 474 705 497 676 q 388 733 451 733 q 302 705 324 733 q 279 597 279 676 q 302 490 279 518 q 388 462 324 462 m 244 960 q 231 966 235 960 q 232 980 228 972 l 294 1099 q 315 1111 299 1111 l 458 1111 q 478 1099 473 1111 l 541 980 q 542 966 546 972 q 530 960 538 960 l 431 960 q 413 974 421 960 l 394 1011 l 391 1026 l 381 1026 l 379 1011 l 360 974 q 342 960 353 960 l 244 960 m 316 1145 q 297 1151 303 1139 l 273 1203 q 281 1224 268 1216 l 444 1331 q 463 1322 457 1338 l 503 1239 q 495 1220 508 1227 l 316 1145 z "},"Ậ":{"ha":776,"x_min":78,"x_max":697,"o":"m 96 0 q 78 17 78 0 l 78 661 q 85 682 78 670 l 250 915 q 272 926 258 926 l 502 926 q 524 915 517 926 l 690 682 q 697 661 697 672 l 697 17 q 679 0 697 0 l 483 0 q 465 17 465 0 l 465 313 l 310 313 l 310 17 q 293 0 310 0 l 96 0 m 388 462 q 474 490 451 462 q 497 597 497 518 q 474 705 497 676 q 388 733 451 733 q 302 705 324 733 q 279 597 279 676 q 302 490 279 518 q 388 462 324 462 m 388 -172 q 338 -152 358 -172 q 318 -102 318 -132 q 338 -51 318 -72 q 388 -31 358 -31 q 438 -51 418 -31 q 457 -102 457 -72 q 438 -152 457 -132 q 388 -172 418 -172 m 244 960 q 231 966 235 960 q 232 980 228 972 l 294 1099 q 315 1111 299 1111 l 458 1111 q 478 1099 473 1111 l 541 980 q 542 966 546 972 q 530 960 538 960 l 431 960 q 413 974 421 960 l 394 1011 l 391 1026 l 381 1026 l 379 1011 l 360 974 q 342 960 353 960 l 244 960 z "},"Ầ":{"ha":776,"x_min":78,"x_max":697,"o":"m 96 0 q 78 17 78 0 l 78 661 q 85 682 78 670 l 250 915 q 272 926 258 926 l 502 926 q 524 915 517 926 l 690 682 q 697 661 697 672 l 697 17 q 679 0 697 0 l 483 0 q 465 17 465 0 l 465 313 l 310 313 l 310 17 q 293 0 310 0 l 96 0 m 388 462 q 474 490 451 462 q 497 597 497 518 q 474 705 497 676 q 388 733 451 733 q 302 705 324 733 q 279 597 279 676 q 302 490 279 518 q 388 462 324 462 m 244 960 q 231 966 235 960 q 232 980 228 972 l 294 1099 q 315 1111 299 1111 l 458 1111 q 478 1099 473 1111 l 541 980 q 542 966 546 972 q 530 960 538 960 l 431 960 q 413 974 421 960 l 394 1011 l 391 1026 l 381 1026 l 379 1011 l 360 974 q 342 960 353 960 l 244 960 m 459 1145 l 280 1220 q 272 1239 267 1227 l 312 1322 q 331 1331 318 1338 l 494 1224 q 502 1203 507 1216 l 478 1151 q 459 1145 473 1139 z "},"Ẩ":{"ha":776,"x_min":78,"x_max":697,"o":"m 96 0 q 78 17 78 0 l 78 661 q 85 682 78 670 l 250 915 q 272 926 258 926 l 502 926 q 524 915 517 926 l 690 682 q 697 661 697 672 l 697 17 q 679 0 697 0 l 483 0 q 465 17 465 0 l 465 313 l 310 313 l 310 17 q 293 0 310 0 l 96 0 m 388 462 q 474 490 451 462 q 497 597 497 518 q 474 705 497 676 q 388 733 451 733 q 302 705 324 733 q 279 597 279 676 q 302 490 279 518 q 388 462 324 462 m 244 960 q 231 966 235 960 q 232 980 228 972 l 294 1099 q 315 1111 299 1111 l 458 1111 q 478 1099 473 1111 l 541 980 q 542 966 546 972 q 530 960 538 960 l 431 960 q 413 974 421 960 l 394 1011 l 391 1026 l 381 1026 l 379 1011 l 360 974 q 342 960 353 960 l 244 960 m 436 1146 q 419 1163 419 1146 l 419 1205 l 267 1205 q 250 1222 250 1205 l 250 1260 q 271 1285 250 1285 l 456 1285 q 476 1276 467 1285 l 516 1234 q 524 1212 524 1225 l 524 1163 q 507 1146 524 1146 l 436 1146 z "},"Ẫ":{"ha":776,"x_min":78,"x_max":697,"o":"m 96 0 q 78 17 78 0 l 78 661 q 85 682 78 670 l 250 915 q 272 926 258 926 l 502 926 q 524 915 517 926 l 690 682 q 697 661 697 672 l 697 17 q 679 0 697 0 l 483 0 q 465 17 465 0 l 465 313 l 310 313 l 310 17 q 293 0 310 0 l 96 0 m 388 462 q 474 490 451 462 q 497 597 497 518 q 474 705 497 676 q 388 733 451 733 q 302 705 324 733 q 279 597 279 676 q 302 490 279 518 q 388 462 324 462 m 244 960 q 231 966 235 960 q 232 980 228 972 l 294 1099 q 315 1111 299 1111 l 458 1111 q 478 1099 473 1111 l 541 980 q 542 966 546 972 q 530 960 538 960 l 431 960 q 413 974 421 960 l 394 1011 l 391 1026 l 381 1026 l 379 1011 l 360 974 q 342 960 353 960 l 244 960 m 249 1146 q 240 1165 234 1146 l 285 1273 q 299 1285 293 1285 l 397 1285 q 408 1273 404 1285 l 426 1224 l 445 1273 q 469 1285 451 1285 l 525 1285 q 534 1265 540 1285 l 492 1158 q 478 1146 488 1146 l 381 1146 q 370 1158 374 1146 l 357 1210 l 324 1158 q 299 1146 317 1146 l 249 1146 z "},"Ȁ":{"ha":776,"x_min":78,"x_max":697,"o":"m 96 0 q 78 17 78 0 l 78 661 q 85 682 78 670 l 250 915 q 272 926 258 926 l 502 926 q 524 915 517 926 l 690 682 q 697 661 697 672 l 697 17 q 679 0 697 0 l 483 0 q 465 17 465 0 l 465 313 l 310 313 l 310 17 q 293 0 310 0 l 96 0 m 388 462 q 474 490 451 462 q 497 597 497 518 q 474 705 497 676 q 388 733 451 733 q 302 705 324 733 q 279 597 279 676 q 302 490 279 518 q 388 462 324 462 m 458 972 q 442 978 447 967 l 367 1137 q 374 1154 363 1149 l 475 1193 q 493 1187 490 1200 l 539 1017 q 532 998 542 1003 l 458 972 m 286 956 q 269 963 275 951 l 195 1121 q 201 1138 190 1133 l 303 1177 q 321 1171 317 1184 l 367 1001 q 360 982 370 987 l 286 956 z "},"Ä":{"ha":776,"x_min":78,"x_max":697,"o":"m 96 0 q 78 17 78 0 l 78 661 q 85 682 78 670 l 250 915 q 272 926 258 926 l 502 926 q 524 915 517 926 l 690 682 q 697 661 697 672 l 697 17 q 679 0 697 0 l 483 0 q 465 17 465 0 l 465 313 l 310 313 l 310 17 q 293 0 310 0 l 96 0 m 388 462 q 474 490 451 462 q 497 597 497 518 q 474 705 497 676 q 388 733 451 733 q 302 705 324 733 q 279 597 279 676 q 302 490 279 518 q 388 462 324 462 m 185 983 q 172 997 172 983 l 172 1085 q 185 1099 172 1099 l 351 1099 q 363 1085 363 1099 l 363 997 q 351 983 363 983 l 185 983 m 425 983 q 411 997 411 983 l 411 1085 q 425 1099 411 1099 l 590 1099 q 603 1085 603 1099 l 603 997 q 590 983 603 983 l 425 983 z "},"Ǟ":{"ha":776,"x_min":78,"x_max":697,"o":"m 96 0 q 78 17 78 0 l 78 661 q 85 682 78 670 l 250 915 q 272 926 258 926 l 502 926 q 524 915 517 926 l 690 682 q 697 661 697 672 l 697 17 q 679 0 697 0 l 483 0 q 465 17 465 0 l 465 313 l 310 313 l 310 17 q 293 0 310 0 l 96 0 m 388 462 q 474 490 451 462 q 497 597 497 518 q 474 705 497 676 q 388 733 451 733 q 302 705 324 733 q 279 597 279 676 q 302 490 279 518 q 388 462 324 462 m 185 983 q 172 997 172 983 l 172 1085 q 185 1099 172 1099 l 351 1099 q 363 1085 363 1099 l 363 997 q 351 983 363 983 l 185 983 m 425 983 q 411 997 411 983 l 411 1085 q 425 1099 411 1099 l 590 1099 q 603 1085 603 1099 l 603 997 q 590 983 603 983 l 425 983 m 264 1181 q 247 1198 247 1181 l 247 1233 q 264 1250 247 1250 l 508 1250 q 525 1233 525 1250 l 525 1198 q 508 1181 525 1181 l 264 1181 z "},"Ȧ":{"ha":776,"x_min":78,"x_max":697,"o":"m 96 0 q 78 17 78 0 l 78 661 q 85 682 78 670 l 250 915 q 272 926 258 926 l 502 926 q 524 915 517 926 l 690 682 q 697 661 697 672 l 697 17 q 679 0 697 0 l 483 0 q 465 17 465 0 l 465 313 l 310 313 l 310 17 q 293 0 310 0 l 96 0 m 388 462 q 474 490 451 462 q 497 597 497 518 q 474 705 497 676 q 388 733 451 733 q 302 705 324 733 q 279 597 279 676 q 302 490 279 518 q 388 462 324 462 m 388 963 q 338 983 358 963 q 318 1033 318 1003 q 338 1083 318 1063 q 388 1103 358 1103 q 438 1083 418 1103 q 457 1033 457 1063 q 438 983 457 1003 q 388 963 418 963 z "},"Ạ":{"ha":776,"x_min":78,"x_max":697,"o":"m 96 0 q 78 17 78 0 l 78 661 q 85 682 78 670 l 250 915 q 272 926 258 926 l 502 926 q 524 915 517 926 l 690 682 q 697 661 697 672 l 697 17 q 679 0 697 0 l 483 0 q 465 17 465 0 l 465 313 l 310 313 l 310 17 q 293 0 310 0 l 96 0 m 388 462 q 474 490 451 462 q 497 597 497 518 q 474 705 497 676 q 388 733 451 733 q 302 705 324 733 q 279 597 279 676 q 302 490 279 518 q 388 462 324 462 m 388 -172 q 338 -152 358 -172 q 318 -102 318 -132 q 338 -51 318 -72 q 388 -31 358 -31 q 438 -51 418 -31 q 457 -102 457 -72 q 438 -152 457 -132 q 388 -172 418 -172 z "},"Ǡ":{"ha":776,"x_min":78,"x_max":697,"o":"m 96 0 q 78 17 78 0 l 78 661 q 85 682 78 670 l 250 915 q 272 926 258 926 l 502 926 q 524 915 517 926 l 690 682 q 697 661 697 672 l 697 17 q 679 0 697 0 l 483 0 q 465 17 465 0 l 465 313 l 310 313 l 310 17 q 293 0 310 0 l 96 0 m 388 462 q 474 490 451 462 q 497 597 497 518 q 474 705 497 676 q 388 733 451 733 q 302 705 324 733 q 279 597 279 676 q 302 490 279 518 q 388 462 324 462 m 388 963 q 338 983 358 963 q 318 1033 318 1003 q 338 1083 318 1063 q 388 1103 358 1103 q 438 1083 418 1103 q 457 1033 457 1063 q 438 983 457 1003 q 388 963 418 963 m 264 1185 q 247 1202 247 1185 l 247 1237 q 264 1254 247 1254 l 508 1254 q 525 1237 525 1254 l 525 1202 q 508 1185 525 1185 l 264 1185 z "},"À":{"ha":776,"x_min":78,"x_max":697,"o":"m 96 0 q 78 17 78 0 l 78 661 q 85 682 78 670 l 250 915 q 272 926 258 926 l 502 926 q 524 915 517 926 l 690 682 q 697 661 697 672 l 697 17 q 679 0 697 0 l 483 0 q 465 17 465 0 l 465 313 l 310 313 l 310 17 q 293 0 310 0 l 96 0 m 388 462 q 474 490 451 462 q 497 597 497 518 q 474 705 497 676 q 388 733 451 733 q 302 705 324 733 q 279 597 279 676 q 302 490 279 518 q 388 462 324 462 m 459 960 l 280 1035 q 272 1053 267 1042 l 312 1136 q 331 1145 318 1153 l 494 1039 q 502 1018 507 1031 l 478 966 q 459 960 473 953 z "},"Ả":{"ha":776,"x_min":78,"x_max":697,"o":"m 96 0 q 78 17 78 0 l 78 661 q 85 682 78 670 l 250 915 q 272 926 258 926 l 502 926 q 524 915 517 926 l 690 682 q 697 661 697 672 l 697 17 q 679 0 697 0 l 483 0 q 465 17 465 0 l 465 313 l 310 313 l 310 17 q 293 0 310 0 l 96 0 m 388 462 q 474 490 451 462 q 497 597 497 518 q 474 705 497 676 q 388 733 451 733 q 302 705 324 733 q 279 597 279 676 q 302 490 279 518 q 388 462 324 462 m 436 960 q 419 978 419 960 l 419 1019 l 267 1019 q 250 1037 250 1019 l 250 1075 q 271 1099 250 1099 l 456 1099 q 476 1090 467 1099 l 516 1049 q 524 1026 524 1040 l 524 978 q 507 960 524 960 l 436 960 z "},"Ȃ":{"ha":776,"x_min":78,"x_max":697,"o":"m 96 0 q 78 17 78 0 l 78 661 q 85 682 78 670 l 250 915 q 272 926 258 926 l 502 926 q 524 915 517 926 l 690 682 q 697 661 697 672 l 697 17 q 679 0 697 0 l 483 0 q 465 17 465 0 l 465 313 l 310 313 l 310 17 q 293 0 310 0 l 96 0 m 388 462 q 474 490 451 462 q 497 597 497 518 q 474 705 497 676 q 388 733 451 733 q 302 705 324 733 q 279 597 279 676 q 302 490 279 518 q 388 462 324 462 m 303 1099 l 472 1099 q 493 1089 485 1099 l 522 1049 q 528 1028 528 1040 l 528 978 q 511 960 528 960 l 438 960 q 420 978 420 960 l 420 1021 l 355 1021 l 355 978 q 338 960 355 960 l 264 960 q 247 978 247 960 l 247 1028 q 253 1049 247 1040 l 282 1089 q 303 1099 290 1099 z "},"Ɑ":{"ha":724,"x_min":78,"x_max":646,"o":"m 257 0 q 229 12 241 0 l 90 151 q 78 178 78 162 l 78 748 q 90 776 78 764 l 229 915 q 257 926 241 926 l 628 926 q 646 908 646 926 l 646 17 q 628 0 646 0 l 484 0 q 470 3 475 0 q 460 12 466 7 l 426 47 l 391 12 q 363 0 380 0 l 257 0 m 338 162 l 387 162 q 417 171 409 162 q 426 203 426 180 l 426 764 l 338 764 q 307 755 315 764 q 299 724 299 746 l 299 203 q 307 171 299 180 q 338 162 315 162 z "},"Ā":{"ha":776,"x_min":78,"x_max":697,"o":"m 96 0 q 78 17 78 0 l 78 661 q 85 682 78 670 l 250 915 q 272 926 258 926 l 502 926 q 524 915 517 926 l 690 682 q 697 661 697 672 l 697 17 q 679 0 697 0 l 483 0 q 465 17 465 0 l 465 313 l 310 313 l 310 17 q 293 0 310 0 l 96 0 m 388 462 q 474 490 451 462 q 497 597 497 518 q 474 705 497 676 q 388 733 451 733 q 302 705 324 733 q 279 597 279 676 q 302 490 279 518 q 388 462 324 462 m 264 1007 q 247 1024 247 1007 l 247 1059 q 264 1076 247 1076 l 508 1076 q 525 1059 525 1076 l 525 1024 q 508 1007 525 1007 l 264 1007 z "},"Ą":{"ha":776,"x_min":78,"x_max":697,"o":"m 96 0 q 78 17 78 0 l 78 661 q 85 682 78 670 l 250 915 q 272 926 258 926 l 502 926 q 524 915 517 926 l 690 682 q 697 661 697 672 l 697 17 q 679 0 697 0 l 483 0 q 465 17 465 0 l 465 313 l 310 313 l 310 17 q 293 0 310 0 l 96 0 m 388 462 q 474 490 451 462 q 497 597 497 518 q 474 705 497 676 q 388 733 451 733 q 302 705 324 733 q 279 597 279 676 q 302 490 279 518 q 388 462 324 462 m 604 -208 q 597 -206 599 -208 l 533 -175 q 530 -168 530 -173 l 530 -48 q 533 -41 530 -42 l 597 4 q 604 6 599 6 l 674 6 q 679 0 679 6 l 679 -58 q 675 -65 679 -62 l 625 -88 q 622 -94 622 -90 l 622 -111 q 625 -117 622 -115 l 675 -137 q 679 -144 679 -138 l 679 -201 q 674 -208 679 -208 l 604 -208 z "},"Å":{"ha":776,"x_min":78,"x_max":697,"o":"m 96 0 q 78 17 78 0 l 78 661 q 85 682 78 670 l 250 915 q 272 926 258 926 l 502 926 q 524 915 517 926 l 690 682 q 697 661 697 672 l 697 17 q 679 0 697 0 l 483 0 q 465 17 465 0 l 465 313 l 310 313 l 310 17 q 293 0 310 0 l 96 0 m 388 462 q 474 490 451 462 q 497 597 497 518 q 474 705 497 676 q 388 733 451 733 q 302 705 324 733 q 279 597 279 676 q 302 490 279 518 q 388 462 324 462 m 269 960 q 251 978 251 960 l 251 1082 q 269 1099 251 1099 l 507 1099 q 524 1082 524 1099 l 524 978 q 507 960 524 960 l 269 960 m 389 979 q 425 994 410 979 q 440 1031 440 1010 q 425 1068 440 1053 q 389 1082 411 1082 q 352 1067 367 1082 q 337 1031 337 1052 q 352 995 337 1010 q 389 979 368 979 z "},"Ǻ":{"ha":776,"x_min":78,"x_max":697,"o":"m 96 0 q 78 17 78 0 l 78 661 q 85 682 78 670 l 250 915 q 272 926 258 926 l 502 926 q 524 915 517 926 l 690 682 q 697 661 697 672 l 697 17 q 679 0 697 0 l 483 0 q 465 17 465 0 l 465 313 l 310 313 l 310 17 q 293 0 310 0 l 96 0 m 388 462 q 474 490 451 462 q 497 597 497 518 q 474 705 497 676 q 388 733 451 733 q 302 705 324 733 q 279 597 279 676 q 302 490 279 518 q 388 462 324 462 m 269 960 q 251 978 251 960 l 251 1082 q 269 1099 251 1099 l 507 1099 q 524 1082 524 1099 l 524 978 q 507 960 524 960 l 269 960 m 389 979 q 425 994 410 979 q 440 1031 440 1010 q 425 1068 440 1053 q 389 1082 411 1082 q 352 1067 367 1082 q 337 1031 337 1052 q 352 995 337 1010 q 389 979 368 979 m 316 1133 q 297 1140 303 1127 l 273 1192 q 281 1213 268 1204 l 444 1319 q 463 1310 457 1326 l 503 1227 q 495 1208 508 1215 l 316 1133 z "},"Ḁ":{"ha":776,"x_min":78,"x_max":697,"o":"m 96 0 q 78 17 78 0 l 78 661 q 85 682 78 670 l 250 915 q 272 926 258 926 l 502 926 q 524 915 517 926 l 690 682 q 697 661 697 672 l 697 17 q 679 0 697 0 l 483 0 q 465 17 465 0 l 465 313 l 310 313 l 310 17 q 293 0 310 0 l 96 0 m 388 462 q 474 490 451 462 q 497 597 497 518 q 474 705 497 676 q 388 733 451 733 q 302 705 324 733 q 279 597 279 676 q 302 490 279 518 q 388 462 324 462 m 269 -170 q 251 -153 251 -170 l 251 -49 q 269 -31 251 -31 l 507 -31 q 524 -49 524 -31 l 524 -153 q 507 -170 524 -170 l 269 -170 m 389 -151 q 425 -136 410 -151 q 440 -99 440 -121 q 425 -63 440 -77 q 389 -49 411 -49 q 352 -64 367 -49 q 337 -99 337 -78 q 352 -136 337 -120 q 389 -151 368 -151 z "},"Ⱥ":{"ha":653,"x_min":55,"x_max":697,"o":"m 467 719 q 455 740 443 719 l 552 915 q 573 926 558 926 l 651 926 q 665 920 660 926 q 663 905 669 915 l 566 731 q 545 719 560 719 l 467 719 m 78 -68 q 66 -47 55 -68 l 163 127 q 184 139 169 139 l 262 139 q 276 133 272 139 q 274 118 280 128 l 177 -57 q 156 -68 171 -68 l 78 -68 m 96 0 q 78 17 78 0 l 78 661 q 85 682 78 670 l 250 915 q 272 926 258 926 l 502 926 q 524 915 517 926 l 690 682 q 697 661 697 672 l 697 17 q 679 0 697 0 l 483 0 q 465 17 465 0 l 465 313 l 310 313 l 310 17 q 293 0 310 0 l 96 0 m 388 462 q 474 490 451 462 q 497 597 497 518 q 474 705 497 676 q 388 733 451 733 q 302 705 324 733 q 279 597 279 676 q 302 490 279 518 q 388 462 324 462 z "},"Ã":{"ha":776,"x_min":78,"x_max":697,"o":"m 96 0 q 78 17 78 0 l 78 661 q 85 682 78 670 l 250 915 q 272 926 258 926 l 502 926 q 524 915 517 926 l 690 682 q 697 661 697 672 l 697 17 q 679 0 697 0 l 483 0 q 465 17 465 0 l 465 313 l 310 313 l 310 17 q 293 0 310 0 l 96 0 m 388 462 q 474 490 451 462 q 497 597 497 518 q 474 705 497 676 q 388 733 451 733 q 302 705 324 733 q 279 597 279 676 q 302 490 279 518 q 388 462 324 462 m 249 960 q 240 979 234 960 l 285 1088 q 299 1099 293 1099 l 397 1099 q 408 1088 404 1099 l 426 1038 l 445 1088 q 469 1099 451 1099 l 525 1099 q 534 1080 540 1099 l 492 972 q 478 960 488 960 l 381 960 q 370 972 374 960 l 357 1025 l 324 972 q 299 960 317 960 l 249 960 z "},"Æ":{"ha":1068,"x_min":78,"x_max":985,"o":"m 96 0 q 78 17 78 0 l 78 661 q 85 682 78 670 l 250 915 q 272 926 258 926 l 967 926 q 985 908 985 926 l 985 758 q 967 741 985 741 l 698 741 l 698 544 l 944 544 q 962 526 962 544 l 962 399 q 944 382 962 382 l 698 382 l 698 185 l 967 185 q 985 168 985 185 l 985 17 q 967 0 985 0 l 483 0 q 465 17 465 0 l 465 313 l 310 313 l 310 17 q 293 0 310 0 l 96 0 m 388 462 q 474 490 451 462 q 497 597 497 518 q 474 705 497 676 q 388 733 451 733 q 302 705 324 733 q 279 597 279 676 q 302 490 279 518 q 388 462 324 462 z "},"Ǽ":{"ha":1068,"x_min":78,"x_max":985,"o":"m 96 0 q 78 17 78 0 l 78 661 q 85 682 78 670 l 250 915 q 272 926 258 926 l 967 926 q 985 908 985 926 l 985 758 q 967 741 985 741 l 698 741 l 698 544 l 944 544 q 962 526 962 544 l 962 399 q 944 382 962 382 l 698 382 l 698 185 l 967 185 q 985 168 985 185 l 985 17 q 967 0 985 0 l 483 0 q 465 17 465 0 l 465 313 l 310 313 l 310 17 q 293 0 310 0 l 96 0 m 388 462 q 474 490 451 462 q 497 597 497 518 q 474 705 497 676 q 388 733 451 733 q 302 705 324 733 q 279 597 279 676 q 302 490 279 518 q 388 462 324 462 m 519 960 q 500 966 506 953 l 476 1018 q 483 1039 471 1031 l 647 1145 q 666 1136 660 1153 l 706 1053 q 698 1035 711 1042 l 519 960 z "},"Ǣ":{"ha":1068,"x_min":78,"x_max":985,"o":"m 96 0 q 78 17 78 0 l 78 661 q 85 682 78 670 l 250 915 q 272 926 258 926 l 967 926 q 985 908 985 926 l 985 758 q 967 741 985 741 l 698 741 l 698 544 l 944 544 q 962 526 962 544 l 962 399 q 944 382 962 382 l 698 382 l 698 185 l 967 185 q 985 168 985 185 l 985 17 q 967 0 985 0 l 483 0 q 465 17 465 0 l 465 313 l 310 313 l 310 17 q 293 0 310 0 l 96 0 m 388 462 q 474 490 451 462 q 497 597 497 518 q 474 705 497 676 q 388 733 451 733 q 302 705 324 733 q 279 597 279 676 q 302 490 279 518 q 388 462 324 462 m 467 1007 q 449 1024 449 1007 l 449 1059 q 467 1076 449 1076 l 710 1076 q 728 1059 728 1076 l 728 1024 q 710 1007 728 1007 l 467 1007 z "},"B":{"ha":787,"x_min":87,"x_max":700,"o":"m 104 0 q 87 17 87 0 l 87 908 q 104 926 87 926 l 522 926 q 550 915 538 926 l 689 776 q 700 748 700 764 l 700 602 q 697 591 700 595 q 689 581 694 587 l 580 484 l 569 458 l 580 440 l 689 342 q 697 333 694 337 q 700 322 700 329 l 700 178 q 689 151 700 162 l 550 12 q 522 0 538 0 l 104 0 m 381 156 q 459 179 438 156 q 481 266 481 202 q 459 353 481 331 q 381 376 438 376 q 302 353 324 376 q 281 266 281 331 q 302 179 281 202 q 381 156 324 156 m 381 550 q 459 573 438 550 q 481 660 481 596 q 459 747 481 724 q 381 769 438 769 q 302 747 324 769 q 281 660 281 724 q 302 573 281 596 q 381 550 324 550 z "},"Ḃ":{"ha":787,"x_min":87,"x_max":700,"o":"m 104 0 q 87 17 87 0 l 87 908 q 104 926 87 926 l 522 926 q 550 915 538 926 l 689 776 q 700 748 700 764 l 700 602 q 697 591 700 595 q 689 581 694 587 l 580 484 l 569 458 l 580 440 l 689 342 q 697 333 694 337 q 700 322 700 329 l 700 178 q 689 151 700 162 l 550 12 q 522 0 538 0 l 104 0 m 381 156 q 459 179 438 156 q 481 266 481 202 q 459 353 481 331 q 381 376 438 376 q 302 353 324 376 q 281 266 281 331 q 302 179 281 202 q 381 156 324 156 m 381 550 q 459 573 438 550 q 481 660 481 596 q 459 747 481 724 q 381 769 438 769 q 302 747 324 769 q 281 660 281 724 q 302 573 281 596 q 381 550 324 550 m 376 963 q 327 983 347 963 q 307 1033 307 1003 q 327 1083 307 1063 q 376 1103 347 1103 q 426 1083 407 1103 q 446 1033 446 1063 q 426 983 446 1003 q 376 963 407 963 z "},"Ḅ":{"ha":787,"x_min":87,"x_max":700,"o":"m 104 0 q 87 17 87 0 l 87 908 q 104 926 87 926 l 522 926 q 550 915 538 926 l 689 776 q 700 748 700 764 l 700 602 q 697 591 700 595 q 689 581 694 587 l 580 484 l 569 458 l 580 440 l 689 342 q 697 333 694 337 q 700 322 700 329 l 700 178 q 689 151 700 162 l 550 12 q 522 0 538 0 l 104 0 m 381 156 q 459 179 438 156 q 481 266 481 202 q 459 353 481 331 q 381 376 438 376 q 302 353 324 376 q 281 266 281 331 q 302 179 281 202 q 381 156 324 156 m 381 550 q 459 573 438 550 q 481 660 481 596 q 459 747 481 724 q 381 769 438 769 q 302 747 324 769 q 281 660 281 724 q 302 573 281 596 q 381 550 324 550 m 384 -175 q 334 -155 354 -175 q 315 -106 315 -135 q 334 -55 315 -75 q 384 -35 354 -35 q 434 -55 415 -35 q 453 -106 453 -75 q 434 -155 453 -135 q 384 -175 415 -175 z "},"Ꞵ":{"ha":787,"x_min":87,"x_max":700,"o":"m 104 -231 q 87 -214 87 -231 l 87 908 q 104 926 87 926 l 522 926 q 550 915 538 926 l 689 776 q 700 748 700 764 l 700 602 q 697 591 700 595 q 689 581 694 587 l 580 484 l 569 458 l 580 440 l 689 342 q 697 333 694 337 q 700 322 700 329 l 700 178 q 689 151 700 162 l 550 12 q 522 0 538 0 l 283 0 l 283 -214 q 266 -231 283 -231 l 104 -231 m 381 156 q 459 179 438 156 q 481 266 481 202 q 459 353 481 331 q 381 376 438 376 q 302 353 324 376 q 281 266 281 331 q 302 179 281 202 q 381 156 324 156 m 381 550 q 459 573 438 550 q 481 660 481 596 q 459 747 481 724 q 381 769 438 769 q 302 747 324 769 q 281 660 281 724 q 302 573 281 596 q 381 550 324 550 z "},"Ɓ":{"ha":1056,"x_min":83,"x_max":969,"o":"m 104 642 q 83 665 83 642 l 83 835 q 92 863 83 853 l 141 915 q 168 926 151 926 l 373 926 l 373 779 l 235 779 l 235 665 q 213 642 235 642 l 104 642 m 373 0 q 356 17 356 0 l 356 908 q 373 926 356 926 l 791 926 q 819 915 807 926 l 958 776 q 969 748 969 764 l 969 602 q 966 591 969 595 q 958 581 963 587 l 849 484 l 838 458 l 849 440 l 958 342 q 966 333 963 337 q 969 322 969 329 l 969 178 q 958 151 969 162 l 819 12 q 791 0 807 0 l 373 0 m 649 156 q 728 179 707 156 q 749 266 749 202 q 728 353 749 331 q 649 376 707 376 q 571 353 592 376 q 550 266 550 331 q 571 179 550 202 q 649 156 592 156 m 649 550 q 728 573 707 550 q 749 660 749 596 q 728 747 749 724 q 649 769 707 769 q 571 747 592 769 q 550 660 550 724 q 571 573 550 596 q 649 550 592 550 z "},"Ḇ":{"ha":787,"x_min":87,"x_max":700,"o":"m 104 0 q 87 17 87 0 l 87 908 q 104 926 87 926 l 522 926 q 550 915 538 926 l 689 776 q 700 748 700 764 l 700 602 q 697 591 700 595 q 689 581 694 587 l 580 484 l 569 458 l 580 440 l 689 342 q 697 333 694 337 q 700 322 700 329 l 700 178 q 689 151 700 162 l 550 12 q 522 0 538 0 l 104 0 m 381 156 q 459 179 438 156 q 481 266 481 202 q 459 353 481 331 q 381 376 438 376 q 302 353 324 376 q 281 266 281 331 q 302 179 281 202 q 381 156 324 156 m 381 550 q 459 573 438 550 q 481 660 481 596 q 459 747 481 724 q 381 769 438 769 q 302 747 324 769 q 281 660 281 724 q 302 573 281 596 q 381 550 324 550 m 262 -104 q 244 -87 244 -104 l 244 -52 q 262 -35 244 -35 l 506 -35 q 523 -52 523 -35 l 523 -87 q 506 -104 523 -104 l 262 -104 z "},"Ƀ":{"ha":787,"x_min":17,"x_max":700,"o":"m 35 224 q 17 242 17 224 l 17 283 q 35 300 17 300 l 356 300 q 373 283 373 300 l 373 242 q 356 224 373 224 l 35 224 m 104 0 q 87 17 87 0 l 87 908 q 104 926 87 926 l 522 926 q 550 915 538 926 l 689 776 q 700 748 700 764 l 700 602 q 697 591 700 595 q 689 581 694 587 l 580 484 l 569 458 l 580 440 l 689 342 q 697 333 694 337 q 700 322 700 329 l 700 178 q 689 151 700 162 l 550 12 q 522 0 538 0 l 104 0 m 381 156 q 459 179 438 156 q 481 266 481 202 q 459 353 481 331 q 381 376 438 376 q 302 353 324 376 q 281 266 281 331 q 302 179 281 202 q 381 156 324 156 m 381 550 q 459 573 438 550 q 481 660 481 596 q 459 747 481 724 q 381 769 438 769 q 302 747 324 769 q 281 660 281 724 q 302 573 281 596 q 381 550 324 550 z "},"C":{"ha":585,"x_min":78,"x_max":535,"o":"m 346 0 q 318 9 330 0 l 205 113 l 90 262 q 81 274 83 272 q 78 286 78 276 l 78 640 q 81 653 78 650 q 90 665 83 656 l 197 802 l 318 917 q 330 924 326 923 q 346 926 335 926 l 517 926 q 535 908 535 926 l 535 797 q 534 786 535 792 q 526 776 533 780 l 396 686 l 310 576 l 310 349 l 397 240 l 526 151 q 533 142 532 147 q 535 132 535 138 l 535 17 q 517 0 535 0 l 346 0 z "},"Ć":{"ha":585,"x_min":78,"x_max":535,"o":"m 346 0 q 318 9 330 0 l 205 113 l 90 262 q 81 274 83 272 q 78 286 78 276 l 78 640 q 81 653 78 650 q 90 665 83 656 l 197 802 l 318 917 q 330 924 326 923 q 346 926 335 926 l 517 926 q 535 908 535 926 l 535 797 q 534 786 535 792 q 526 776 533 780 l 396 686 l 310 576 l 310 349 l 397 240 l 526 151 q 533 142 532 147 q 535 132 535 138 l 535 17 q 517 0 535 0 l 346 0 m 342 960 q 323 966 328 953 l 299 1018 q 306 1039 294 1031 l 470 1145 q 489 1136 483 1153 l 528 1053 q 521 1035 534 1042 l 342 960 z "},"Ꞓ":{"ha":588,"x_min":7,"x_max":537,"o":"m 348 -3 q 320 6 332 -3 l 207 109 l 92 258 q 83 270 85 268 q 81 283 81 273 l 81 637 q 83 649 81 647 q 92 661 85 652 l 199 799 l 320 913 q 332 921 328 919 q 348 922 337 922 l 519 922 q 537 905 537 922 l 537 794 q 536 782 537 788 q 528 772 535 776 l 398 683 l 313 573 l 313 346 l 399 236 l 528 147 q 535 139 534 144 q 537 128 537 134 l 537 14 q 519 -3 537 -3 l 348 -3 m 24 431 q 7 448 7 431 l 7 471 q 24 488 7 488 l 405 488 q 422 471 422 488 l 422 448 q 405 431 422 431 l 24 431 z "},"Č":{"ha":585,"x_min":78,"x_max":560,"o":"m 346 0 q 318 9 330 0 l 205 113 l 90 262 q 81 274 83 272 q 78 286 78 276 l 78 640 q 81 653 78 650 q 90 665 83 656 l 197 802 l 318 917 q 330 924 326 923 q 346 926 335 926 l 517 926 q 535 908 535 926 l 535 797 q 534 786 535 792 q 526 776 533 780 l 396 686 l 310 576 l 310 349 l 397 240 l 526 151 q 533 142 532 147 q 535 132 535 138 l 535 17 q 517 0 535 0 l 346 0 m 346 960 q 326 971 331 960 l 269 1081 q 269 1094 265 1088 q 281 1099 272 1099 l 372 1099 q 389 1087 381 1099 l 407 1052 l 410 1038 l 414 1038 l 417 1052 l 436 1087 q 453 1099 444 1099 l 544 1099 q 556 1094 553 1099 q 556 1081 560 1088 l 497 971 q 478 960 493 960 l 346 960 z "},"Ç":{"ha":585,"x_min":78,"x_max":535,"o":"m 346 0 q 318 9 330 0 l 205 113 l 90 262 q 81 274 83 272 q 78 286 78 276 l 78 640 q 81 653 78 650 q 90 665 83 656 l 197 802 l 318 917 q 330 924 326 923 q 346 926 335 926 l 517 926 q 535 908 535 926 l 535 797 q 534 786 535 792 q 526 776 533 780 l 396 686 l 310 576 l 310 349 l 397 240 l 526 151 q 533 142 532 147 q 535 132 535 138 l 535 17 q 517 0 535 0 l 346 0 m 363 -224 q 345 -210 345 -224 l 345 -186 q 363 -172 345 -172 l 441 -172 l 441 -116 l 380 -116 q 363 -99 363 -116 l 363 -53 l 398 0 l 492 0 l 456 -53 l 501 -53 q 519 -71 519 -53 l 519 -181 q 509 -203 519 -193 l 495 -217 q 485 -223 490 -222 q 474 -224 479 -224 l 363 -224 z "},"Ḉ":{"ha":585,"x_min":78,"x_max":535,"o":"m 346 0 q 318 9 330 0 l 205 113 l 90 262 q 81 274 83 272 q 78 286 78 276 l 78 640 q 81 653 78 650 q 90 665 83 656 l 197 802 l 318 917 q 330 924 326 923 q 346 926 335 926 l 517 926 q 535 908 535 926 l 535 797 q 534 786 535 792 q 526 776 533 780 l 396 686 l 310 576 l 310 349 l 397 240 l 526 151 q 533 142 532 147 q 535 132 535 138 l 535 17 q 517 0 535 0 l 346 0 m 363 -224 q 345 -210 345 -224 l 345 -186 q 363 -172 345 -172 l 441 -172 l 441 -116 l 380 -116 q 363 -99 363 -116 l 363 -53 l 398 0 l 492 0 l 456 -53 l 501 -53 q 519 -71 519 -53 l 519 -181 q 509 -203 519 -193 l 495 -217 q 485 -223 490 -222 q 474 -224 479 -224 l 363 -224 m 342 960 q 323 966 328 953 l 299 1018 q 306 1039 294 1031 l 470 1145 q 489 1136 483 1153 l 528 1053 q 521 1035 534 1042 l 342 960 z "},"Ĉ":{"ha":585,"x_min":78,"x_max":572,"o":"m 346 0 q 318 9 330 0 l 205 113 l 90 262 q 81 274 83 272 q 78 286 78 276 l 78 640 q 81 653 78 650 q 90 665 83 656 l 197 802 l 318 917 q 330 924 326 923 q 346 926 335 926 l 517 926 q 535 908 535 926 l 535 797 q 534 786 535 792 q 526 776 533 780 l 396 686 l 310 576 l 310 349 l 397 240 l 526 151 q 533 142 532 147 q 535 132 535 138 l 535 17 q 517 0 535 0 l 346 0 m 269 960 q 257 966 260 960 q 258 980 253 972 l 319 1099 q 340 1111 325 1111 l 483 1111 q 504 1099 499 1111 l 567 980 q 568 966 572 972 q 556 960 564 960 l 457 960 q 438 974 447 960 l 420 1011 l 417 1026 l 407 1026 l 405 1011 l 386 974 q 368 960 378 960 l 269 960 z "},"Ċ":{"ha":585,"x_min":78,"x_max":535,"o":"m 346 0 q 318 9 330 0 l 205 113 l 90 262 q 81 274 83 272 q 78 286 78 276 l 78 640 q 81 653 78 650 q 90 665 83 656 l 197 802 l 318 917 q 330 924 326 923 q 346 926 335 926 l 517 926 q 535 908 535 926 l 535 797 q 534 786 535 792 q 526 776 533 780 l 396 686 l 310 576 l 310 349 l 397 240 l 526 151 q 533 142 532 147 q 535 132 535 138 l 535 17 q 517 0 535 0 l 346 0 m 413 963 q 364 983 383 963 q 344 1033 344 1003 q 364 1083 344 1063 q 413 1103 383 1103 q 463 1083 444 1103 q 483 1033 483 1063 q 463 983 483 1003 q 413 963 444 963 z "},"Ꭓ":{"ha":942,"x_min":78,"x_max":863,"o":"m 179 -47 q 162 -29 162 -47 l 162 304 q 163 315 162 310 q 169 325 164 320 l 259 415 l 259 440 l 167 533 q 161 543 162 538 q 160 553 160 547 l 160 752 l 96 752 q 78 769 78 752 l 78 908 q 96 926 78 926 l 213 926 q 241 915 229 926 l 380 776 q 391 748 391 764 l 391 522 l 553 522 l 553 908 q 571 926 553 926 l 767 926 q 785 908 785 926 l 785 553 q 784 543 785 547 q 778 533 783 538 l 685 440 l 685 415 l 776 325 q 782 315 781 320 q 783 304 783 310 l 783 127 l 846 127 q 863 110 863 127 l 863 -29 q 846 -47 863 -47 l 729 -47 q 701 -35 713 -47 l 563 103 q 551 131 551 115 l 551 337 l 394 337 l 394 -29 q 376 -47 394 -47 l 179 -47 z "},"Ƈ":{"ha":585,"x_min":78,"x_max":635,"o":"m 413 891 q 395 908 395 891 l 395 1030 q 403 1052 395 1044 l 442 1094 q 463 1103 449 1103 l 590 1103 q 623 1092 611 1103 q 635 1067 635 1082 l 635 983 q 617 965 635 965 l 535 965 l 535 908 q 517 891 535 891 l 413 891 m 346 0 q 318 9 330 0 l 205 113 l 90 262 q 81 274 83 272 q 78 286 78 276 l 78 640 q 81 653 78 650 q 90 665 83 656 l 197 802 l 318 917 q 330 924 326 923 q 346 926 335 926 l 517 926 q 535 908 535 926 l 535 797 q 534 786 535 792 q 526 776 533 780 l 396 686 l 310 576 l 310 349 l 397 240 l 526 151 q 533 142 532 147 q 535 132 535 138 l 535 17 q 517 0 535 0 l 346 0 z "},"Ȼ":{"ha":585,"x_min":78,"x_max":535,"o":"m 263 -76 l 494 1031 l 533 1031 l 301 -76 l 263 -76 m 346 0 q 318 9 330 0 l 205 113 l 90 262 q 81 274 83 272 q 78 286 78 276 l 78 640 q 81 653 78 650 q 90 665 83 656 l 197 802 l 318 917 q 330 924 326 923 q 346 926 335 926 l 517 926 q 535 908 535 926 l 535 797 q 534 786 535 792 q 526 776 533 780 l 396 686 l 310 576 l 310 349 l 397 240 l 526 151 q 533 142 532 147 q 535 132 535 138 l 535 17 q 517 0 535 0 l 346 0 z "},"D":{"ha":776,"x_min":78,"x_max":698,"o":"m 96 0 q 78 17 78 0 l 78 908 q 96 926 78 926 l 519 926 q 547 915 536 926 l 686 776 q 698 748 698 764 l 698 178 q 686 151 698 162 l 547 12 q 519 0 536 0 l 96 0 m 310 185 l 438 185 q 467 224 467 185 l 467 701 q 438 741 467 741 l 310 741 l 310 185 z "},"Ǆ":{"ha":1351,"x_min":78,"x_max":1313,"o":"m 96 0 q 78 17 78 0 l 78 908 q 96 926 78 926 l 519 926 q 547 915 536 926 l 686 776 q 698 748 698 764 l 698 178 q 686 151 698 162 l 547 12 q 519 0 536 0 l 96 0 m 310 185 l 438 185 q 467 224 467 185 l 467 701 q 438 741 467 741 l 310 741 l 310 185 m 931 0 q 910 12 916 0 l 823 158 q 820 183 815 171 l 1056 736 l 1049 713 l 1049 753 l 1056 741 l 847 741 q 830 758 830 741 l 830 908 q 847 926 830 926 l 1184 926 q 1205 915 1198 926 l 1304 776 q 1306 751 1313 765 l 1068 193 l 1074 233 l 1074 167 l 1063 185 l 1281 185 q 1299 168 1299 185 l 1299 17 q 1281 0 1299 0 l 931 0 m 996 960 q 976 971 981 960 l 919 1081 q 919 1094 915 1088 q 931 1099 922 1099 l 1022 1099 q 1039 1087 1031 1099 l 1057 1052 l 1060 1038 l 1064 1038 l 1067 1052 l 1086 1087 q 1103 1099 1094 1099 l 1194 1099 q 1206 1094 1203 1099 q 1206 1081 1210 1088 l 1147 971 q 1128 960 1143 960 l 996 960 z "},"Ď":{"ha":776,"x_min":78,"x_max":698,"o":"m 96 0 q 78 17 78 0 l 78 908 q 96 926 78 926 l 519 926 q 547 915 536 926 l 686 776 q 698 748 698 764 l 698 178 q 686 151 698 162 l 547 12 q 519 0 536 0 l 96 0 m 310 185 l 438 185 q 467 224 467 185 l 467 701 q 438 741 467 741 l 310 741 l 310 185 m 275 960 q 256 971 260 960 l 199 1081 q 198 1094 194 1088 q 210 1099 201 1099 l 301 1099 q 318 1087 310 1099 l 336 1052 l 339 1038 l 343 1038 l 347 1052 l 365 1087 q 383 1099 373 1099 l 473 1099 q 485 1094 482 1099 q 485 1081 489 1088 l 426 971 q 407 960 422 960 l 275 960 z "},"Ḑ":{"ha":776,"x_min":78,"x_max":698,"o":"m 96 0 q 78 17 78 0 l 78 908 q 96 926 78 926 l 519 926 q 547 915 536 926 l 686 776 q 698 748 698 764 l 698 178 q 686 151 698 162 l 547 12 q 519 0 536 0 l 96 0 m 310 185 l 438 185 q 467 224 467 185 l 467 701 q 438 741 467 741 l 310 741 l 310 185 m 283 -208 q 274 -199 274 -208 l 274 -149 q 283 -140 274 -140 l 321 -140 q 332 -131 332 -140 l 332 -109 l 274 -109 q 265 -99 265 -106 l 266 -44 q 276 -35 266 -35 l 411 -35 q 420 -44 420 -35 l 420 -130 q 401 -189 420 -169 q 351 -208 382 -208 l 283 -208 z "},"Ḓ":{"ha":776,"x_min":78,"x_max":698,"o":"m 96 0 q 78 17 78 0 l 78 908 q 96 926 78 926 l 519 926 q 547 915 536 926 l 686 776 q 698 748 698 764 l 698 178 q 686 151 698 162 l 547 12 q 519 0 536 0 l 96 0 m 310 185 l 438 185 q 467 224 467 185 l 467 701 q 438 741 467 741 l 310 741 l 310 185 m 210 -174 q 198 -168 201 -174 q 199 -155 194 -162 l 256 -45 q 275 -35 260 -35 l 407 -35 q 426 -45 422 -35 l 485 -155 q 485 -168 489 -162 q 473 -174 482 -174 l 383 -174 q 365 -161 373 -174 l 347 -126 l 343 -112 l 339 -112 l 336 -126 l 318 -161 q 301 -174 310 -174 l 210 -174 z "},"Đ":{"ha":843,"x_min":61,"x_max":765,"o":"m 78 399 q 61 417 61 399 l 61 509 q 78 526 61 526 l 467 526 q 485 509 485 526 l 485 417 q 467 399 485 399 l 78 399 m 163 0 q 145 17 145 0 l 145 908 q 163 926 145 926 l 586 926 q 614 915 603 926 l 753 776 q 765 748 765 764 l 765 178 q 753 151 765 162 l 614 12 q 586 0 603 0 l 163 0 m 377 185 l 504 185 q 533 224 533 185 l 533 701 q 504 741 533 741 l 377 741 l 377 185 z "},"Ḋ":{"ha":776,"x_min":78,"x_max":698,"o":"m 96 0 q 78 17 78 0 l 78 908 q 96 926 78 926 l 519 926 q 547 915 536 926 l 686 776 q 698 748 698 764 l 698 178 q 686 151 698 162 l 547 12 q 519 0 536 0 l 96 0 m 310 185 l 438 185 q 467 224 467 185 l 467 701 q 438 741 467 741 l 310 741 l 310 185 m 342 963 q 293 983 313 963 q 273 1033 273 1003 q 293 1083 273 1063 q 342 1103 313 1103 q 392 1083 373 1103 q 412 1033 412 1063 q 392 983 412 1003 q 342 963 373 963 z "},"Ḍ":{"ha":776,"x_min":78,"x_max":698,"o":"m 96 0 q 78 17 78 0 l 78 908 q 96 926 78 926 l 519 926 q 547 915 536 926 l 686 776 q 698 748 698 764 l 698 178 q 686 151 698 162 l 547 12 q 519 0 536 0 l 96 0 m 310 185 l 438 185 q 467 224 467 185 l 467 701 q 438 741 467 741 l 310 741 l 310 185 m 342 -175 q 293 -155 313 -175 q 273 -106 273 -135 q 293 -55 273 -75 q 342 -35 313 -35 q 392 -55 373 -35 q 412 -106 412 -75 q 392 -155 412 -135 q 342 -175 373 -175 z "},"Ɗ":{"ha":1060,"x_min":83,"x_max":982,"o":"m 104 642 q 83 665 83 642 l 83 835 q 92 863 83 853 l 141 915 q 168 926 151 926 l 373 926 l 373 779 l 235 779 l 235 665 q 213 642 235 642 l 104 642 m 380 0 q 363 17 363 0 l 363 908 q 380 926 363 926 l 803 926 q 831 915 820 926 l 970 776 q 982 748 982 764 l 982 178 q 970 151 982 162 l 831 12 q 803 0 820 0 l 380 0 m 594 185 l 722 185 q 751 224 751 185 l 751 701 q 722 741 751 741 l 594 741 l 594 185 z "},"Ḏ":{"ha":776,"x_min":78,"x_max":698,"o":"m 96 0 q 78 17 78 0 l 78 908 q 96 926 78 926 l 519 926 q 547 915 536 926 l 686 776 q 698 748 698 764 l 698 178 q 686 151 698 162 l 547 12 q 519 0 536 0 l 96 0 m 310 185 l 438 185 q 467 224 467 185 l 467 701 q 438 741 467 741 l 310 741 l 310 185 m 220 -104 q 203 -87 203 -104 l 203 -52 q 220 -35 203 -35 l 464 -35 q 481 -52 481 -35 l 481 -87 q 464 -104 481 -104 l 220 -104 z "},"Ɖ":{"ha":843,"x_min":61,"x_max":765,"o":"m 78 399 q 61 417 61 399 l 61 509 q 78 526 61 526 l 467 526 q 485 509 485 526 l 485 417 q 467 399 485 399 l 78 399 m 163 0 q 145 17 145 0 l 145 908 q 163 926 145 926 l 586 926 q 614 915 603 926 l 753 776 q 765 748 765 764 l 765 178 q 753 151 765 162 l 614 12 q 586 0 603 0 l 163 0 m 377 185 l 504 185 q 533 224 533 185 l 533 701 q 504 741 533 741 l 377 741 l 377 185 z "},"Ƌ":{"ha":754,"x_min":78,"x_max":676,"o":"m 236 0 q 214 9 222 0 l 87 141 q 78 163 78 151 l 78 542 l 456 542 l 456 741 l 89 741 l 89 926 l 676 926 l 676 163 q 668 141 676 151 l 540 9 q 519 0 533 0 l 236 0 m 377 185 q 438 199 419 185 q 456 245 456 213 l 456 376 l 299 376 l 299 245 q 316 199 299 213 q 377 185 334 185 z "},"Ð":{"ha":843,"x_min":61,"x_max":765,"o":"m 78 399 q 61 417 61 399 l 61 509 q 78 526 61 526 l 467 526 q 485 509 485 526 l 485 417 q 467 399 485 399 l 78 399 m 163 0 q 145 17 145 0 l 145 908 q 163 926 145 926 l 586 926 q 614 915 603 926 l 753 776 q 765 748 765 764 l 765 178 q 753 151 765 162 l 614 12 q 586 0 603 0 l 163 0 m 377 185 l 504 185 q 533 224 533 185 l 533 701 q 504 741 533 741 l 377 741 l 377 185 z "},"E":{"ha":685,"x_min":83,"x_max":602,"o":"m 101 0 q 83 17 83 0 l 83 908 q 101 926 83 926 l 585 926 q 602 908 602 926 l 602 758 q 585 741 602 741 l 315 741 l 315 544 l 561 544 q 578 526 578 544 l 578 399 q 561 382 578 382 l 315 382 l 315 185 l 585 185 q 602 168 602 185 l 602 17 q 585 0 602 0 l 101 0 z "},"É":{"ha":685,"x_min":83,"x_max":602,"o":"m 101 0 q 83 17 83 0 l 83 908 q 101 926 83 926 l 585 926 q 602 908 602 926 l 602 758 q 585 741 602 741 l 315 741 l 315 544 l 561 544 q 578 526 578 544 l 578 399 q 561 382 578 382 l 315 382 l 315 185 l 585 185 q 602 168 602 185 l 602 17 q 585 0 602 0 l 101 0 m 281 960 q 263 966 268 953 l 238 1018 q 246 1039 233 1031 l 410 1145 q 428 1136 422 1153 l 468 1053 q 460 1035 474 1042 l 281 960 z "},"Ĕ":{"ha":685,"x_min":83,"x_max":602,"o":"m 101 0 q 83 17 83 0 l 83 908 q 101 926 83 926 l 585 926 q 602 908 602 926 l 602 758 q 585 741 602 741 l 315 741 l 315 544 l 561 544 q 578 526 578 544 l 578 399 q 561 382 578 382 l 315 382 l 315 185 l 585 185 q 602 168 602 185 l 602 17 q 585 0 602 0 l 101 0 m 268 960 q 247 971 255 960 l 219 1010 q 212 1031 212 1020 l 212 1082 q 229 1099 212 1099 l 303 1099 q 320 1082 320 1099 l 320 1039 l 385 1039 l 385 1082 q 403 1099 385 1099 l 476 1099 q 494 1082 494 1099 l 494 1031 q 487 1010 494 1020 l 458 971 q 438 960 451 960 l 268 960 z "},"Ě":{"ha":685,"x_min":83,"x_max":602,"o":"m 101 0 q 83 17 83 0 l 83 908 q 101 926 83 926 l 585 926 q 602 908 602 926 l 602 758 q 585 741 602 741 l 315 741 l 315 544 l 561 544 q 578 526 578 544 l 578 399 q 561 382 578 382 l 315 382 l 315 185 l 585 185 q 602 168 602 185 l 602 17 q 585 0 602 0 l 101 0 m 285 960 q 266 971 270 960 l 209 1081 q 208 1094 205 1088 q 221 1099 212 1099 l 311 1099 q 328 1087 320 1099 l 347 1052 l 349 1038 l 353 1038 l 357 1052 l 376 1087 q 393 1099 383 1099 l 483 1099 q 496 1094 492 1099 q 495 1081 499 1088 l 437 971 q 417 960 433 960 l 285 960 z "},"Ȩ":{"ha":685,"x_min":83,"x_max":602,"o":"m 101 0 q 83 17 83 0 l 83 908 q 101 926 83 926 l 585 926 q 602 908 602 926 l 602 758 q 585 741 602 741 l 315 741 l 315 544 l 561 544 q 578 526 578 544 l 578 399 q 561 382 578 382 l 315 382 l 315 185 l 585 185 q 602 168 602 185 l 602 17 q 585 0 602 0 l 101 0 m 283 -224 q 266 -210 266 -224 l 266 -186 q 283 -172 266 -172 l 362 -172 l 362 -116 l 301 -116 q 283 -99 283 -116 l 283 -53 l 319 0 l 413 0 l 377 -53 l 422 -53 q 440 -71 440 -53 l 440 -181 q 430 -203 440 -193 l 416 -217 q 406 -223 411 -222 q 394 -224 400 -224 l 283 -224 z "},"Ḝ":{"ha":685,"x_min":83,"x_max":602,"o":"m 101 0 q 83 17 83 0 l 83 908 q 101 926 83 926 l 585 926 q 602 908 602 926 l 602 758 q 585 741 602 741 l 315 741 l 315 544 l 561 544 q 578 526 578 544 l 578 399 q 561 382 578 382 l 315 382 l 315 185 l 585 185 q 602 168 602 185 l 602 17 q 585 0 602 0 l 101 0 m 283 -224 q 266 -210 266 -224 l 266 -186 q 283 -172 266 -172 l 362 -172 l 362 -116 l 301 -116 q 283 -99 283 -116 l 283 -53 l 319 0 l 413 0 l 377 -53 l 422 -53 q 440 -71 440 -53 l 440 -181 q 430 -203 440 -193 l 416 -217 q 406 -223 411 -222 q 394 -224 400 -224 l 283 -224 m 268 960 q 247 971 255 960 l 219 1010 q 212 1031 212 1020 l 212 1082 q 229 1099 212 1099 l 303 1099 q 320 1082 320 1099 l 320 1039 l 385 1039 l 385 1082 q 403 1099 385 1099 l 476 1099 q 494 1082 494 1099 l 494 1031 q 487 1010 494 1020 l 458 971 q 438 960 451 960 l 268 960 z "},"Ê":{"ha":685,"x_min":83,"x_max":602,"o":"m 101 0 q 83 17 83 0 l 83 908 q 101 926 83 926 l 585 926 q 602 908 602 926 l 602 758 q 585 741 602 741 l 315 741 l 315 544 l 561 544 q 578 526 578 544 l 578 399 q 561 382 578 382 l 315 382 l 315 185 l 585 185 q 602 168 602 185 l 602 17 q 585 0 602 0 l 101 0 m 209 960 q 197 966 200 960 q 197 980 193 972 l 259 1099 q 280 1111 265 1111 l 423 1111 q 444 1099 438 1111 l 506 980 q 507 966 511 972 q 495 960 503 960 l 397 960 q 378 974 386 960 l 360 1011 l 356 1026 l 347 1026 l 344 1011 l 326 974 q 308 960 318 960 l 209 960 z "},"Ế":{"ha":685,"x_min":83,"x_max":602,"o":"m 101 0 q 83 17 83 0 l 83 908 q 101 926 83 926 l 585 926 q 602 908 602 926 l 602 758 q 585 741 602 741 l 315 741 l 315 544 l 561 544 q 578 526 578 544 l 578 399 q 561 382 578 382 l 315 382 l 315 185 l 585 185 q 602 168 602 185 l 602 17 q 585 0 602 0 l 101 0 m 209 960 q 197 966 200 960 q 197 980 193 972 l 259 1099 q 280 1111 265 1111 l 423 1111 q 444 1099 438 1111 l 506 980 q 507 966 511 972 q 495 960 503 960 l 397 960 q 378 974 386 960 l 360 1011 l 356 1026 l 347 1026 l 344 1011 l 326 974 q 308 960 318 960 l 209 960 m 281 1145 q 263 1151 268 1139 l 238 1203 q 246 1224 233 1216 l 410 1331 q 428 1322 422 1338 l 468 1239 q 460 1220 474 1227 l 281 1145 z "},"Ḙ":{"ha":685,"x_min":83,"x_max":602,"o":"m 101 0 q 83 17 83 0 l 83 908 q 101 926 83 926 l 585 926 q 602 908 602 926 l 602 758 q 585 741 602 741 l 315 741 l 315 544 l 561 544 q 578 526 578 544 l 578 399 q 561 382 578 382 l 315 382 l 315 185 l 585 185 q 602 168 602 185 l 602 17 q 585 0 602 0 l 101 0 m 221 -174 q 208 -168 212 -174 q 209 -155 205 -162 l 266 -45 q 285 -35 270 -35 l 417 -35 q 437 -45 433 -35 l 495 -155 q 496 -168 499 -162 q 483 -174 492 -174 l 393 -174 q 376 -161 383 -174 l 357 -126 l 353 -112 l 349 -112 l 347 -126 l 328 -161 q 311 -174 320 -174 l 221 -174 z "},"Ệ":{"ha":685,"x_min":83,"x_max":602,"o":"m 101 0 q 83 17 83 0 l 83 908 q 101 926 83 926 l 585 926 q 602 908 602 926 l 602 758 q 585 741 602 741 l 315 741 l 315 544 l 561 544 q 578 526 578 544 l 578 399 q 561 382 578 382 l 315 382 l 315 185 l 585 185 q 602 168 602 185 l 602 17 q 585 0 602 0 l 101 0 m 353 -175 q 303 -155 323 -175 q 283 -106 283 -135 q 303 -55 283 -75 q 353 -35 323 -35 q 403 -55 383 -35 q 422 -106 422 -75 q 403 -155 422 -135 q 353 -175 383 -175 m 209 960 q 197 966 200 960 q 197 980 193 972 l 259 1099 q 280 1111 265 1111 l 423 1111 q 444 1099 438 1111 l 506 980 q 507 966 511 972 q 495 960 503 960 l 397 960 q 378 974 386 960 l 360 1011 l 356 1026 l 347 1026 l 344 1011 l 326 974 q 308 960 318 960 l 209 960 z "},"Ề":{"ha":685,"x_min":83,"x_max":602,"o":"m 101 0 q 83 17 83 0 l 83 908 q 101 926 83 926 l 585 926 q 602 908 602 926 l 602 758 q 585 741 602 741 l 315 741 l 315 544 l 561 544 q 578 526 578 544 l 578 399 q 561 382 578 382 l 315 382 l 315 185 l 585 185 q 602 168 602 185 l 602 17 q 585 0 602 0 l 101 0 m 209 960 q 197 966 200 960 q 197 980 193 972 l 259 1099 q 280 1111 265 1111 l 423 1111 q 444 1099 438 1111 l 506 980 q 507 966 511 972 q 495 960 503 960 l 397 960 q 378 974 386 960 l 360 1011 l 356 1026 l 347 1026 l 344 1011 l 326 974 q 308 960 318 960 l 209 960 m 424 1145 l 245 1220 q 238 1239 232 1227 l 277 1322 q 296 1331 283 1338 l 460 1224 q 467 1203 472 1216 l 443 1151 q 424 1145 438 1139 z "},"Ể":{"ha":685,"x_min":83,"x_max":602,"o":"m 101 0 q 83 17 83 0 l 83 908 q 101 926 83 926 l 585 926 q 602 908 602 926 l 602 758 q 585 741 602 741 l 315 741 l 315 544 l 561 544 q 578 526 578 544 l 578 399 q 561 382 578 382 l 315 382 l 315 185 l 585 185 q 602 168 602 185 l 602 17 q 585 0 602 0 l 101 0 m 209 960 q 197 966 200 960 q 197 980 193 972 l 259 1099 q 280 1111 265 1111 l 423 1111 q 444 1099 438 1111 l 506 980 q 507 966 511 972 q 495 960 503 960 l 397 960 q 378 974 386 960 l 360 1011 l 356 1026 l 347 1026 l 344 1011 l 326 974 q 308 960 318 960 l 209 960 m 401 1146 q 384 1163 384 1146 l 384 1205 l 233 1205 q 215 1222 215 1205 l 215 1260 q 236 1285 215 1285 l 421 1285 q 442 1276 433 1285 l 481 1234 q 490 1212 490 1225 l 490 1163 q 472 1146 490 1146 l 401 1146 z "},"Ễ":{"ha":685,"x_min":83,"x_max":602,"o":"m 101 0 q 83 17 83 0 l 83 908 q 101 926 83 926 l 585 926 q 602 908 602 926 l 602 758 q 585 741 602 741 l 315 741 l 315 544 l 561 544 q 578 526 578 544 l 578 399 q 561 382 578 382 l 315 382 l 315 185 l 585 185 q 602 168 602 185 l 602 17 q 585 0 602 0 l 101 0 m 209 960 q 197 966 200 960 q 197 980 193 972 l 259 1099 q 280 1111 265 1111 l 423 1111 q 444 1099 438 1111 l 506 980 q 507 966 511 972 q 495 960 503 960 l 397 960 q 378 974 386 960 l 360 1011 l 356 1026 l 347 1026 l 344 1011 l 326 974 q 308 960 318 960 l 209 960 m 215 1146 q 206 1165 199 1146 l 251 1273 q 265 1285 258 1285 l 362 1285 q 374 1273 369 1285 l 392 1224 l 410 1273 q 435 1285 416 1285 l 490 1285 q 499 1265 506 1285 l 457 1158 q 443 1146 453 1146 l 347 1146 q 335 1158 340 1146 l 322 1210 l 289 1158 q 265 1146 282 1146 l 215 1146 z "},"Ȅ":{"ha":685,"x_min":83,"x_max":602,"o":"m 101 0 q 83 17 83 0 l 83 908 q 101 926 83 926 l 585 926 q 602 908 602 926 l 602 758 q 585 741 602 741 l 315 741 l 315 544 l 561 544 q 578 526 578 544 l 578 399 q 561 382 578 382 l 315 382 l 315 185 l 585 185 q 602 168 602 185 l 602 17 q 585 0 602 0 l 101 0 m 424 972 q 407 978 413 967 l 333 1137 q 339 1154 328 1149 l 440 1193 q 458 1187 455 1200 l 504 1017 q 497 998 508 1003 l 424 972 m 251 956 q 235 963 240 951 l 160 1121 q 167 1138 156 1133 l 268 1177 q 286 1171 283 1184 l 332 1001 q 325 982 335 987 l 251 956 z "},"Ë":{"ha":685,"x_min":83,"x_max":602,"o":"m 101 0 q 83 17 83 0 l 83 908 q 101 926 83 926 l 585 926 q 602 908 602 926 l 602 758 q 585 741 602 741 l 315 741 l 315 544 l 561 544 q 578 526 578 544 l 578 399 q 561 382 578 382 l 315 382 l 315 185 l 585 185 q 602 168 602 185 l 602 17 q 585 0 602 0 l 101 0 m 151 983 q 137 997 137 983 l 137 1085 q 151 1099 137 1099 l 316 1099 q 328 1085 328 1099 l 328 997 q 316 983 328 983 l 151 983 m 390 983 q 376 997 376 983 l 376 1085 q 390 1099 376 1099 l 556 1099 q 568 1085 568 1099 l 568 997 q 556 983 568 983 l 390 983 z "},"Ė":{"ha":685,"x_min":83,"x_max":602,"o":"m 101 0 q 83 17 83 0 l 83 908 q 101 926 83 926 l 585 926 q 602 908 602 926 l 602 758 q 585 741 602 741 l 315 741 l 315 544 l 561 544 q 578 526 578 544 l 578 399 q 561 382 578 382 l 315 382 l 315 185 l 585 185 q 602 168 602 185 l 602 17 q 585 0 602 0 l 101 0 m 353 963 q 303 983 323 963 q 283 1033 283 1003 q 303 1083 283 1063 q 353 1103 323 1103 q 403 1083 383 1103 q 422 1033 422 1063 q 403 983 422 1003 q 353 963 383 963 z "},"Ẹ":{"ha":685,"x_min":83,"x_max":602,"o":"m 101 0 q 83 17 83 0 l 83 908 q 101 926 83 926 l 585 926 q 602 908 602 926 l 602 758 q 585 741 602 741 l 315 741 l 315 544 l 561 544 q 578 526 578 544 l 578 399 q 561 382 578 382 l 315 382 l 315 185 l 585 185 q 602 168 602 185 l 602 17 q 585 0 602 0 l 101 0 m 353 -175 q 303 -155 323 -175 q 283 -106 283 -135 q 303 -55 283 -75 q 353 -35 323 -35 q 403 -55 383 -35 q 422 -106 422 -75 q 403 -155 422 -135 q 353 -175 383 -175 z "},"È":{"ha":685,"x_min":83,"x_max":602,"o":"m 101 0 q 83 17 83 0 l 83 908 q 101 926 83 926 l 585 926 q 602 908 602 926 l 602 758 q 585 741 602 741 l 315 741 l 315 544 l 561 544 q 578 526 578 544 l 578 399 q 561 382 578 382 l 315 382 l 315 185 l 585 185 q 602 168 602 185 l 602 17 q 585 0 602 0 l 101 0 m 424 960 l 245 1035 q 238 1053 232 1042 l 277 1136 q 296 1145 283 1153 l 460 1039 q 467 1018 472 1031 l 443 966 q 424 960 438 953 z "},"Ẻ":{"ha":685,"x_min":83,"x_max":602,"o":"m 101 0 q 83 17 83 0 l 83 908 q 101 926 83 926 l 585 926 q 602 908 602 926 l 602 758 q 585 741 602 741 l 315 741 l 315 544 l 561 544 q 578 526 578 544 l 578 399 q 561 382 578 382 l 315 382 l 315 185 l 585 185 q 602 168 602 185 l 602 17 q 585 0 602 0 l 101 0 m 401 960 q 384 978 384 960 l 384 1019 l 233 1019 q 215 1037 215 1019 l 215 1075 q 236 1099 215 1099 l 421 1099 q 442 1090 433 1099 l 481 1049 q 490 1026 490 1040 l 490 978 q 472 960 490 960 l 401 960 z "},"Ȇ":{"ha":685,"x_min":83,"x_max":602,"o":"m 101 0 q 83 17 83 0 l 83 908 q 101 926 83 926 l 585 926 q 602 908 602 926 l 602 758 q 585 741 602 741 l 315 741 l 315 544 l 561 544 q 578 526 578 544 l 578 399 q 561 382 578 382 l 315 382 l 315 185 l 585 185 q 602 168 602 185 l 602 17 q 585 0 602 0 l 101 0 m 268 1099 l 438 1099 q 458 1089 451 1099 l 487 1049 q 494 1028 494 1040 l 494 978 q 476 960 494 960 l 403 960 q 385 978 385 960 l 385 1021 l 320 1021 l 320 978 q 303 960 320 960 l 229 960 q 212 978 212 960 l 212 1028 q 219 1049 212 1040 l 247 1089 q 268 1099 255 1099 z "},"Ē":{"ha":685,"x_min":83,"x_max":602,"o":"m 101 0 q 83 17 83 0 l 83 908 q 101 926 83 926 l 585 926 q 602 908 602 926 l 602 758 q 585 741 602 741 l 315 741 l 315 544 l 561 544 q 578 526 578 544 l 578 399 q 561 382 578 382 l 315 382 l 315 185 l 585 185 q 602 168 602 185 l 602 17 q 585 0 602 0 l 101 0 m 229 1007 q 212 1024 212 1007 l 212 1059 q 229 1076 212 1076 l 473 1076 q 490 1059 490 1076 l 490 1024 q 473 1007 490 1007 l 229 1007 z "},"Ḗ":{"ha":685,"x_min":83,"x_max":602,"o":"m 101 0 q 83 17 83 0 l 83 908 q 101 926 83 926 l 585 926 q 602 908 602 926 l 602 758 q 585 741 602 741 l 315 741 l 315 544 l 561 544 q 578 526 578 544 l 578 399 q 561 382 578 382 l 315 382 l 315 185 l 585 185 q 602 168 602 185 l 602 17 q 585 0 602 0 l 101 0 m 229 1007 q 212 1024 212 1007 l 212 1059 q 229 1076 212 1076 l 473 1076 q 490 1059 490 1076 l 490 1024 q 473 1007 490 1007 l 229 1007 m 281 1133 q 263 1140 268 1127 l 238 1192 q 246 1213 233 1204 l 410 1319 q 428 1310 422 1326 l 468 1227 q 460 1208 474 1215 l 281 1133 z "},"Ḕ":{"ha":685,"x_min":83,"x_max":602,"o":"m 101 0 q 83 17 83 0 l 83 908 q 101 926 83 926 l 585 926 q 602 908 602 926 l 602 758 q 585 741 602 741 l 315 741 l 315 544 l 561 544 q 578 526 578 544 l 578 399 q 561 382 578 382 l 315 382 l 315 185 l 585 185 q 602 168 602 185 l 602 17 q 585 0 602 0 l 101 0 m 229 1007 q 212 1024 212 1007 l 212 1059 q 229 1076 212 1076 l 473 1076 q 490 1059 490 1076 l 490 1024 q 473 1007 490 1007 l 229 1007 m 424 1133 l 245 1208 q 238 1227 232 1215 l 277 1310 q 296 1319 283 1326 l 460 1213 q 467 1192 472 1204 l 443 1140 q 424 1133 438 1127 z "},"Ę":{"ha":685,"x_min":83,"x_max":602,"o":"m 101 0 q 83 17 83 0 l 83 908 q 101 926 83 926 l 585 926 q 602 908 602 926 l 602 758 q 585 741 602 741 l 315 741 l 315 544 l 561 544 q 578 526 578 544 l 578 399 q 561 382 578 382 l 315 382 l 315 185 l 585 185 q 602 168 602 185 l 602 17 q 585 0 602 0 l 101 0 m 510 -208 q 503 -206 505 -208 l 439 -175 q 435 -168 435 -173 l 435 -48 q 439 -41 435 -42 l 503 4 q 510 6 505 6 l 579 6 q 585 0 585 6 l 585 -58 q 581 -65 585 -62 l 531 -88 q 527 -94 527 -90 l 527 -111 q 531 -117 527 -115 l 581 -137 q 585 -144 585 -138 l 585 -201 q 579 -208 585 -208 l 510 -208 z "},"Ɛ":{"ha":506,"x_min":63,"x_max":443,"o":"m 257 0 q 246 1 251 0 q 236 7 242 3 l 85 154 q 68 173 74 165 q 63 189 63 182 l 63 342 q 73 363 63 353 l 169 435 l 169 474 l 85 533 q 68 545 74 542 q 63 554 63 547 l 63 756 q 65 768 63 763 q 73 776 68 772 l 245 919 q 256 925 251 924 q 266 926 260 926 l 426 926 q 443 908 443 926 l 443 778 q 441 766 443 771 q 433 757 438 761 l 297 660 l 297 561 l 396 493 q 408 471 408 484 l 408 446 q 405 433 408 438 q 396 424 402 428 l 295 344 l 295 257 l 433 162 q 441 154 438 159 q 443 141 443 149 l 443 17 q 426 0 443 0 l 257 0 z "},"Ǝ":{"ha":685,"x_min":83,"x_max":602,"o":"m 585 0 l 101 0 q 83 17 83 0 l 83 168 q 101 185 83 185 l 371 185 l 371 382 l 124 382 q 107 399 107 382 l 107 526 q 124 544 107 544 l 371 544 l 371 741 l 101 741 q 83 758 83 741 l 83 908 q 101 926 83 926 l 585 926 q 602 908 602 926 l 602 17 q 585 0 602 0 z "},"Ʃ":{"ha":594,"x_min":63,"x_max":531,"o":"m 80 0 q 63 17 63 0 l 63 168 q 80 185 63 185 l 181 185 l 181 908 q 198 926 181 926 l 514 926 q 531 908 531 926 l 531 758 q 514 741 531 741 l 412 741 l 412 17 q 394 0 412 0 l 80 0 z "},"Ɇ":{"ha":685,"x_min":83,"x_max":602,"o":"m 258 -76 l 490 1031 l 528 1031 l 297 -76 l 258 -76 m 101 0 q 83 17 83 0 l 83 908 q 101 926 83 926 l 585 926 q 602 908 602 926 l 602 758 q 585 741 602 741 l 315 741 l 315 544 l 561 544 q 578 526 578 544 l 578 399 q 561 382 578 382 l 315 382 l 315 185 l 585 185 q 602 168 602 185 l 602 17 q 585 0 602 0 l 101 0 z "},"Ẽ":{"ha":685,"x_min":83,"x_max":602,"o":"m 101 0 q 83 17 83 0 l 83 908 q 101 926 83 926 l 585 926 q 602 908 602 926 l 602 758 q 585 741 602 741 l 315 741 l 315 544 l 561 544 q 578 526 578 544 l 578 399 q 561 382 578 382 l 315 382 l 315 185 l 585 185 q 602 168 602 185 l 602 17 q 585 0 602 0 l 101 0 m 215 960 q 206 979 199 960 l 251 1088 q 265 1099 258 1099 l 362 1099 q 374 1088 369 1099 l 392 1038 l 410 1088 q 435 1099 416 1099 l 490 1099 q 499 1080 506 1099 l 457 972 q 443 960 453 960 l 347 960 q 335 972 340 960 l 322 1025 l 289 972 q 265 960 282 960 l 215 960 z "},"Ḛ":{"ha":685,"x_min":83,"x_max":602,"o":"m 101 0 q 83 17 83 0 l 83 908 q 101 926 83 926 l 585 926 q 602 908 602 926 l 602 758 q 585 741 602 741 l 315 741 l 315 544 l 561 544 q 578 526 578 544 l 578 399 q 561 382 578 382 l 315 382 l 315 185 l 585 185 q 602 168 602 185 l 602 17 q 585 0 602 0 l 101 0 m 215 -174 q 206 -155 199 -174 l 251 -47 q 265 -35 258 -35 l 362 -35 q 374 -47 369 -35 l 392 -96 l 410 -47 q 435 -35 416 -35 l 490 -35 q 499 -54 506 -35 l 457 -162 q 443 -174 453 -174 l 347 -174 q 335 -162 340 -174 l 322 -109 l 289 -162 q 265 -174 282 -174 l 215 -174 z "},"Ə":{"ha":757,"x_min":80,"x_max":677,"o":"m 238 0 q 215 9 223 0 l 88 141 q 80 163 80 150 l 80 515 l 300 515 l 300 245 q 318 199 300 213 q 378 185 335 185 q 439 199 420 185 q 457 245 457 213 l 457 632 q 447 652 457 644 q 422 660 438 660 l 90 660 l 90 845 l 519 845 q 542 837 533 845 l 668 727 q 677 706 677 717 l 677 163 q 669 141 677 150 l 542 9 q 519 0 534 0 l 238 0 m 80 376 l 80 542 l 508 542 l 508 376 l 80 376 z "},"Ʒ":{"ha":624,"x_min":83,"x_max":541,"o":"m 101 6 q 83 23 83 6 l 83 210 q 101 228 83 228 l 288 228 l 288 240 l 173 453 l 173 479 l 288 694 l 288 706 l 101 706 q 83 724 83 706 l 83 908 q 101 926 83 926 l 524 926 q 541 908 541 926 l 541 706 l 413 479 l 413 453 l 541 220 l 541 23 q 524 6 541 6 l 101 6 z "},"Ǯ":{"ha":624,"x_min":83,"x_max":541,"o":"m 101 6 q 83 23 83 6 l 83 210 q 101 228 83 228 l 288 228 l 288 240 l 173 453 l 173 479 l 288 694 l 288 706 l 101 706 q 83 724 83 706 l 83 908 q 101 926 83 926 l 524 926 q 541 908 541 926 l 541 706 l 413 479 l 413 453 l 541 220 l 541 23 q 524 6 541 6 l 101 6 m 245 960 q 226 971 230 960 l 169 1081 q 168 1094 165 1088 q 181 1099 172 1099 l 271 1099 q 288 1087 280 1099 l 306 1052 l 309 1038 l 313 1038 l 317 1052 l 335 1087 q 353 1099 343 1099 l 443 1099 q 456 1094 452 1099 q 455 1081 459 1088 l 397 971 q 377 960 392 960 l 245 960 z "},"Ƹ":{"ha":624,"x_min":83,"x_max":541,"o":"m 524 6 l 101 6 q 83 23 83 6 l 83 220 l 211 453 l 211 479 l 83 706 l 83 908 q 101 926 83 926 l 524 926 q 541 908 541 926 l 541 724 q 524 706 541 706 l 337 706 l 337 694 l 451 479 l 451 453 l 337 240 l 337 228 l 524 228 q 541 210 541 228 l 541 23 q 524 6 541 6 z "},"F":{"ha":622,"x_min":83,"x_max":594,"o":"m 101 0 q 83 17 83 0 l 83 908 q 101 926 83 926 l 576 926 q 594 908 594 926 l 594 758 q 576 741 594 741 l 315 741 l 315 509 l 542 509 q 559 492 559 509 l 559 342 q 542 324 559 324 l 315 324 l 315 17 q 297 0 315 0 l 101 0 z "},"Ḟ":{"ha":622,"x_min":83,"x_max":594,"o":"m 101 0 q 83 17 83 0 l 83 908 q 101 926 83 926 l 576 926 q 594 908 594 926 l 594 758 q 576 741 594 741 l 315 741 l 315 509 l 542 509 q 559 492 559 509 l 559 342 q 542 324 559 324 l 315 324 l 315 17 q 297 0 315 0 l 101 0 m 314 963 q 264 983 284 963 q 244 1033 244 1003 q 264 1083 244 1063 q 314 1103 284 1103 q 364 1083 344 1103 q 383 1033 383 1063 q 364 983 383 1003 q 314 963 344 963 z "},"Ƒ":{"ha":622,"x_min":-5,"x_max":594,"o":"m 30 -224 q -5 -189 -5 -224 l -5 -94 q 5 -68 -5 -78 q 30 -58 15 -58 l 83 -58 l 83 17 l 315 17 l 315 -85 q 295 -127 315 -110 l 212 -207 q 167 -224 195 -224 l 30 -224 m 101 0 q 83 17 83 0 l 83 908 q 101 926 83 926 l 576 926 q 594 908 594 926 l 594 758 q 576 741 594 741 l 315 741 l 315 509 l 542 509 q 559 492 559 509 l 559 342 q 542 324 559 324 l 315 324 l 315 17 q 297 0 315 0 l 101 0 z "},"G":{"ha":764,"x_min":83,"x_max":701,"o":"m 262 0 q 234 12 245 0 l 95 151 q 83 178 83 162 l 83 748 q 95 776 83 764 l 234 915 q 262 926 245 926 l 672 926 q 690 908 690 926 l 690 758 q 672 741 690 741 l 338 741 q 322 734 328 741 q 315 717 315 727 l 315 210 q 322 193 315 200 q 338 186 328 186 l 488 186 l 488 372 l 399 372 q 382 389 382 372 l 382 538 q 399 556 382 556 l 684 556 q 701 538 701 556 l 701 178 q 690 151 701 162 l 551 12 q 523 0 540 0 l 262 0 z "},"Ǵ":{"ha":764,"x_min":83,"x_max":701,"o":"m 262 0 q 234 12 245 0 l 95 151 q 83 178 83 162 l 83 748 q 95 776 83 764 l 234 915 q 262 926 245 926 l 672 926 q 690 908 690 926 l 690 758 q 672 741 690 741 l 338 741 q 322 734 328 741 q 315 717 315 727 l 315 210 q 322 193 315 200 q 338 186 328 186 l 488 186 l 488 372 l 399 372 q 382 389 382 372 l 382 538 q 399 556 382 556 l 684 556 q 701 538 701 556 l 701 178 q 690 151 701 162 l 551 12 q 523 0 540 0 l 262 0 m 350 960 q 331 966 337 953 l 307 1018 q 315 1039 302 1031 l 478 1145 q 497 1136 491 1153 l 537 1053 q 529 1035 542 1042 l 350 960 z "},"Ğ":{"ha":764,"x_min":83,"x_max":701,"o":"m 262 0 q 234 12 245 0 l 95 151 q 83 178 83 162 l 83 748 q 95 776 83 764 l 234 915 q 262 926 245 926 l 672 926 q 690 908 690 926 l 690 758 q 672 741 690 741 l 338 741 q 322 734 328 741 q 315 717 315 727 l 315 210 q 322 193 315 200 q 338 186 328 186 l 488 186 l 488 372 l 399 372 q 382 389 382 372 l 382 538 q 399 556 382 556 l 684 556 q 701 538 701 556 l 701 178 q 690 151 701 162 l 551 12 q 523 0 540 0 l 262 0 m 337 960 q 316 971 324 960 l 288 1010 q 281 1031 281 1020 l 281 1082 q 298 1099 281 1099 l 372 1099 q 389 1082 389 1099 l 389 1039 l 454 1039 l 454 1082 q 472 1099 454 1099 l 545 1099 q 563 1082 563 1099 l 563 1031 q 556 1010 563 1020 l 527 971 q 506 960 519 960 l 337 960 z "},"Ǧ":{"ha":764,"x_min":83,"x_max":701,"o":"m 262 0 q 234 12 245 0 l 95 151 q 83 178 83 162 l 83 748 q 95 776 83 764 l 234 915 q 262 926 245 926 l 672 926 q 690 908 690 926 l 690 758 q 672 741 690 741 l 338 741 q 322 734 328 741 q 315 717 315 727 l 315 210 q 322 193 315 200 q 338 186 328 186 l 488 186 l 488 372 l 399 372 q 382 389 382 372 l 382 538 q 399 556 382 556 l 684 556 q 701 538 701 556 l 701 178 q 690 151 701 162 l 551 12 q 523 0 540 0 l 262 0 m 354 960 q 335 971 339 960 l 278 1081 q 277 1094 274 1088 q 290 1099 281 1099 l 380 1099 q 397 1087 389 1099 l 415 1052 l 418 1038 l 422 1038 l 426 1052 l 444 1087 q 462 1099 452 1099 l 552 1099 q 565 1094 561 1099 q 564 1081 568 1088 l 506 971 q 486 960 501 960 l 354 960 z "},"Ĝ":{"ha":764,"x_min":83,"x_max":701,"o":"m 262 0 q 234 12 245 0 l 95 151 q 83 178 83 162 l 83 748 q 95 776 83 764 l 234 915 q 262 926 245 926 l 672 926 q 690 908 690 926 l 690 758 q 672 741 690 741 l 338 741 q 322 734 328 741 q 315 717 315 727 l 315 210 q 322 193 315 200 q 338 186 328 186 l 488 186 l 488 372 l 399 372 q 382 389 382 372 l 382 538 q 399 556 382 556 l 684 556 q 701 538 701 556 l 701 178 q 690 151 701 162 l 551 12 q 523 0 540 0 l 262 0 m 278 960 q 265 966 269 960 q 266 980 262 972 l 328 1099 q 349 1111 333 1111 l 492 1111 q 513 1099 507 1111 l 575 980 q 576 966 580 972 q 564 960 572 960 l 465 960 q 447 974 455 960 l 428 1011 l 425 1026 l 415 1026 l 413 1011 l 394 974 q 376 960 387 960 l 278 960 z "},"Ģ":{"ha":764,"x_min":83,"x_max":701,"o":"m 262 0 q 234 12 245 0 l 95 151 q 83 178 83 162 l 83 748 q 95 776 83 764 l 234 915 q 262 926 245 926 l 672 926 q 690 908 690 926 l 690 758 q 672 741 690 741 l 338 741 q 322 734 328 741 q 315 717 315 727 l 315 210 q 322 193 315 200 q 338 186 328 186 l 488 186 l 488 372 l 399 372 q 382 389 382 372 l 382 538 q 399 556 382 556 l 684 556 q 701 538 701 556 l 701 178 q 690 151 701 162 l 551 12 q 523 0 540 0 l 262 0 m 363 -208 q 353 -199 353 -208 l 353 -149 q 363 -140 353 -140 l 400 -140 q 411 -131 411 -140 l 411 -109 l 353 -109 q 344 -99 344 -106 l 345 -44 q 355 -35 345 -35 l 490 -35 q 499 -44 499 -35 l 499 -130 q 480 -189 499 -169 q 430 -208 461 -208 l 363 -208 z "},"Ġ":{"ha":764,"x_min":83,"x_max":701,"o":"m 262 0 q 234 12 245 0 l 95 151 q 83 178 83 162 l 83 748 q 95 776 83 764 l 234 915 q 262 926 245 926 l 672 926 q 690 908 690 926 l 690 758 q 672 741 690 741 l 338 741 q 322 734 328 741 q 315 717 315 727 l 315 210 q 322 193 315 200 q 338 186 328 186 l 488 186 l 488 372 l 399 372 q 382 389 382 372 l 382 538 q 399 556 382 556 l 684 556 q 701 538 701 556 l 701 178 q 690 151 701 162 l 551 12 q 523 0 540 0 l 262 0 m 422 963 q 372 983 392 963 q 352 1033 352 1003 q 372 1083 352 1063 q 422 1103 392 1103 q 472 1083 452 1103 q 491 1033 491 1063 q 472 983 491 1003 q 422 963 452 963 z "},"Ɠ":{"ha":764,"x_min":83,"x_max":790,"o":"m 567 891 q 550 908 550 891 l 550 1030 q 558 1052 550 1044 l 597 1094 q 618 1103 604 1103 l 745 1103 q 778 1092 766 1103 q 790 1067 790 1082 l 790 983 q 772 965 790 965 l 690 965 l 690 908 q 672 891 690 891 l 567 891 m 262 0 q 234 12 245 0 l 95 151 q 83 178 83 162 l 83 748 q 95 776 83 764 l 234 915 q 262 926 245 926 l 672 926 q 690 908 690 926 l 690 758 q 672 741 690 741 l 338 741 q 322 734 328 741 q 315 717 315 727 l 315 210 q 322 193 315 200 q 338 186 328 186 l 488 186 l 488 372 l 399 372 q 382 389 382 372 l 382 538 q 399 556 382 556 l 684 556 q 701 538 701 556 l 701 178 q 690 151 701 162 l 551 12 q 523 0 540 0 l 262 0 z "},"Ɂ":{"ha":563,"x_min":78,"x_max":485,"o":"m 97 0 q 80 17 80 0 l 78 328 q 82 340 78 336 q 92 349 85 344 l 249 474 l 249 640 l 89 728 q 78 749 78 733 l 78 908 q 96 926 78 926 l 210 926 q 231 919 222 926 l 474 765 q 485 744 485 758 l 485 441 q 474 418 485 428 l 311 262 l 311 17 q 294 0 311 0 l 97 0 z "},"Ḡ":{"ha":764,"x_min":83,"x_max":701,"o":"m 262 0 q 234 12 245 0 l 95 151 q 83 178 83 162 l 83 748 q 95 776 83 764 l 234 915 q 262 926 245 926 l 672 926 q 690 908 690 926 l 690 758 q 672 741 690 741 l 338 741 q 322 734 328 741 q 315 717 315 727 l 315 210 q 322 193 315 200 q 338 186 328 186 l 488 186 l 488 372 l 399 372 q 382 389 382 372 l 382 538 q 399 556 382 556 l 684 556 q 701 538 701 556 l 701 178 q 690 151 701 162 l 551 12 q 523 0 540 0 l 262 0 m 298 1007 q 281 1024 281 1007 l 281 1059 q 298 1076 281 1076 l 542 1076 q 559 1059 559 1076 l 559 1024 q 542 1007 559 1007 l 298 1007 z "},"Ǥ":{"ha":802,"x_min":83,"x_max":747,"o":"m 397 251 q 380 269 380 251 l 380 295 q 397 313 380 313 l 729 313 q 747 295 747 313 l 747 269 q 729 251 747 251 l 397 251 m 262 0 q 234 12 245 0 l 95 151 q 83 178 83 162 l 83 748 q 95 776 83 764 l 234 915 q 262 926 245 926 l 672 926 q 690 908 690 926 l 690 758 q 672 741 690 741 l 338 741 q 322 734 328 741 q 315 717 315 727 l 315 210 q 322 193 315 200 q 338 186 328 186 l 488 186 l 488 372 l 399 372 q 382 389 382 372 l 382 538 q 399 556 382 556 l 684 556 q 701 538 701 556 l 701 178 q 690 151 701 162 l 551 12 q 523 0 540 0 l 262 0 z "},"Ȝ":{"ha":474,"x_min":62,"x_max":413,"o":"m 79 -69 q 62 -52 62 -69 l 62 26 q 65 37 62 33 q 72 47 68 42 l 197 188 l 197 271 l 76 406 q 77 431 65 417 l 201 587 l 201 662 l 84 667 q 67 684 67 667 l 67 839 q 84 856 67 856 l 238 856 q 260 849 252 856 l 381 726 q 390 705 390 715 l 390 537 l 315 442 l 315 426 l 402 317 q 410 308 407 313 q 413 297 413 303 l 413 138 q 411 118 413 124 q 402 104 410 112 l 254 -62 q 245 -68 250 -67 q 233 -69 240 -69 l 79 -69 z "},"H":{"ha":801,"x_min":83,"x_max":717,"o":"m 101 0 q 83 17 83 0 l 83 908 q 101 926 83 926 l 297 926 q 315 908 315 926 l 315 578 l 486 578 l 486 908 q 503 926 486 926 l 700 926 q 717 908 717 926 l 717 17 q 700 0 717 0 l 503 0 q 486 17 486 0 l 486 394 l 315 394 l 315 17 q 297 0 315 0 l 101 0 z "},"Ħ":{"ha":801,"x_min":19,"x_max":781,"o":"m 101 0 q 83 17 83 0 l 83 908 q 101 926 83 926 l 297 926 q 315 908 315 926 l 315 578 l 486 578 l 486 908 q 503 926 486 926 l 700 926 q 717 908 717 926 l 717 17 q 700 0 717 0 l 503 0 q 486 17 486 0 l 486 394 l 315 394 l 315 17 q 297 0 315 0 l 101 0 m 36 652 q 19 669 19 652 l 19 692 q 36 710 19 710 l 764 710 q 781 692 781 710 l 781 669 q 764 652 781 652 l 36 652 z "},"Ḫ":{"ha":801,"x_min":83,"x_max":717,"o":"m 101 0 q 83 17 83 0 l 83 908 q 101 926 83 926 l 297 926 q 315 908 315 926 l 315 578 l 486 578 l 486 908 q 503 926 486 926 l 700 926 q 717 908 717 926 l 717 17 q 700 0 717 0 l 503 0 q 486 17 486 0 l 486 394 l 315 394 l 315 17 q 297 0 315 0 l 101 0 m 316 -174 q 295 -163 303 -174 l 267 -124 q 260 -103 260 -114 l 260 -52 q 277 -35 260 -35 l 351 -35 q 368 -52 368 -35 l 368 -95 l 433 -95 l 433 -52 q 451 -35 433 -35 l 524 -35 q 542 -52 542 -35 l 542 -103 q 535 -124 542 -114 l 506 -163 q 485 -174 499 -174 l 316 -174 z "},"Ȟ":{"ha":801,"x_min":83,"x_max":717,"o":"m 101 0 q 83 17 83 0 l 83 908 q 101 926 83 926 l 297 926 q 315 908 315 926 l 315 578 l 486 578 l 486 908 q 503 926 486 926 l 700 926 q 717 908 717 926 l 717 17 q 700 0 717 0 l 503 0 q 486 17 486 0 l 486 394 l 315 394 l 315 17 q 297 0 315 0 l 101 0 m 333 960 q 314 971 318 960 l 257 1081 q 256 1094 253 1088 q 269 1099 260 1099 l 359 1099 q 376 1087 368 1099 l 394 1052 l 397 1038 l 401 1038 l 405 1052 l 424 1087 q 441 1099 431 1099 l 531 1099 q 544 1094 540 1099 q 543 1081 547 1088 l 485 971 q 465 960 481 960 l 333 960 z "},"Ḩ":{"ha":801,"x_min":83,"x_max":717,"o":"m 101 0 q 83 17 83 0 l 83 908 q 101 926 83 926 l 297 926 q 315 908 315 926 l 315 578 l 486 578 l 486 908 q 503 926 486 926 l 700 926 q 717 908 717 926 l 717 17 q 700 0 717 0 l 503 0 q 486 17 486 0 l 486 394 l 315 394 l 315 17 q 297 0 315 0 l 101 0 m 331 -224 q 314 -210 314 -224 l 314 -186 q 331 -172 314 -172 l 410 -172 l 410 -116 l 349 -116 q 331 -99 331 -116 l 331 -53 l 367 0 l 460 0 l 425 -53 l 470 -53 q 488 -71 488 -53 l 488 -181 q 478 -203 488 -193 l 464 -217 q 453 -223 459 -222 q 442 -224 448 -224 l 331 -224 z "},"Ĥ":{"ha":801,"x_min":83,"x_max":717,"o":"m 101 0 q 83 17 83 0 l 83 908 q 101 926 83 926 l 297 926 q 315 908 315 926 l 315 578 l 486 578 l 486 908 q 503 926 486 926 l 700 926 q 717 908 717 926 l 717 17 q 700 0 717 0 l 503 0 q 486 17 486 0 l 486 394 l 315 394 l 315 17 q 297 0 315 0 l 101 0 m 257 960 q 244 966 248 960 q 245 980 241 972 l 307 1099 q 328 1111 313 1111 l 471 1111 q 492 1099 486 1111 l 554 980 q 555 966 559 972 q 543 960 551 960 l 444 960 q 426 974 434 960 l 408 1011 l 404 1026 l 394 1026 l 392 1011 l 374 974 q 356 960 366 960 l 257 960 z "},"Ḧ":{"ha":801,"x_min":83,"x_max":717,"o":"m 101 0 q 83 17 83 0 l 83 908 q 101 926 83 926 l 297 926 q 315 908 315 926 l 315 578 l 486 578 l 486 908 q 503 926 486 926 l 700 926 q 717 908 717 926 l 717 17 q 700 0 717 0 l 503 0 q 486 17 486 0 l 486 394 l 315 394 l 315 17 q 297 0 315 0 l 101 0 m 199 983 q 185 997 185 983 l 185 1085 q 199 1099 185 1099 l 364 1099 q 376 1085 376 1099 l 376 997 q 364 983 376 983 l 199 983 m 438 983 q 424 997 424 983 l 424 1085 q 438 1099 424 1099 l 603 1099 q 616 1085 616 1099 l 616 997 q 603 983 616 983 l 438 983 z "},"Ḣ":{"ha":801,"x_min":83,"x_max":717,"o":"m 101 0 q 83 17 83 0 l 83 908 q 101 926 83 926 l 297 926 q 315 908 315 926 l 315 578 l 486 578 l 486 908 q 503 926 486 926 l 700 926 q 717 908 717 926 l 717 17 q 700 0 717 0 l 503 0 q 486 17 486 0 l 486 394 l 315 394 l 315 17 q 297 0 315 0 l 101 0 m 401 963 q 351 983 371 963 q 331 1033 331 1003 q 351 1083 331 1063 q 401 1103 371 1103 q 451 1083 431 1103 q 470 1033 470 1063 q 451 983 470 1003 q 401 963 431 963 z "},"Ḥ":{"ha":801,"x_min":83,"x_max":717,"o":"m 101 0 q 83 17 83 0 l 83 908 q 101 926 83 926 l 297 926 q 315 908 315 926 l 315 578 l 486 578 l 486 908 q 503 926 486 926 l 700 926 q 717 908 717 926 l 717 17 q 700 0 717 0 l 503 0 q 486 17 486 0 l 486 394 l 315 394 l 315 17 q 297 0 315 0 l 101 0 m 401 -175 q 351 -155 371 -175 q 331 -106 331 -135 q 351 -55 331 -75 q 401 -35 371 -35 q 451 -55 431 -35 q 470 -106 470 -75 q 451 -155 470 -135 q 401 -175 431 -175 z "},"Ꜧ":{"ha":803,"x_min":83,"x_max":720,"o":"m 376 -290 q 359 -272 359 -290 l 359 -139 q 366 -118 359 -124 l 469 -15 q 477 7 477 -6 l 477 391 l 326 391 l 326 17 q 309 0 326 0 l 101 0 q 83 17 83 0 l 83 908 q 101 926 83 926 l 309 926 q 326 908 326 926 l 326 576 l 477 576 l 477 908 q 494 926 477 926 l 703 926 q 720 908 720 926 l 720 -113 q 719 -125 720 -119 q 712 -135 717 -130 l 568 -279 q 547 -290 558 -290 l 376 -290 z "},"Ɦ":{"ha":801,"x_min":-189,"x_max":717,"o":"m -168 642 q -189 665 -189 642 l -189 835 q -180 863 -189 853 l -131 915 q -104 926 -121 926 l 101 926 l 101 779 l -37 779 l -37 665 q -59 642 -37 642 l -168 642 m 101 0 q 83 17 83 0 l 83 908 q 101 926 83 926 l 297 926 q 315 908 315 926 l 315 578 l 486 578 l 486 908 q 503 926 486 926 l 700 926 q 717 908 717 926 l 717 17 q 700 0 717 0 l 503 0 q 486 17 486 0 l 486 394 l 315 394 l 315 17 q 297 0 315 0 l 101 0 z "},"Ɥ":{"ha":752,"x_min":78,"x_max":669,"o":"m 455 0 q 438 17 438 0 l 438 370 l 96 370 q 78 388 78 370 l 78 908 q 96 926 78 926 l 293 926 q 310 908 310 926 l 310 578 l 438 578 l 438 908 q 455 926 438 926 l 651 926 q 669 908 669 926 l 669 17 q 651 0 669 0 l 455 0 z "},"I":{"ha":398,"x_min":83,"x_max":315,"o":"m 101 0 q 83 17 83 0 l 83 908 q 101 926 83 926 l 297 926 q 315 908 315 926 l 315 17 q 297 0 315 0 l 101 0 z "},"Ĳ":{"ha":858,"x_min":83,"x_max":775,"o":"m 101 0 q 83 17 83 0 l 83 908 q 101 926 83 926 l 297 926 q 315 908 315 926 l 315 17 q 297 0 315 0 l 101 0 m 443 -116 q 426 -99 426 -116 l 426 12 q 433 33 426 25 l 535 135 q 544 158 544 143 l 544 908 q 561 926 544 926 l 758 926 q 775 908 775 926 l 775 60 q 774 49 775 54 q 767 38 773 44 l 624 -106 q 603 -116 613 -116 l 443 -116 z "},"Í":{"ha":398,"x_min":83,"x_max":324,"o":"m 101 0 q 83 17 83 0 l 83 908 q 101 926 83 926 l 297 926 q 315 908 315 926 l 315 17 q 297 0 315 0 l 101 0 m 131 960 q 113 966 118 953 l 88 1018 q 96 1039 83 1031 l 260 1145 q 278 1136 272 1153 l 318 1053 q 310 1035 324 1042 l 131 960 z "},"Ĭ":{"ha":398,"x_min":62,"x_max":344,"o":"m 101 0 q 83 17 83 0 l 83 908 q 101 926 83 926 l 297 926 q 315 908 315 926 l 315 17 q 297 0 315 0 l 101 0 m 118 960 q 97 971 105 960 l 69 1010 q 62 1031 62 1020 l 62 1082 q 79 1099 62 1099 l 153 1099 q 170 1082 170 1099 l 170 1039 l 235 1039 l 235 1082 q 253 1099 235 1099 l 326 1099 q 344 1082 344 1099 l 344 1031 q 337 1010 344 1020 l 308 971 q 288 960 301 960 l 118 960 z "},"Ǐ":{"ha":398,"x_min":55,"x_max":349,"o":"m 101 0 q 83 17 83 0 l 83 908 q 101 926 83 926 l 297 926 q 315 908 315 926 l 315 17 q 297 0 315 0 l 101 0 m 135 960 q 116 971 120 960 l 59 1081 q 58 1094 55 1088 q 71 1099 62 1099 l 161 1099 q 178 1087 170 1099 l 197 1052 l 199 1038 l 203 1038 l 207 1052 l 226 1087 q 243 1099 233 1099 l 333 1099 q 346 1094 342 1099 q 345 1081 349 1088 l 287 971 q 267 960 283 960 l 135 960 z "},"Î":{"ha":398,"x_min":43,"x_max":361,"o":"m 101 0 q 83 17 83 0 l 83 908 q 101 926 83 926 l 297 926 q 315 908 315 926 l 315 17 q 297 0 315 0 l 101 0 m 59 960 q 47 966 50 960 q 47 980 43 972 l 109 1099 q 130 1111 115 1111 l 273 1111 q 294 1099 288 1111 l 356 980 q 357 966 361 972 q 345 960 353 960 l 247 960 q 228 974 236 960 l 210 1011 l 206 1026 l 197 1026 l 194 1011 l 176 974 q 158 960 168 960 l 59 960 z "},"Ȉ":{"ha":398,"x_min":6,"x_max":358,"o":"m 101 0 q 83 17 83 0 l 83 908 q 101 926 83 926 l 297 926 q 315 908 315 926 l 315 17 q 297 0 315 0 l 101 0 m 274 972 q 257 978 263 967 l 183 1137 q 189 1154 178 1149 l 290 1193 q 308 1187 305 1200 l 354 1017 q 347 998 358 1003 l 274 972 m 101 956 q 85 963 90 951 l 10 1121 q 17 1138 6 1133 l 118 1177 q 136 1171 133 1184 l 182 1001 q 175 982 185 987 l 101 956 z "},"Ï":{"ha":398,"x_min":-13,"x_max":418,"o":"m 101 0 q 83 17 83 0 l 83 908 q 101 926 83 926 l 297 926 q 315 908 315 926 l 315 17 q 297 0 315 0 l 101 0 m 1 983 q -13 997 -13 983 l -13 1085 q 1 1099 -13 1099 l 166 1099 q 178 1085 178 1099 l 178 997 q 166 983 178 983 l 1 983 m 240 983 q 226 997 226 983 l 226 1085 q 240 1099 226 1099 l 406 1099 q 418 1085 418 1099 l 418 997 q 406 983 418 983 l 240 983 z "},"Ḯ":{"ha":398,"x_min":-13,"x_max":418,"o":"m 101 0 q 83 17 83 0 l 83 908 q 101 926 83 926 l 297 926 q 315 908 315 926 l 315 17 q 297 0 315 0 l 101 0 m 1 983 q -13 997 -13 983 l -13 1085 q 1 1099 -13 1099 l 166 1099 q 178 1085 178 1099 l 178 997 q 166 983 178 983 l 1 983 m 240 983 q 226 997 226 983 l 226 1085 q 240 1099 226 1099 l 406 1099 q 418 1085 418 1099 l 418 997 q 406 983 418 983 l 240 983 m 131 1133 q 113 1140 118 1127 l 88 1192 q 96 1213 83 1204 l 260 1319 q 278 1310 272 1326 l 318 1227 q 310 1208 324 1215 l 131 1133 z "},"İ":{"ha":398,"x_min":83,"x_max":315,"o":"m 101 0 q 83 17 83 0 l 83 908 q 101 926 83 926 l 297 926 q 315 908 315 926 l 315 17 q 297 0 315 0 l 101 0 m 203 963 q 153 983 173 963 q 133 1033 133 1003 q 153 1083 133 1063 q 203 1103 173 1103 q 253 1083 233 1103 q 272 1033 272 1063 q 253 983 272 1003 q 203 963 233 963 z "},"Ị":{"ha":398,"x_min":83,"x_max":315,"o":"m 101 0 q 83 17 83 0 l 83 908 q 101 926 83 926 l 297 926 q 315 908 315 926 l 315 17 q 297 0 315 0 l 101 0 m 203 -175 q 153 -155 173 -175 q 133 -106 133 -135 q 153 -55 133 -75 q 203 -35 173 -35 q 253 -55 233 -35 q 272 -106 272 -75 q 253 -155 272 -135 q 203 -175 233 -175 z "},"Ì":{"ha":398,"x_min":82,"x_max":322,"o":"m 101 0 q 83 17 83 0 l 83 908 q 101 926 83 926 l 297 926 q 315 908 315 926 l 315 17 q 297 0 315 0 l 101 0 m 274 960 l 95 1035 q 88 1053 82 1042 l 127 1136 q 146 1145 133 1153 l 310 1039 q 317 1018 322 1031 l 293 966 q 274 960 288 953 z "},"Ỉ":{"ha":398,"x_min":65,"x_max":340,"o":"m 101 0 q 83 17 83 0 l 83 908 q 101 926 83 926 l 297 926 q 315 908 315 926 l 315 17 q 297 0 315 0 l 101 0 m 251 960 q 234 978 234 960 l 234 1019 l 83 1019 q 65 1037 65 1019 l 65 1075 q 86 1099 65 1099 l 271 1099 q 292 1090 283 1099 l 331 1049 q 340 1026 340 1040 l 340 978 q 322 960 340 960 l 251 960 z "},"Ȋ":{"ha":398,"x_min":62,"x_max":344,"o":"m 101 0 q 83 17 83 0 l 83 908 q 101 926 83 926 l 297 926 q 315 908 315 926 l 315 17 q 297 0 315 0 l 101 0 m 118 1099 l 288 1099 q 308 1089 301 1099 l 337 1049 q 344 1028 344 1040 l 344 978 q 326 960 344 960 l 253 960 q 235 978 235 960 l 235 1021 l 170 1021 l 170 978 q 153 960 170 960 l 79 960 q 62 978 62 960 l 62 1028 q 69 1049 62 1040 l 97 1089 q 118 1099 105 1099 z "},"Ī":{"ha":398,"x_min":62,"x_max":340,"o":"m 101 0 q 83 17 83 0 l 83 908 q 101 926 83 926 l 297 926 q 315 908 315 926 l 315 17 q 297 0 315 0 l 101 0 m 79 1007 q 62 1024 62 1007 l 62 1059 q 79 1076 62 1076 l 323 1076 q 340 1059 340 1076 l 340 1024 q 323 1007 340 1007 l 79 1007 z "},"Į":{"ha":398,"x_min":83,"x_max":315,"o":"m 101 0 q 83 17 83 0 l 83 908 q 101 926 83 926 l 297 926 q 315 908 315 926 l 315 17 q 297 0 315 0 l 101 0 m 240 -190 q 233 -189 235 -190 l 169 -158 q 165 -151 165 -156 l 165 -31 q 169 -24 165 -25 l 233 22 q 240 23 235 23 l 309 23 q 315 17 315 23 l 315 -41 q 310 -48 315 -44 l 260 -71 q 257 -76 257 -73 l 257 -94 q 260 -100 257 -98 l 310 -119 q 315 -126 315 -121 l 315 -184 q 309 -190 315 -190 l 240 -190 z "},"Ɩ":{"ha":449,"x_min":83,"x_max":366,"o":"m 101 0 q 83 17 83 0 l 83 197 q 90 217 83 210 l 101 228 q 109 250 109 238 l 109 676 q 101 698 109 690 l 90 708 q 83 729 83 715 l 83 908 q 101 926 83 926 l 349 926 q 366 908 366 926 l 366 729 q 359 708 366 715 l 349 698 q 340 676 340 690 l 340 250 q 349 228 340 236 l 359 217 q 366 197 366 210 l 366 17 q 349 0 366 0 l 101 0 z "},"Ɨ":{"ha":568,"x_min":76,"x_max":492,"o":"m 176 0 q 158 17 158 0 l 158 908 q 176 926 158 926 l 372 926 q 390 908 390 926 l 390 17 q 372 0 390 0 l 176 0 m 94 434 q 76 451 76 434 l 76 474 q 94 492 76 492 l 474 492 q 492 474 492 492 l 492 451 q 474 434 492 434 l 94 434 z "},"Ĩ":{"ha":398,"x_min":49,"x_max":356,"o":"m 101 0 q 83 17 83 0 l 83 908 q 101 926 83 926 l 297 926 q 315 908 315 926 l 315 17 q 297 0 315 0 l 101 0 m 65 960 q 56 979 49 960 l 101 1088 q 115 1099 108 1099 l 212 1099 q 224 1088 219 1099 l 242 1038 l 260 1088 q 285 1099 266 1099 l 340 1099 q 349 1080 356 1099 l 307 972 q 293 960 303 960 l 197 960 q 185 972 190 960 l 172 1025 l 139 972 q 115 960 132 960 l 65 960 z "},"Ḭ":{"ha":398,"x_min":49,"x_max":356,"o":"m 101 0 q 83 17 83 0 l 83 908 q 101 926 83 926 l 297 926 q 315 908 315 926 l 315 17 q 297 0 315 0 l 101 0 m 65 -174 q 56 -155 49 -174 l 101 -47 q 115 -35 108 -35 l 212 -35 q 224 -47 219 -35 l 242 -96 l 260 -47 q 285 -35 266 -35 l 340 -35 q 349 -54 356 -35 l 307 -162 q 293 -174 303 -174 l 197 -174 q 185 -162 190 -174 l 172 -109 l 139 -162 q 115 -174 132 -174 l 65 -174 z "},"J":{"ha":460,"x_min":28,"x_max":377,"o":"m 45 -116 q 28 -99 28 -116 l 28 12 q 35 33 28 25 l 138 135 q 146 158 146 143 l 146 908 q 163 926 146 926 l 360 926 q 377 908 377 926 l 377 60 q 376 49 377 54 q 369 38 375 44 l 226 -106 q 205 -116 215 -116 l 45 -116 z "},"Ĵ":{"ha":460,"x_min":28,"x_max":420,"o":"m 45 -116 q 28 -99 28 -116 l 28 12 q 35 33 28 25 l 138 135 q 146 158 146 143 l 146 908 q 163 926 146 926 l 360 926 q 377 908 377 926 l 377 60 q 376 49 377 54 q 369 38 375 44 l 226 -106 q 205 -116 215 -116 l 45 -116 m 118 960 q 106 966 109 960 q 106 980 102 972 l 168 1099 q 189 1111 174 1111 l 332 1111 q 353 1099 347 1111 l 415 980 q 416 966 420 972 q 404 960 413 960 l 306 960 q 287 974 295 960 l 269 1011 l 265 1026 l 256 1026 l 253 1011 l 235 974 q 217 960 227 960 l 118 960 z "},"Ʝ":{"ha":647,"x_min":28,"x_max":564,"o":"m 45 -116 q 28 -99 28 -116 l 28 155 q 45 172 28 172 l 249 172 l 249 908 q 266 926 249 926 l 463 926 q 481 908 481 926 l 481 172 l 547 172 q 564 155 564 172 l 564 132 q 547 115 564 115 l 481 115 l 481 60 q 472 38 481 47 l 328 -106 q 308 -116 318 -116 l 45 -116 m 103 -60 l 231 -60 q 249 -43 249 -60 l 249 115 l 103 115 q 85 97 85 115 l 85 -43 q 103 -60 85 -60 z "},"Ɉ":{"ha":556,"x_min":28,"x_max":472,"o":"m 45 -116 q 28 -99 28 -116 l 28 12 q 35 33 28 25 l 138 135 q 146 158 146 143 l 146 908 q 163 926 146 926 l 360 926 q 377 908 377 926 l 377 60 q 376 49 377 54 q 369 38 375 44 l 226 -106 q 205 -116 215 -116 l 45 -116 m 74 590 q 57 608 57 590 l 57 631 q 74 648 57 648 l 455 648 q 472 631 472 648 l 472 608 q 455 590 472 590 l 74 590 z "},"K":{"ha":802,"x_min":83,"x_max":747,"o":"m 101 0 q 83 17 83 0 l 83 908 q 101 926 83 926 l 297 926 q 315 908 315 926 l 315 540 l 401 540 l 447 713 l 488 917 q 495 923 490 921 q 510 926 500 926 l 710 926 q 728 908 728 926 l 728 822 q 726 807 728 814 q 722 794 724 799 l 638 590 l 578 479 l 639 369 l 741 138 q 745 127 744 133 q 747 111 747 122 l 747 17 q 729 0 747 0 l 522 0 q 510 2 517 0 q 501 10 503 3 l 450 231 l 412 356 l 315 356 l 315 17 q 297 0 315 0 l 101 0 z "},"Ḱ":{"ha":802,"x_min":83,"x_max":747,"o":"m 101 0 q 83 17 83 0 l 83 908 q 101 926 83 926 l 297 926 q 315 908 315 926 l 315 540 l 401 540 l 447 713 l 488 917 q 495 923 490 921 q 510 926 500 926 l 710 926 q 728 908 728 926 l 728 822 q 726 807 728 814 q 722 794 724 799 l 638 590 l 578 479 l 639 369 l 741 138 q 745 127 744 133 q 747 111 747 122 l 747 17 q 729 0 747 0 l 522 0 q 510 2 517 0 q 501 10 503 3 l 450 231 l 412 356 l 315 356 l 315 17 q 297 0 315 0 l 101 0 m 334 960 q 315 966 321 953 l 291 1018 q 299 1039 286 1031 l 463 1145 q 481 1136 475 1153 l 521 1053 q 513 1035 526 1042 l 334 960 z "},"Ǩ":{"ha":802,"x_min":83,"x_max":747,"o":"m 101 0 q 83 17 83 0 l 83 908 q 101 926 83 926 l 297 926 q 315 908 315 926 l 315 540 l 401 540 l 447 713 l 488 917 q 495 923 490 921 q 510 926 500 926 l 710 926 q 728 908 728 926 l 728 822 q 726 807 728 814 q 722 794 724 799 l 638 590 l 578 479 l 639 369 l 741 138 q 745 127 744 133 q 747 111 747 122 l 747 17 q 729 0 747 0 l 522 0 q 510 2 517 0 q 501 10 503 3 l 450 231 l 412 356 l 315 356 l 315 17 q 297 0 315 0 l 101 0 m 338 960 q 319 971 323 960 l 262 1081 q 261 1094 258 1088 q 274 1099 265 1099 l 364 1099 q 381 1087 373 1099 l 399 1052 l 402 1038 l 406 1038 l 410 1052 l 428 1087 q 446 1099 436 1099 l 536 1099 q 549 1094 545 1099 q 548 1081 552 1088 l 490 971 q 470 960 485 960 l 338 960 z "},"Ķ":{"ha":802,"x_min":83,"x_max":747,"o":"m 101 0 q 83 17 83 0 l 83 908 q 101 926 83 926 l 297 926 q 315 908 315 926 l 315 540 l 401 540 l 447 713 l 488 917 q 495 923 490 921 q 510 926 500 926 l 710 926 q 728 908 728 926 l 728 822 q 726 807 728 814 q 722 794 724 799 l 638 590 l 578 479 l 639 369 l 741 138 q 745 127 744 133 q 747 111 747 122 l 747 17 q 729 0 747 0 l 522 0 q 510 2 517 0 q 501 10 503 3 l 450 231 l 412 356 l 315 356 l 315 17 q 297 0 315 0 l 101 0 m 335 -208 q 326 -199 326 -208 l 326 -149 q 335 -140 326 -140 l 372 -140 q 383 -131 383 -140 l 383 -109 l 326 -109 q 317 -99 317 -106 l 317 -44 q 327 -35 317 -35 l 463 -35 q 472 -44 472 -35 l 472 -130 q 452 -189 472 -169 q 402 -208 433 -208 l 335 -208 z "},"Ḳ":{"ha":802,"x_min":83,"x_max":747,"o":"m 101 0 q 83 17 83 0 l 83 908 q 101 926 83 926 l 297 926 q 315 908 315 926 l 315 540 l 401 540 l 447 713 l 488 917 q 495 923 490 921 q 510 926 500 926 l 710 926 q 728 908 728 926 l 728 822 q 726 807 728 814 q 722 794 724 799 l 638 590 l 578 479 l 639 369 l 741 138 q 745 127 744 133 q 747 111 747 122 l 747 17 q 729 0 747 0 l 522 0 q 510 2 517 0 q 501 10 503 3 l 450 231 l 412 356 l 315 356 l 315 17 q 297 0 315 0 l 101 0 m 394 -175 q 344 -155 364 -175 q 324 -106 324 -135 q 344 -55 324 -75 q 394 -35 364 -35 q 444 -55 424 -35 q 463 -106 463 -75 q 444 -155 463 -135 q 394 -175 424 -175 z "},"Ƙ":{"ha":896,"x_min":83,"x_max":813,"o":"m 547 729 l 608 926 l 795 926 q 813 908 813 926 l 813 747 q 795 729 813 729 l 547 729 m 101 0 q 83 17 83 0 l 83 908 q 101 926 83 926 l 297 926 q 315 908 315 926 l 315 540 l 401 540 l 447 713 l 488 917 q 495 923 490 921 q 510 926 500 926 l 710 926 q 728 908 728 926 l 728 822 q 726 807 728 814 q 722 794 724 799 l 638 590 l 578 479 l 639 369 l 741 138 q 745 127 744 133 q 747 111 747 122 l 747 17 q 729 0 747 0 l 522 0 q 510 2 517 0 q 501 10 503 3 l 450 231 l 412 356 l 315 356 l 315 17 q 297 0 315 0 l 101 0 z "},"Ḵ":{"ha":802,"x_min":83,"x_max":747,"o":"m 101 0 q 83 17 83 0 l 83 908 q 101 926 83 926 l 297 926 q 315 908 315 926 l 315 540 l 401 540 l 447 713 l 488 917 q 495 923 490 921 q 510 926 500 926 l 710 926 q 728 908 728 926 l 728 822 q 726 807 728 814 q 722 794 724 799 l 638 590 l 578 479 l 639 369 l 741 138 q 745 127 744 133 q 747 111 747 122 l 747 17 q 729 0 747 0 l 522 0 q 510 2 517 0 q 501 10 503 3 l 450 231 l 412 356 l 315 356 l 315 17 q 297 0 315 0 l 101 0 m 272 -104 q 254 -87 254 -104 l 254 -52 q 272 -35 254 -35 l 515 -35 q 533 -52 533 -35 l 533 -87 q 515 -104 533 -104 l 272 -104 z "},"Ꝁ":{"ha":880,"x_min":83,"x_max":824,"o":"m 178 0 q 161 17 161 0 l 161 908 q 178 926 161 926 l 375 926 q 392 908 392 926 l 392 540 l 478 540 l 524 713 l 566 917 q 573 923 567 921 q 588 926 578 926 l 788 926 q 806 908 806 926 l 806 822 q 803 807 806 814 q 800 794 801 799 l 715 590 l 656 479 l 717 369 l 819 138 q 823 127 822 133 q 824 111 824 122 l 824 17 q 807 0 824 0 l 600 0 q 588 2 595 0 q 579 10 581 3 l 528 231 l 490 356 l 392 356 l 392 17 q 375 0 392 0 l 178 0 m 101 726 q 83 743 83 726 l 83 766 q 101 783 83 783 l 481 783 q 499 766 499 783 l 499 743 q 481 726 499 726 l 101 726 z "},"L":{"ha":535,"x_min":83,"x_max":507,"o":"m 101 0 q 83 17 83 0 l 83 908 q 101 926 83 926 l 297 926 q 315 908 315 926 l 315 185 l 490 185 q 507 168 507 185 l 507 17 q 490 0 507 0 l 101 0 z "},"Ǉ":{"ha":995,"x_min":83,"x_max":912,"o":"m 101 0 q 83 17 83 0 l 83 908 q 101 926 83 926 l 297 926 q 315 908 315 926 l 315 185 l 490 185 q 507 168 507 185 l 507 17 q 490 0 507 0 l 101 0 m 580 -116 q 563 -99 563 -116 l 563 12 q 569 33 563 25 l 672 135 q 681 158 681 143 l 681 908 q 698 926 681 926 l 894 926 q 912 908 912 926 l 912 60 q 911 49 912 54 q 904 38 910 44 l 760 -106 q 740 -116 750 -116 l 580 -116 z "},"Ĺ":{"ha":535,"x_min":83,"x_max":507,"o":"m 101 0 q 83 17 83 0 l 83 908 q 101 926 83 926 l 297 926 q 315 908 315 926 l 315 185 l 490 185 q 507 168 507 185 l 507 17 q 490 0 507 0 l 101 0 m 133 960 q 115 966 120 953 l 90 1018 q 98 1039 85 1031 l 262 1145 q 281 1136 274 1153 l 320 1053 q 313 1035 326 1042 l 133 960 z "},"Ƚ":{"ha":535,"x_min":2,"x_max":507,"o":"m 101 0 q 83 17 83 0 l 83 908 q 101 926 83 926 l 297 926 q 315 908 315 926 l 315 185 l 490 185 q 507 168 507 185 l 507 17 q 490 0 507 0 l 101 0 m 19 506 q 2 524 2 506 l 2 547 q 19 564 2 564 l 400 564 q 417 547 417 564 l 417 524 q 400 506 417 506 l 19 506 z "},"Ɬ":{"ha":668,"x_min":83,"x_max":640,"o":"m 101 408 q 83 425 83 408 l 83 678 q 101 696 83 696 l 372 696 q 389 678 389 696 l 389 655 q 372 638 389 638 l 159 638 q 142 620 142 638 l 142 481 q 159 463 142 463 l 292 463 l 293 408 l 101 408 m 356 405 q 338 422 338 405 l 338 446 q 356 463 338 463 l 623 463 q 640 446 640 463 l 640 422 q 623 405 640 405 l 356 405 m 231 0 q 213 17 213 0 l 213 908 q 231 926 213 926 l 427 926 q 444 908 444 926 l 444 185 l 619 185 q 637 168 637 185 l 637 17 q 619 0 637 0 l 231 0 z "},"Ľ":{"ha":535,"x_min":83,"x_max":519,"o":"m 101 0 q 83 17 83 0 l 83 908 q 101 926 83 926 l 297 926 q 315 908 315 926 l 315 185 l 490 185 q 507 168 507 185 l 507 17 q 490 0 507 0 l 101 0 m 407 656 q 390 672 390 656 l 390 904 q 407 922 390 922 l 499 922 q 517 904 519 922 l 496 672 q 478 656 494 656 l 407 656 z "},"Ḽ":{"ha":535,"x_min":83,"x_max":507,"o":"m 101 0 q 83 17 83 0 l 83 908 q 101 926 83 926 l 297 926 q 315 908 315 926 l 315 185 l 490 185 q 507 168 507 185 l 507 17 q 490 0 507 0 l 101 0 m 163 -174 q 151 -168 154 -174 q 151 -155 147 -162 l 208 -45 q 228 -35 213 -35 l 360 -35 q 379 -45 375 -35 l 438 -155 q 438 -168 442 -162 q 426 -174 435 -174 l 335 -174 q 318 -161 326 -174 l 299 -126 l 296 -112 l 292 -112 l 289 -126 l 271 -161 q 253 -174 263 -174 l 163 -174 z "},"Ļ":{"ha":535,"x_min":83,"x_max":507,"o":"m 101 0 q 83 17 83 0 l 83 908 q 101 926 83 926 l 297 926 q 315 908 315 926 l 315 185 l 490 185 q 507 168 507 185 l 507 17 q 490 0 507 0 l 101 0 m 236 -208 q 227 -199 227 -208 l 227 -149 q 236 -140 227 -140 l 274 -140 q 285 -131 285 -140 l 285 -109 l 227 -109 q 218 -99 218 -106 l 219 -44 q 228 -35 219 -35 l 364 -35 q 373 -44 373 -35 l 373 -130 q 354 -189 373 -169 q 303 -208 335 -208 l 236 -208 z "},"Ŀ":{"ha":535,"x_min":83,"x_max":569,"o":"m 395 408 q 383 421 383 408 l 383 581 q 395 594 383 594 l 556 594 q 569 581 569 594 l 569 421 q 556 408 569 408 l 395 408 m 101 0 q 83 17 83 0 l 83 908 q 101 926 83 926 l 297 926 q 315 908 315 926 l 315 185 l 490 185 q 507 168 507 185 l 507 17 q 490 0 507 0 l 101 0 z "},"Ḷ":{"ha":535,"x_min":83,"x_max":507,"o":"m 101 0 q 83 17 83 0 l 83 908 q 101 926 83 926 l 297 926 q 315 908 315 926 l 315 185 l 490 185 q 507 168 507 185 l 507 17 q 490 0 507 0 l 101 0 m 295 -175 q 245 -155 265 -175 q 226 -106 226 -135 q 245 -55 226 -75 q 295 -35 265 -35 q 345 -55 326 -35 q 365 -106 365 -75 q 345 -155 365 -135 q 295 -175 326 -175 z "},"Ḹ":{"ha":535,"x_min":64,"x_max":507,"o":"m 101 0 q 83 17 83 0 l 83 908 q 101 926 83 926 l 297 926 q 315 908 315 926 l 315 185 l 490 185 q 507 168 507 185 l 507 17 q 490 0 507 0 l 101 0 m 295 -175 q 245 -155 265 -175 q 226 -106 226 -135 q 245 -55 226 -75 q 295 -35 265 -35 q 345 -55 326 -35 q 365 -106 365 -75 q 345 -155 365 -135 q 295 -175 326 -175 m 81 1007 q 64 1024 64 1007 l 64 1059 q 81 1076 64 1076 l 325 1076 q 342 1059 342 1076 l 342 1024 q 325 1007 342 1007 l 81 1007 z "},"Ⱡ":{"ha":590,"x_min":83,"x_max":563,"o":"m 156 0 q 139 17 139 0 l 139 908 q 156 926 139 926 l 353 926 q 370 908 370 926 l 370 185 l 545 185 q 563 168 563 185 l 563 17 q 545 0 563 0 l 156 0 m 100 590 q 83 608 83 590 l 83 631 q 100 648 83 648 l 463 648 q 479 631 479 648 l 479 608 q 463 590 479 590 l 100 590 m 100 462 q 83 479 83 462 l 83 502 q 100 519 83 519 l 463 519 q 479 502 479 519 l 479 479 q 463 462 479 462 l 100 462 z "},"ǈ":{"ha":905,"x_min":83,"x_max":826,"o":"m 101 0 q 83 17 83 0 l 83 908 q 101 926 83 926 l 297 926 q 315 908 315 926 l 315 185 l 490 185 q 507 168 507 185 l 507 17 q 490 0 507 0 l 101 0 m 509 -231 q 493 -214 493 -231 l 493 -106 q 503 -90 493 -93 l 559 -71 l 597 -28 q 605 -17 603 -22 q 606 -5 606 -12 l 606 747 q 624 764 606 764 l 809 764 q 826 747 826 764 l 826 -52 q 815 -82 826 -69 l 733 -172 l 644 -221 q 610 -231 627 -231 l 509 -231 m 620 822 q 606 835 606 822 l 606 924 q 620 938 606 938 l 813 938 q 826 924 826 938 l 826 835 q 813 822 826 822 l 620 822 z "},"Ḻ":{"ha":535,"x_min":83,"x_max":507,"o":"m 101 0 q 83 17 83 0 l 83 908 q 101 926 83 926 l 297 926 q 315 908 315 926 l 315 185 l 490 185 q 507 168 507 185 l 507 17 q 490 0 507 0 l 101 0 m 173 -104 q 156 -87 156 -104 l 156 -52 q 173 -35 156 -35 l 417 -35 q 434 -52 434 -35 l 434 -87 q 417 -104 434 -104 l 173 -104 z "},"Ɫ":{"ha":777,"x_min":81,"x_max":694,"o":"m 94 415 q 84 419 87 415 q 86 432 81 424 l 159 574 q 167 585 163 581 q 181 588 172 588 l 353 588 q 378 571 369 588 l 408 509 l 536 509 l 560 575 q 580 588 565 588 l 660 588 q 668 571 677 588 l 593 428 q 571 415 586 415 l 413 415 q 388 432 395 415 l 358 493 l 206 493 l 182 427 q 163 415 178 415 l 94 415 m 288 0 q 270 17 270 0 l 270 908 q 288 926 270 926 l 484 926 q 501 908 501 926 l 501 185 l 676 185 q 694 168 694 185 l 694 17 q 676 0 694 0 l 288 0 z "},"Ł":{"ha":535,"x_min":-14,"x_max":507,"o":"m 7 377 q -8 377 -2 373 q -14 390 -14 381 l -14 493 q -1 513 -14 506 l 385 705 q 400 706 394 709 q 406 692 406 702 l 406 589 q 394 569 406 577 l 7 377 m 101 0 q 83 17 83 0 l 83 908 q 101 926 83 926 l 297 926 q 315 908 315 926 l 315 185 l 490 185 q 507 168 507 185 l 507 17 q 490 0 507 0 l 101 0 z "},"M":{"ha":1116,"x_min":83,"x_max":1033,"o":"m 101 0 q 83 17 83 0 l 83 771 q 95 799 83 787 l 210 915 q 238 926 222 926 l 397 926 q 425 915 413 926 l 542 797 l 574 797 l 691 915 q 719 926 703 926 l 877 926 q 905 915 894 926 l 1021 799 q 1033 771 1033 787 l 1033 17 q 1015 0 1033 0 l 818 0 q 801 17 801 0 l 801 741 l 674 741 l 674 17 q 656 0 674 0 l 460 0 q 442 17 442 0 l 442 741 l 315 741 l 315 17 q 297 0 315 0 l 101 0 z "},"Ḿ":{"ha":1116,"x_min":83,"x_max":1033,"o":"m 101 0 q 83 17 83 0 l 83 771 q 95 799 83 787 l 210 915 q 238 926 222 926 l 397 926 q 425 915 413 926 l 542 797 l 574 797 l 691 915 q 719 926 703 926 l 877 926 q 905 915 894 926 l 1021 799 q 1033 771 1033 787 l 1033 17 q 1015 0 1033 0 l 818 0 q 801 17 801 0 l 801 741 l 674 741 l 674 17 q 656 0 674 0 l 460 0 q 442 17 442 0 l 442 741 l 315 741 l 315 17 q 297 0 315 0 l 101 0 m 486 960 q 467 966 473 953 l 443 1018 q 451 1039 438 1031 l 615 1145 q 633 1136 627 1153 l 673 1053 q 665 1035 678 1042 l 486 960 z "},"Ṁ":{"ha":1116,"x_min":83,"x_max":1033,"o":"m 101 0 q 83 17 83 0 l 83 771 q 95 799 83 787 l 210 915 q 238 926 222 926 l 397 926 q 425 915 413 926 l 542 797 l 574 797 l 691 915 q 719 926 703 926 l 877 926 q 905 915 894 926 l 1021 799 q 1033 771 1033 787 l 1033 17 q 1015 0 1033 0 l 818 0 q 801 17 801 0 l 801 741 l 674 741 l 674 17 q 656 0 674 0 l 460 0 q 442 17 442 0 l 442 741 l 315 741 l 315 17 q 297 0 315 0 l 101 0 m 558 963 q 508 983 528 963 q 488 1033 488 1003 q 508 1083 488 1063 q 558 1103 528 1103 q 608 1083 588 1103 q 627 1033 627 1063 q 608 983 627 1003 q 558 963 588 963 z "},"Ṃ":{"ha":1116,"x_min":83,"x_max":1033,"o":"m 101 0 q 83 17 83 0 l 83 771 q 95 799 83 787 l 210 915 q 238 926 222 926 l 397 926 q 425 915 413 926 l 542 797 l 574 797 l 691 915 q 719 926 703 926 l 877 926 q 905 915 894 926 l 1021 799 q 1033 771 1033 787 l 1033 17 q 1015 0 1033 0 l 818 0 q 801 17 801 0 l 801 741 l 674 741 l 674 17 q 656 0 674 0 l 460 0 q 442 17 442 0 l 442 741 l 315 741 l 315 17 q 297 0 315 0 l 101 0 m 558 -175 q 508 -155 528 -175 q 488 -106 488 -135 q 508 -55 488 -75 q 558 -35 528 -35 q 608 -55 588 -35 q 627 -106 627 -75 q 608 -155 627 -135 q 558 -175 588 -175 z "},"Ɯ":{"ha":1116,"x_min":83,"x_max":1033,"o":"m 101 926 l 297 926 q 315 908 315 926 l 315 185 l 442 185 l 442 908 q 460 926 442 926 l 656 926 q 674 908 674 926 l 674 185 l 801 185 l 801 908 q 818 926 801 926 l 1015 926 q 1033 908 1033 926 l 1033 155 q 1021 127 1033 139 l 905 11 q 877 0 894 0 l 719 0 q 691 11 703 0 l 574 128 l 542 128 l 425 11 q 397 0 413 0 l 238 0 q 210 11 222 0 l 95 127 q 83 155 83 139 l 83 908 q 101 926 83 926 z "},"N":{"ha":757,"x_min":83,"x_max":674,"o":"m 101 0 q 83 17 83 0 l 83 908 q 101 926 83 926 l 495 926 q 523 915 512 926 l 662 776 q 674 748 674 764 l 674 17 q 656 0 674 0 l 460 0 q 442 17 442 0 l 442 741 l 315 741 l 315 17 q 297 0 315 0 l 101 0 z "},"Ǌ":{"ha":1217,"x_min":83,"x_max":1134,"o":"m 101 0 q 83 17 83 0 l 83 908 q 101 926 83 926 l 495 926 q 523 915 512 926 l 662 776 q 674 748 674 764 l 674 17 q 656 0 674 0 l 460 0 q 442 17 442 0 l 442 741 l 315 741 l 315 17 q 297 0 315 0 l 101 0 m 802 -116 q 785 -99 785 -116 l 785 12 q 792 33 785 25 l 894 135 q 903 158 903 143 l 903 908 q 920 926 903 926 l 1117 926 q 1134 908 1134 926 l 1134 60 q 1133 49 1134 54 q 1126 38 1132 44 l 983 -106 q 962 -116 972 -116 l 802 -116 z "},"Ń":{"ha":757,"x_min":83,"x_max":674,"o":"m 101 0 q 83 17 83 0 l 83 908 q 101 926 83 926 l 495 926 q 523 915 512 926 l 662 776 q 674 748 674 764 l 674 17 q 656 0 674 0 l 460 0 q 442 17 442 0 l 442 741 l 315 741 l 315 17 q 297 0 315 0 l 101 0 m 307 960 q 288 966 294 953 l 264 1018 q 272 1039 259 1031 l 435 1145 q 454 1136 448 1153 l 494 1053 q 486 1035 499 1042 l 307 960 z "},"Ň":{"ha":757,"x_min":83,"x_max":674,"o":"m 101 0 q 83 17 83 0 l 83 908 q 101 926 83 926 l 495 926 q 523 915 512 926 l 662 776 q 674 748 674 764 l 674 17 q 656 0 674 0 l 460 0 q 442 17 442 0 l 442 741 l 315 741 l 315 17 q 297 0 315 0 l 101 0 m 311 960 q 292 971 296 960 l 235 1081 q 234 1094 231 1088 q 247 1099 238 1099 l 337 1099 q 354 1087 346 1099 l 372 1052 l 375 1038 l 379 1038 l 383 1052 l 401 1087 q 419 1099 409 1099 l 509 1099 q 522 1094 518 1099 q 521 1081 525 1088 l 463 971 q 443 960 458 960 l 311 960 z "},"Ṋ":{"ha":757,"x_min":83,"x_max":674,"o":"m 101 0 q 83 17 83 0 l 83 908 q 101 926 83 926 l 495 926 q 523 915 512 926 l 662 776 q 674 748 674 764 l 674 17 q 656 0 674 0 l 460 0 q 442 17 442 0 l 442 741 l 315 741 l 315 17 q 297 0 315 0 l 101 0 m 247 -174 q 234 -168 238 -174 q 235 -155 231 -162 l 292 -45 q 311 -35 296 -35 l 443 -35 q 463 -45 458 -35 l 521 -155 q 522 -168 525 -162 q 509 -174 518 -174 l 419 -174 q 401 -161 409 -174 l 383 -126 l 379 -112 l 375 -112 l 372 -126 l 354 -161 q 337 -174 346 -174 l 247 -174 z "},"Ņ":{"ha":757,"x_min":83,"x_max":674,"o":"m 101 0 q 83 17 83 0 l 83 908 q 101 926 83 926 l 495 926 q 523 915 512 926 l 662 776 q 674 748 674 764 l 674 17 q 656 0 674 0 l 460 0 q 442 17 442 0 l 442 741 l 315 741 l 315 17 q 297 0 315 0 l 101 0 m 319 -208 q 310 -199 310 -208 l 310 -149 q 319 -140 310 -140 l 357 -140 q 368 -131 368 -140 l 368 -109 l 310 -109 q 301 -99 301 -106 l 302 -44 q 312 -35 302 -35 l 447 -35 q 456 -44 456 -35 l 456 -130 q 437 -189 456 -169 q 387 -208 418 -208 l 319 -208 z "},"Ṅ":{"ha":757,"x_min":83,"x_max":674,"o":"m 101 0 q 83 17 83 0 l 83 908 q 101 926 83 926 l 495 926 q 523 915 512 926 l 662 776 q 674 748 674 764 l 674 17 q 656 0 674 0 l 460 0 q 442 17 442 0 l 442 741 l 315 741 l 315 17 q 297 0 315 0 l 101 0 m 378 963 q 329 983 349 963 q 309 1033 309 1003 q 329 1083 309 1063 q 378 1103 349 1103 q 428 1083 409 1103 q 448 1033 448 1063 q 428 983 448 1003 q 378 963 409 963 z "},"Ṇ":{"ha":757,"x_min":83,"x_max":674,"o":"m 101 0 q 83 17 83 0 l 83 908 q 101 926 83 926 l 495 926 q 523 915 512 926 l 662 776 q 674 748 674 764 l 674 17 q 656 0 674 0 l 460 0 q 442 17 442 0 l 442 741 l 315 741 l 315 17 q 297 0 315 0 l 101 0 m 378 -175 q 329 -155 349 -175 q 309 -106 309 -135 q 329 -55 309 -75 q 378 -35 349 -35 q 428 -55 409 -35 q 448 -106 448 -75 q 428 -155 448 -135 q 378 -175 409 -175 z "},"Ǹ":{"ha":757,"x_min":83,"x_max":674,"o":"m 101 0 q 83 17 83 0 l 83 908 q 101 926 83 926 l 495 926 q 523 915 512 926 l 662 776 q 674 748 674 764 l 674 17 q 656 0 674 0 l 460 0 q 442 17 442 0 l 442 741 l 315 741 l 315 17 q 297 0 315 0 l 101 0 m 450 960 l 271 1035 q 263 1053 258 1042 l 303 1136 q 322 1145 309 1153 l 485 1039 q 493 1018 498 1031 l 469 966 q 450 960 464 953 z "},"Ɲ":{"ha":757,"x_min":-5,"x_max":674,"o":"m 30 -224 q -5 -189 -5 -224 l -5 -94 q 5 -68 -5 -78 q 30 -58 15 -58 l 83 -58 l 83 17 l 315 17 l 315 -85 q 295 -127 315 -110 l 212 -207 q 167 -224 195 -224 l 30 -224 m 101 0 q 83 17 83 0 l 83 908 q 101 926 83 926 l 495 926 q 523 915 512 926 l 662 776 q 674 748 674 764 l 674 17 q 656 0 674 0 l 460 0 q 442 17 442 0 l 442 741 l 315 741 l 315 17 q 297 0 315 0 l 101 0 z "},"ǋ":{"ha":1127,"x_min":83,"x_max":1049,"o":"m 101 0 q 83 17 83 0 l 83 908 q 101 926 83 926 l 495 926 q 523 915 512 926 l 662 776 q 674 748 674 764 l 674 17 q 656 0 674 0 l 460 0 q 442 17 442 0 l 442 741 l 315 741 l 315 17 q 297 0 315 0 l 101 0 m 731 -231 q 715 -214 715 -231 l 715 -106 q 726 -90 715 -93 l 781 -71 l 819 -28 q 827 -17 826 -22 q 828 -5 828 -12 l 828 747 q 846 764 828 764 l 1031 764 q 1049 747 1049 764 l 1049 -52 q 1037 -82 1049 -69 l 955 -172 l 867 -221 q 832 -231 849 -231 l 731 -231 m 842 822 q 828 835 828 822 l 828 924 q 842 938 828 938 l 1035 938 q 1048 924 1048 938 l 1048 835 q 1035 822 1048 822 l 842 822 z "},"Ƞ":{"ha":748,"x_min":78,"x_max":669,"o":"m 96 0 q 78 17 78 0 l 78 908 q 96 926 78 926 l 491 926 q 519 915 507 926 l 658 776 q 669 748 669 764 l 669 -272 q 651 -290 669 -290 l 455 -290 q 438 -272 438 -290 l 438 741 l 310 741 l 310 17 q 293 0 310 0 l 96 0 z "},"Ṉ":{"ha":757,"x_min":83,"x_max":674,"o":"m 101 0 q 83 17 83 0 l 83 908 q 101 926 83 926 l 495 926 q 523 915 512 926 l 662 776 q 674 748 674 764 l 674 17 q 656 0 674 0 l 460 0 q 442 17 442 0 l 442 741 l 315 741 l 315 17 q 297 0 315 0 l 101 0 m 256 -104 q 239 -87 239 -104 l 239 -52 q 256 -35 239 -35 l 500 -35 q 517 -52 517 -35 l 517 -87 q 500 -104 517 -104 l 256 -104 z "},"Ñ":{"ha":757,"x_min":83,"x_max":674,"o":"m 101 0 q 83 17 83 0 l 83 908 q 101 926 83 926 l 495 926 q 523 915 512 926 l 662 776 q 674 748 674 764 l 674 17 q 656 0 674 0 l 460 0 q 442 17 442 0 l 442 741 l 315 741 l 315 17 q 297 0 315 0 l 101 0 m 240 960 q 231 979 225 960 l 276 1088 q 290 1099 284 1099 l 388 1099 q 399 1088 395 1099 l 417 1038 l 436 1088 q 460 1099 442 1099 l 516 1099 q 525 1080 531 1099 l 483 972 q 469 960 478 960 l 372 960 q 361 972 365 960 l 348 1025 l 315 972 q 290 960 308 960 l 240 960 z "},"Ŋ":{"ha":752,"x_min":83,"x_max":674,"o":"m 351 -259 q 316 -224 316 -259 l 316 -127 q 351 -92 316 -92 l 442 -92 l 442 741 l 315 741 l 315 17 q 297 0 315 0 l 101 0 q 83 17 83 0 l 83 908 q 101 926 83 926 l 495 926 q 523 915 512 926 l 662 776 q 674 748 674 764 l 674 -122 q 654 -163 674 -146 l 571 -243 q 526 -259 555 -259 l 351 -259 z "},"O":{"ha":797,"x_min":83,"x_max":713,"o":"m 262 0 q 234 12 246 0 l 95 151 q 83 178 83 162 l 83 748 q 95 776 83 764 l 234 915 q 262 926 246 926 l 535 926 q 563 915 551 926 l 701 776 q 713 748 713 764 l 713 178 q 701 151 713 162 l 563 12 q 535 0 551 0 l 262 0 m 344 185 l 453 185 q 482 224 482 185 l 482 701 q 453 741 482 741 l 344 741 q 315 701 315 741 l 315 224 q 344 185 315 185 z "},"Ȣ":{"ha":797,"x_min":83,"x_max":713,"o":"m 262 0 q 234 12 246 0 l 95 151 q 83 178 83 162 l 83 516 q 95 544 83 533 l 234 683 q 262 694 246 694 l 535 694 q 563 683 551 694 l 701 544 q 713 516 713 533 l 713 178 q 701 151 713 162 l 563 12 q 535 0 551 0 l 262 0 m 344 185 l 453 185 q 482 224 482 185 l 482 470 q 453 509 482 509 l 344 509 q 315 470 315 509 l 315 224 q 344 185 315 185 m 262 508 q 234 519 246 508 l 95 658 q 83 686 83 670 l 83 926 l 315 926 l 315 733 q 344 693 315 693 l 453 693 q 482 733 482 693 l 482 926 l 713 926 l 713 686 q 701 658 713 670 l 563 519 q 535 508 551 508 l 262 508 z "},"Ó":{"ha":797,"x_min":83,"x_max":713,"o":"m 262 0 q 234 12 246 0 l 95 151 q 83 178 83 162 l 83 748 q 95 776 83 764 l 234 915 q 262 926 246 926 l 535 926 q 563 915 551 926 l 701 776 q 713 748 713 764 l 713 178 q 701 151 713 162 l 563 12 q 535 0 551 0 l 262 0 m 344 185 l 453 185 q 482 224 482 185 l 482 701 q 453 741 482 741 l 344 741 q 315 701 315 741 l 315 224 q 344 185 315 185 m 328 960 q 309 966 315 953 l 285 1018 q 292 1039 280 1031 l 456 1145 q 475 1136 469 1153 l 515 1053 q 507 1035 520 1042 l 328 960 z "},"Ŏ":{"ha":797,"x_min":83,"x_max":713,"o":"m 262 0 q 234 12 246 0 l 95 151 q 83 178 83 162 l 83 748 q 95 776 83 764 l 234 915 q 262 926 246 926 l 535 926 q 563 915 551 926 l 701 776 q 713 748 713 764 l 713 178 q 701 151 713 162 l 563 12 q 535 0 551 0 l 262 0 m 344 185 l 453 185 q 482 224 482 185 l 482 701 q 453 741 482 741 l 344 741 q 315 701 315 741 l 315 224 q 344 185 315 185 m 315 960 q 294 971 301 960 l 265 1010 q 258 1031 258 1020 l 258 1082 q 276 1099 258 1099 l 349 1099 q 367 1082 367 1099 l 367 1039 l 432 1039 l 432 1082 q 449 1099 432 1099 l 523 1099 q 540 1082 540 1099 l 540 1031 q 533 1010 540 1020 l 505 971 q 484 960 497 960 l 315 960 z "},"Ǒ":{"ha":797,"x_min":83,"x_max":713,"o":"m 262 0 q 234 12 246 0 l 95 151 q 83 178 83 162 l 83 748 q 95 776 83 764 l 234 915 q 262 926 246 926 l 535 926 q 563 915 551 926 l 701 776 q 713 748 713 764 l 713 178 q 701 151 713 162 l 563 12 q 535 0 551 0 l 262 0 m 344 185 l 453 185 q 482 224 482 185 l 482 701 q 453 741 482 741 l 344 741 q 315 701 315 741 l 315 224 q 344 185 315 185 m 467 960 l 335 960 q 315 971 319 960 l 257 1081 q 256 1094 253 1088 q 269 1099 260 1099 l 359 1099 q 376 1087 369 1099 l 395 1052 l 399 1038 l 403 1038 l 406 1052 l 424 1087 q 441 1099 432 1099 l 531 1099 q 544 1094 540 1099 q 543 1081 547 1088 l 486 971 q 467 960 482 960 z "},"Ɵ":{"ha":797,"x_min":83,"x_max":713,"o":"m 210 415 l 210 511 l 586 511 l 586 415 l 210 415 m 262 0 q 234 12 246 0 l 95 151 q 83 178 83 162 l 83 748 q 95 776 83 764 l 234 915 q 262 926 246 926 l 535 926 q 563 915 551 926 l 701 776 q 713 748 713 764 l 713 178 q 701 151 713 162 l 563 12 q 535 0 551 0 l 262 0 m 344 185 l 453 185 q 482 224 482 185 l 482 701 q 453 741 482 741 l 344 741 q 315 701 315 741 l 315 224 q 344 185 315 185 z "},"Ô":{"ha":797,"x_min":83,"x_max":713,"o":"m 262 0 q 234 12 246 0 l 95 151 q 83 178 83 162 l 83 748 q 95 776 83 764 l 234 915 q 262 926 246 926 l 535 926 q 563 915 551 926 l 701 776 q 713 748 713 764 l 713 178 q 701 151 713 162 l 563 12 q 535 0 551 0 l 262 0 m 344 185 l 453 185 q 482 224 482 185 l 482 701 q 453 741 482 741 l 344 741 q 315 701 315 741 l 315 224 q 344 185 315 185 m 256 960 q 243 966 247 960 q 244 980 240 972 l 306 1099 q 326 1111 311 1111 l 469 1111 q 490 1099 485 1111 l 553 980 q 554 966 558 972 q 542 960 550 960 l 443 960 q 424 974 433 960 l 406 1011 l 403 1026 l 393 1026 l 391 1011 l 372 974 q 354 960 365 960 l 256 960 z "},"Ố":{"ha":797,"x_min":83,"x_max":713,"o":"m 262 0 q 234 12 246 0 l 95 151 q 83 178 83 162 l 83 748 q 95 776 83 764 l 234 915 q 262 926 246 926 l 535 926 q 563 915 551 926 l 701 776 q 713 748 713 764 l 713 178 q 701 151 713 162 l 563 12 q 535 0 551 0 l 262 0 m 344 185 l 453 185 q 482 224 482 185 l 482 701 q 453 741 482 741 l 344 741 q 315 701 315 741 l 315 224 q 344 185 315 185 m 256 960 q 243 966 247 960 q 244 980 240 972 l 306 1099 q 326 1111 311 1111 l 469 1111 q 490 1099 485 1111 l 553 980 q 554 966 558 972 q 542 960 550 960 l 443 960 q 424 974 433 960 l 406 1011 l 403 1026 l 393 1026 l 391 1011 l 372 974 q 354 960 365 960 l 256 960 m 328 1145 q 309 1151 315 1139 l 285 1203 q 292 1224 280 1216 l 456 1331 q 475 1322 469 1338 l 515 1239 q 507 1220 520 1227 l 328 1145 z "},"Ộ":{"ha":797,"x_min":83,"x_max":713,"o":"m 262 0 q 234 12 246 0 l 95 151 q 83 178 83 162 l 83 748 q 95 776 83 764 l 234 915 q 262 926 246 926 l 535 926 q 563 915 551 926 l 701 776 q 713 748 713 764 l 713 178 q 701 151 713 162 l 563 12 q 535 0 551 0 l 262 0 m 344 185 l 453 185 q 482 224 482 185 l 482 701 q 453 741 482 741 l 344 741 q 315 701 315 741 l 315 224 q 344 185 315 185 m 399 -175 q 350 -155 369 -175 q 330 -106 330 -135 q 350 -55 330 -75 q 399 -35 369 -35 q 449 -55 430 -35 q 469 -106 469 -75 q 449 -155 469 -135 q 399 -175 430 -175 m 256 960 q 243 966 247 960 q 244 980 240 972 l 306 1099 q 326 1111 311 1111 l 469 1111 q 490 1099 485 1111 l 553 980 q 554 966 558 972 q 542 960 550 960 l 443 960 q 424 974 433 960 l 406 1011 l 403 1026 l 393 1026 l 391 1011 l 372 974 q 354 960 365 960 l 256 960 z "},"Ồ":{"ha":797,"x_min":83,"x_max":713,"o":"m 262 0 q 234 12 246 0 l 95 151 q 83 178 83 162 l 83 748 q 95 776 83 764 l 234 915 q 262 926 246 926 l 535 926 q 563 915 551 926 l 701 776 q 713 748 713 764 l 713 178 q 701 151 713 162 l 563 12 q 535 0 551 0 l 262 0 m 344 185 l 453 185 q 482 224 482 185 l 482 701 q 453 741 482 741 l 344 741 q 315 701 315 741 l 315 224 q 344 185 315 185 m 256 960 q 243 966 247 960 q 244 980 240 972 l 306 1099 q 326 1111 311 1111 l 469 1111 q 490 1099 485 1111 l 553 980 q 554 966 558 972 q 542 960 550 960 l 443 960 q 424 974 433 960 l 406 1011 l 403 1026 l 393 1026 l 391 1011 l 372 974 q 354 960 365 960 l 256 960 m 471 1145 l 292 1220 q 284 1239 278 1227 l 324 1322 q 342 1331 330 1338 l 506 1224 q 514 1203 519 1216 l 490 1151 q 471 1145 485 1139 z "},"Ổ":{"ha":797,"x_min":83,"x_max":713,"o":"m 262 0 q 234 12 246 0 l 95 151 q 83 178 83 162 l 83 748 q 95 776 83 764 l 234 915 q 262 926 246 926 l 535 926 q 563 915 551 926 l 701 776 q 713 748 713 764 l 713 178 q 701 151 713 162 l 563 12 q 535 0 551 0 l 262 0 m 344 185 l 453 185 q 482 224 482 185 l 482 701 q 453 741 482 741 l 344 741 q 315 701 315 741 l 315 224 q 344 185 315 185 m 256 960 q 243 966 247 960 q 244 980 240 972 l 306 1099 q 326 1111 311 1111 l 469 1111 q 490 1099 485 1111 l 553 980 q 554 966 558 972 q 542 960 550 960 l 443 960 q 424 974 433 960 l 406 1011 l 403 1026 l 393 1026 l 391 1011 l 372 974 q 354 960 365 960 l 256 960 m 448 1146 q 431 1163 431 1146 l 431 1205 l 279 1205 q 262 1222 262 1205 l 262 1260 q 283 1285 262 1285 l 467 1285 q 488 1276 479 1285 l 528 1234 q 536 1212 536 1225 l 536 1163 q 519 1146 536 1146 l 448 1146 z "},"Ỗ":{"ha":797,"x_min":83,"x_max":713,"o":"m 262 0 q 234 12 246 0 l 95 151 q 83 178 83 162 l 83 748 q 95 776 83 764 l 234 915 q 262 926 246 926 l 535 926 q 563 915 551 926 l 701 776 q 713 748 713 764 l 713 178 q 701 151 713 162 l 563 12 q 535 0 551 0 l 262 0 m 344 185 l 453 185 q 482 224 482 185 l 482 701 q 453 741 482 741 l 344 741 q 315 701 315 741 l 315 224 q 344 185 315 185 m 256 960 q 243 966 247 960 q 244 980 240 972 l 306 1099 q 326 1111 311 1111 l 469 1111 q 490 1099 485 1111 l 553 980 q 554 966 558 972 q 542 960 550 960 l 443 960 q 424 974 433 960 l 406 1011 l 403 1026 l 393 1026 l 391 1011 l 372 974 q 354 960 365 960 l 256 960 m 261 1146 q 252 1165 246 1146 l 297 1273 q 311 1285 305 1285 l 408 1285 q 420 1273 416 1285 l 438 1224 l 457 1273 q 481 1285 463 1285 l 537 1285 q 546 1265 552 1285 l 503 1158 q 490 1146 499 1146 l 393 1146 q 382 1158 386 1146 l 369 1210 l 335 1158 q 311 1146 328 1146 l 261 1146 z "},"Ȍ":{"ha":797,"x_min":83,"x_max":713,"o":"m 262 0 q 234 12 246 0 l 95 151 q 83 178 83 162 l 83 748 q 95 776 83 764 l 234 915 q 262 926 246 926 l 535 926 q 563 915 551 926 l 701 776 q 713 748 713 764 l 713 178 q 701 151 713 162 l 563 12 q 535 0 551 0 l 262 0 m 344 185 l 453 185 q 482 224 482 185 l 482 701 q 453 741 482 741 l 344 741 q 315 701 315 741 l 315 224 q 344 185 315 185 m 470 972 q 453 978 459 967 l 379 1137 q 385 1154 374 1149 l 487 1193 q 505 1187 501 1200 l 551 1017 q 544 998 554 1003 l 470 972 m 298 956 q 281 963 287 951 l 207 1121 q 213 1138 202 1133 l 315 1177 q 333 1171 329 1184 l 378 1001 q 372 982 382 987 l 298 956 z "},"Ö":{"ha":797,"x_min":83,"x_max":713,"o":"m 262 0 q 234 12 246 0 l 95 151 q 83 178 83 162 l 83 748 q 95 776 83 764 l 234 915 q 262 926 246 926 l 535 926 q 563 915 551 926 l 701 776 q 713 748 713 764 l 713 178 q 701 151 713 162 l 563 12 q 535 0 551 0 l 262 0 m 344 185 l 453 185 q 482 224 482 185 l 482 701 q 453 741 482 741 l 344 741 q 315 701 315 741 l 315 224 q 344 185 315 185 m 197 983 q 183 997 183 983 l 183 1085 q 197 1099 183 1099 l 363 1099 q 375 1085 375 1099 l 375 997 q 363 983 375 983 l 197 983 m 437 983 q 423 997 423 983 l 423 1085 q 437 1099 423 1099 l 602 1099 q 615 1085 615 1099 l 615 997 q 602 983 615 983 l 437 983 z "},"Ȫ":{"ha":797,"x_min":83,"x_max":713,"o":"m 262 0 q 234 12 246 0 l 95 151 q 83 178 83 162 l 83 748 q 95 776 83 764 l 234 915 q 262 926 246 926 l 535 926 q 563 915 551 926 l 701 776 q 713 748 713 764 l 713 178 q 701 151 713 162 l 563 12 q 535 0 551 0 l 262 0 m 344 185 l 453 185 q 482 224 482 185 l 482 701 q 453 741 482 741 l 344 741 q 315 701 315 741 l 315 224 q 344 185 315 185 m 197 983 q 183 997 183 983 l 183 1085 q 197 1099 183 1099 l 363 1099 q 375 1085 375 1099 l 375 997 q 363 983 375 983 l 197 983 m 437 983 q 423 997 423 983 l 423 1085 q 437 1099 423 1099 l 602 1099 q 615 1085 615 1099 l 615 997 q 602 983 615 983 l 437 983 m 276 1181 q 258 1198 258 1181 l 258 1233 q 276 1250 258 1250 l 519 1250 q 537 1233 537 1250 l 537 1198 q 519 1181 537 1181 l 276 1181 z "},"Ȯ":{"ha":797,"x_min":83,"x_max":713,"o":"m 262 0 q 234 12 246 0 l 95 151 q 83 178 83 162 l 83 748 q 95 776 83 764 l 234 915 q 262 926 246 926 l 535 926 q 563 915 551 926 l 701 776 q 713 748 713 764 l 713 178 q 701 151 713 162 l 563 12 q 535 0 551 0 l 262 0 m 344 185 l 453 185 q 482 224 482 185 l 482 701 q 453 741 482 741 l 344 741 q 315 701 315 741 l 315 224 q 344 185 315 185 m 399 963 q 350 983 369 963 q 330 1033 330 1003 q 350 1083 330 1063 q 399 1103 369 1103 q 449 1083 430 1103 q 469 1033 469 1063 q 449 983 469 1003 q 399 963 430 963 z "},"Ȱ":{"ha":797,"x_min":83,"x_max":713,"o":"m 262 0 q 234 12 246 0 l 95 151 q 83 178 83 162 l 83 748 q 95 776 83 764 l 234 915 q 262 926 246 926 l 535 926 q 563 915 551 926 l 701 776 q 713 748 713 764 l 713 178 q 701 151 713 162 l 563 12 q 535 0 551 0 l 262 0 m 344 185 l 453 185 q 482 224 482 185 l 482 701 q 453 741 482 741 l 344 741 q 315 701 315 741 l 315 224 q 344 185 315 185 m 399 963 q 350 983 369 963 q 330 1033 330 1003 q 350 1083 330 1063 q 399 1103 369 1103 q 449 1083 430 1103 q 469 1033 469 1063 q 449 983 469 1003 q 399 963 430 963 m 276 1185 q 258 1202 258 1185 l 258 1237 q 276 1254 258 1254 l 519 1254 q 537 1237 537 1254 l 537 1202 q 519 1185 537 1185 l 276 1185 z "},"Ọ":{"ha":797,"x_min":83,"x_max":713,"o":"m 262 0 q 234 12 246 0 l 95 151 q 83 178 83 162 l 83 748 q 95 776 83 764 l 234 915 q 262 926 246 926 l 535 926 q 563 915 551 926 l 701 776 q 713 748 713 764 l 713 178 q 701 151 713 162 l 563 12 q 535 0 551 0 l 262 0 m 344 185 l 453 185 q 482 224 482 185 l 482 701 q 453 741 482 741 l 344 741 q 315 701 315 741 l 315 224 q 344 185 315 185 m 399 -175 q 350 -155 369 -175 q 330 -106 330 -135 q 350 -55 330 -75 q 399 -35 369 -35 q 449 -55 430 -35 q 469 -106 469 -75 q 449 -155 469 -135 q 399 -175 430 -175 z "},"Ò":{"ha":797,"x_min":83,"x_max":713,"o":"m 262 0 q 234 12 246 0 l 95 151 q 83 178 83 162 l 83 748 q 95 776 83 764 l 234 915 q 262 926 246 926 l 535 926 q 563 915 551 926 l 701 776 q 713 748 713 764 l 713 178 q 701 151 713 162 l 563 12 q 535 0 551 0 l 262 0 m 344 185 l 453 185 q 482 224 482 185 l 482 701 q 453 741 482 741 l 344 741 q 315 701 315 741 l 315 224 q 344 185 315 185 m 471 960 l 292 1035 q 284 1053 278 1042 l 324 1136 q 342 1145 330 1153 l 506 1039 q 514 1018 519 1031 l 490 966 q 471 960 485 953 z "},"Ỏ":{"ha":797,"x_min":83,"x_max":713,"o":"m 262 0 q 234 12 246 0 l 95 151 q 83 178 83 162 l 83 748 q 95 776 83 764 l 234 915 q 262 926 246 926 l 535 926 q 563 915 551 926 l 701 776 q 713 748 713 764 l 713 178 q 701 151 713 162 l 563 12 q 535 0 551 0 l 262 0 m 344 185 l 453 185 q 482 224 482 185 l 482 701 q 453 741 482 741 l 344 741 q 315 701 315 741 l 315 224 q 344 185 315 185 m 448 960 q 431 978 431 960 l 431 1019 l 279 1019 q 262 1037 262 1019 l 262 1075 q 283 1099 262 1099 l 467 1099 q 488 1090 479 1099 l 528 1049 q 536 1026 536 1040 l 536 978 q 519 960 536 960 l 448 960 z "},"Ơ":{"ha":797,"x_min":83,"x_max":826,"o":"m 262 0 q 234 12 246 0 l 95 151 q 83 178 83 162 l 83 748 q 95 776 83 764 l 234 915 q 262 926 246 926 l 535 926 q 563 915 551 926 l 701 776 q 713 748 713 764 l 713 178 q 701 151 713 162 l 563 12 q 535 0 551 0 l 262 0 m 344 185 l 453 185 q 482 224 482 185 l 482 701 q 453 741 482 741 l 344 741 q 315 701 315 741 l 315 224 q 344 185 315 185 m 561 811 q 529 822 540 811 q 517 847 517 833 l 517 908 q 535 926 517 926 l 698 926 l 698 994 q 715 1012 698 1012 l 809 1012 q 826 994 826 1012 l 826 884 q 818 863 826 871 l 778 821 q 758 811 771 811 l 561 811 z "},"Ớ":{"ha":797,"x_min":83,"x_max":826,"o":"m 262 0 q 234 12 246 0 l 95 151 q 83 178 83 162 l 83 748 q 95 776 83 764 l 234 915 q 262 926 246 926 l 535 926 q 563 915 551 926 l 701 776 q 713 748 713 764 l 713 178 q 701 151 713 162 l 563 12 q 535 0 551 0 l 262 0 m 344 185 l 453 185 q 482 224 482 185 l 482 701 q 453 741 482 741 l 344 741 q 315 701 315 741 l 315 224 q 344 185 315 185 m 561 811 q 529 822 540 811 q 517 847 517 833 l 517 908 q 535 926 517 926 l 698 926 l 698 994 q 715 1012 698 1012 l 809 1012 q 826 994 826 1012 l 826 884 q 818 863 826 871 l 778 821 q 758 811 771 811 l 561 811 m 322 960 q 303 966 309 953 l 279 1018 q 287 1039 274 1031 l 451 1145 q 469 1136 463 1153 l 509 1053 q 501 1035 515 1042 l 322 960 z "},"Ợ":{"ha":797,"x_min":83,"x_max":826,"o":"m 262 0 q 234 12 246 0 l 95 151 q 83 178 83 162 l 83 748 q 95 776 83 764 l 234 915 q 262 926 246 926 l 535 926 q 563 915 551 926 l 701 776 q 713 748 713 764 l 713 178 q 701 151 713 162 l 563 12 q 535 0 551 0 l 262 0 m 344 185 l 453 185 q 482 224 482 185 l 482 701 q 453 741 482 741 l 344 741 q 315 701 315 741 l 315 224 q 344 185 315 185 m 561 811 q 529 822 540 811 q 517 847 517 833 l 517 908 q 535 926 517 926 l 698 926 l 698 994 q 715 1012 698 1012 l 809 1012 q 826 994 826 1012 l 826 884 q 818 863 826 871 l 778 821 q 758 811 771 811 l 561 811 m 394 -175 q 344 -155 364 -175 q 324 -106 324 -135 q 344 -55 324 -75 q 394 -35 364 -35 q 444 -55 424 -35 q 463 -106 463 -75 q 444 -155 463 -135 q 394 -175 424 -175 z "},"Ờ":{"ha":797,"x_min":83,"x_max":826,"o":"m 262 0 q 234 12 246 0 l 95 151 q 83 178 83 162 l 83 748 q 95 776 83 764 l 234 915 q 262 926 246 926 l 535 926 q 563 915 551 926 l 701 776 q 713 748 713 764 l 713 178 q 701 151 713 162 l 563 12 q 535 0 551 0 l 262 0 m 344 185 l 453 185 q 482 224 482 185 l 482 701 q 453 741 482 741 l 344 741 q 315 701 315 741 l 315 224 q 344 185 315 185 m 561 811 q 529 822 540 811 q 517 847 517 833 l 517 908 q 535 926 517 926 l 698 926 l 698 994 q 715 1012 698 1012 l 809 1012 q 826 994 826 1012 l 826 884 q 818 863 826 871 l 778 821 q 758 811 771 811 l 561 811 m 465 960 l 286 1035 q 278 1053 273 1042 l 318 1136 q 337 1145 324 1153 l 501 1039 q 508 1018 513 1031 l 484 966 q 465 960 479 953 z "},"Ở":{"ha":797,"x_min":83,"x_max":826,"o":"m 262 0 q 234 12 246 0 l 95 151 q 83 178 83 162 l 83 748 q 95 776 83 764 l 234 915 q 262 926 246 926 l 535 926 q 563 915 551 926 l 701 776 q 713 748 713 764 l 713 178 q 701 151 713 162 l 563 12 q 535 0 551 0 l 262 0 m 344 185 l 453 185 q 482 224 482 185 l 482 701 q 453 741 482 741 l 344 741 q 315 701 315 741 l 315 224 q 344 185 315 185 m 561 811 q 529 822 540 811 q 517 847 517 833 l 517 908 q 535 926 517 926 l 698 926 l 698 994 q 715 1012 698 1012 l 809 1012 q 826 994 826 1012 l 826 884 q 818 863 826 871 l 778 821 q 758 811 771 811 l 561 811 m 442 960 q 425 978 425 960 l 425 1019 l 274 1019 q 256 1037 256 1019 l 256 1075 q 277 1099 256 1099 l 462 1099 q 483 1090 474 1099 l 522 1049 q 531 1026 531 1040 l 531 978 q 513 960 531 960 l 442 960 z "},"Ỡ":{"ha":797,"x_min":83,"x_max":826,"o":"m 262 0 q 234 12 246 0 l 95 151 q 83 178 83 162 l 83 748 q 95 776 83 764 l 234 915 q 262 926 246 926 l 535 926 q 563 915 551 926 l 701 776 q 713 748 713 764 l 713 178 q 701 151 713 162 l 563 12 q 535 0 551 0 l 262 0 m 344 185 l 453 185 q 482 224 482 185 l 482 701 q 453 741 482 741 l 344 741 q 315 701 315 741 l 315 224 q 344 185 315 185 m 561 811 q 529 822 540 811 q 517 847 517 833 l 517 908 q 535 926 517 926 l 698 926 l 698 994 q 715 1012 698 1012 l 809 1012 q 826 994 826 1012 l 826 884 q 818 863 826 871 l 778 821 q 758 811 771 811 l 561 811 m 256 960 q 247 979 240 960 l 292 1088 q 306 1099 299 1099 l 403 1099 q 415 1088 410 1099 l 433 1038 l 451 1088 q 476 1099 457 1099 l 531 1099 q 540 1080 547 1099 l 498 972 q 484 960 494 960 l 388 960 q 376 972 381 960 l 363 1025 l 330 972 q 306 960 323 960 l 256 960 z "},"Ő":{"ha":797,"x_min":83,"x_max":713,"o":"m 262 0 q 234 12 246 0 l 95 151 q 83 178 83 162 l 83 748 q 95 776 83 764 l 234 915 q 262 926 246 926 l 535 926 q 563 915 551 926 l 701 776 q 713 748 713 764 l 713 178 q 701 151 713 162 l 563 12 q 535 0 551 0 l 262 0 m 344 185 l 453 185 q 482 224 482 185 l 482 701 q 453 741 482 741 l 344 741 q 315 701 315 741 l 315 224 q 344 185 315 185 m 440 983 q 425 989 431 983 q 422 1000 419 994 l 467 1081 q 497 1099 478 1099 l 601 1099 q 618 1093 612 1099 q 618 1081 624 1087 l 540 1000 q 506 983 526 983 l 440 983 m 295 983 q 278 1000 278 983 l 278 1081 q 295 1099 278 1099 l 410 1099 q 426 1094 421 1099 q 428 1081 431 1088 l 384 1000 q 355 983 374 983 l 295 983 z "},"Ȏ":{"ha":797,"x_min":83,"x_max":713,"o":"m 262 0 q 234 12 246 0 l 95 151 q 83 178 83 162 l 83 748 q 95 776 83 764 l 234 915 q 262 926 246 926 l 535 926 q 563 915 551 926 l 701 776 q 713 748 713 764 l 713 178 q 701 151 713 162 l 563 12 q 535 0 551 0 l 262 0 m 344 185 l 453 185 q 482 224 482 185 l 482 701 q 453 741 482 741 l 344 741 q 315 701 315 741 l 315 224 q 344 185 315 185 m 315 1099 l 484 1099 q 505 1089 497 1099 l 533 1049 q 540 1028 540 1040 l 540 978 q 523 960 540 960 l 449 960 q 432 978 432 960 l 432 1021 l 367 1021 l 367 978 q 349 960 367 960 l 276 960 q 258 978 258 960 l 258 1028 q 265 1049 258 1040 l 294 1089 q 315 1099 301 1099 z "},"Ō":{"ha":797,"x_min":83,"x_max":713,"o":"m 262 0 q 234 12 246 0 l 95 151 q 83 178 83 162 l 83 748 q 95 776 83 764 l 234 915 q 262 926 246 926 l 535 926 q 563 915 551 926 l 701 776 q 713 748 713 764 l 713 178 q 701 151 713 162 l 563 12 q 535 0 551 0 l 262 0 m 344 185 l 453 185 q 482 224 482 185 l 482 701 q 453 741 482 741 l 344 741 q 315 701 315 741 l 315 224 q 344 185 315 185 m 276 1007 q 258 1024 258 1007 l 258 1059 q 276 1076 258 1076 l 519 1076 q 537 1059 537 1076 l 537 1024 q 519 1007 537 1007 l 276 1007 z "},"Ṓ":{"ha":797,"x_min":83,"x_max":713,"o":"m 262 0 q 234 12 246 0 l 95 151 q 83 178 83 162 l 83 748 q 95 776 83 764 l 234 915 q 262 926 246 926 l 535 926 q 563 915 551 926 l 701 776 q 713 748 713 764 l 713 178 q 701 151 713 162 l 563 12 q 535 0 551 0 l 262 0 m 344 185 l 453 185 q 482 224 482 185 l 482 701 q 453 741 482 741 l 344 741 q 315 701 315 741 l 315 224 q 344 185 315 185 m 276 1007 q 258 1024 258 1007 l 258 1059 q 276 1076 258 1076 l 519 1076 q 537 1059 537 1076 l 537 1024 q 519 1007 537 1007 l 276 1007 m 328 1133 q 309 1140 315 1127 l 285 1192 q 292 1213 280 1204 l 456 1319 q 475 1310 469 1326 l 515 1227 q 507 1208 520 1215 l 328 1133 z "},"Ṑ":{"ha":797,"x_min":83,"x_max":713,"o":"m 262 0 q 234 12 246 0 l 95 151 q 83 178 83 162 l 83 748 q 95 776 83 764 l 234 915 q 262 926 246 926 l 535 926 q 563 915 551 926 l 701 776 q 713 748 713 764 l 713 178 q 701 151 713 162 l 563 12 q 535 0 551 0 l 262 0 m 344 185 l 453 185 q 482 224 482 185 l 482 701 q 453 741 482 741 l 344 741 q 315 701 315 741 l 315 224 q 344 185 315 185 m 276 1007 q 258 1024 258 1007 l 258 1059 q 276 1076 258 1076 l 519 1076 q 537 1059 537 1076 l 537 1024 q 519 1007 537 1007 l 276 1007 m 471 1133 l 292 1208 q 284 1227 278 1215 l 324 1310 q 342 1319 330 1326 l 506 1213 q 514 1192 519 1204 l 490 1140 q 471 1133 485 1127 z "},"Ꞷ":{"ha":1174,"x_min":83,"x_max":1090,"o":"m 262 0 q 234 12 246 0 l 95 151 q 83 178 83 162 l 83 783 q 95 810 83 799 l 199 915 q 227 926 211 926 l 298 926 q 315 908 315 926 l 315 266 l 472 266 l 472 908 q 489 926 472 926 l 685 926 q 703 908 703 926 l 703 266 l 859 266 l 859 908 q 876 926 859 926 l 947 926 q 975 915 963 926 l 1079 810 q 1090 783 1090 799 l 1090 178 q 1079 151 1090 162 l 940 12 q 913 0 928 0 l 736 0 q 708 12 720 0 l 592 128 l 583 128 l 465 12 q 438 0 454 0 l 262 0 z "},"Ǫ":{"ha":797,"x_min":83,"x_max":713,"o":"m 262 0 q 234 12 246 0 l 95 151 q 83 178 83 162 l 83 748 q 95 776 83 764 l 234 915 q 262 926 246 926 l 535 926 q 563 915 551 926 l 701 776 q 713 748 713 764 l 713 178 q 701 151 713 162 l 563 12 q 535 0 551 0 l 262 0 m 344 185 l 453 185 q 482 224 482 185 l 482 701 q 453 741 482 741 l 344 741 q 315 701 315 741 l 315 224 q 344 185 315 185 m 460 -208 q 453 -206 455 -208 l 389 -175 q 385 -168 385 -173 l 385 -48 q 389 -41 385 -42 l 453 4 q 460 6 455 6 l 529 6 q 535 0 535 6 l 535 -58 q 531 -65 535 -62 l 481 -88 q 477 -94 477 -90 l 477 -111 q 481 -117 477 -115 l 531 -137 q 535 -144 535 -138 l 535 -201 q 529 -208 535 -208 l 460 -208 z "},"Ǭ":{"ha":797,"x_min":83,"x_max":713,"o":"m 262 0 q 234 12 246 0 l 95 151 q 83 178 83 162 l 83 748 q 95 776 83 764 l 234 915 q 262 926 246 926 l 535 926 q 563 915 551 926 l 701 776 q 713 748 713 764 l 713 178 q 701 151 713 162 l 563 12 q 535 0 551 0 l 262 0 m 344 185 l 453 185 q 482 224 482 185 l 482 701 q 453 741 482 741 l 344 741 q 315 701 315 741 l 315 224 q 344 185 315 185 m 460 -208 q 453 -206 455 -208 l 389 -175 q 385 -168 385 -173 l 385 -48 q 389 -41 385 -42 l 453 4 q 460 6 455 6 l 529 6 q 535 0 535 6 l 535 -58 q 531 -65 535 -62 l 481 -88 q 477 -94 477 -90 l 477 -111 q 481 -117 477 -115 l 531 -137 q 535 -144 535 -138 l 535 -201 q 529 -208 535 -208 l 460 -208 m 276 1007 q 258 1024 258 1007 l 258 1059 q 276 1076 258 1076 l 519 1076 q 537 1059 537 1076 l 537 1024 q 519 1007 537 1007 l 276 1007 z "},"Ɔ":{"ha":585,"x_min":51,"x_max":507,"o":"m 240 0 l 68 0 q 51 17 51 0 l 51 132 q 52 142 51 138 q 59 151 54 147 l 188 240 l 275 349 l 275 576 l 190 686 l 59 776 q 52 786 53 780 q 51 797 51 792 l 51 908 q 68 926 51 926 l 240 926 q 256 924 251 926 q 267 917 260 923 l 389 802 l 495 665 q 505 653 502 656 q 507 640 507 650 l 507 286 q 505 274 507 276 q 495 262 503 272 l 381 113 l 267 9 q 240 0 256 0 z "},"Ø":{"ha":797,"x_min":5,"x_max":774,"o":"m 26 -3 q 11 2 17 -3 q 11 16 5 7 l 232 351 l 277 419 l 507 767 l 535 810 l 601 910 q 610 923 607 920 q 619 926 614 926 l 755 926 q 770 920 765 926 q 769 907 774 915 l 591 636 l 560 590 l 288 176 l 259 133 l 181 14 q 173 2 176 6 q 162 -3 169 -3 l 26 -3 m 262 0 q 234 12 246 0 l 95 151 q 83 178 83 162 l 83 748 q 95 776 83 764 l 234 915 q 262 926 246 926 l 535 926 q 563 915 551 926 l 701 776 q 713 748 713 764 l 713 178 q 701 151 713 162 l 563 12 q 535 0 551 0 l 262 0 m 344 185 l 453 185 q 482 224 482 185 l 482 701 q 453 741 482 741 l 344 741 q 315 701 315 741 l 315 224 q 344 185 315 185 z "},"Ǿ":{"ha":797,"x_min":5,"x_max":774,"o":"m 26 -3 q 11 2 17 -3 q 11 16 5 7 l 232 351 l 277 419 l 507 767 l 535 810 l 601 910 q 610 923 607 920 q 619 926 614 926 l 755 926 q 770 920 765 926 q 769 907 774 915 l 591 636 l 560 590 l 288 176 l 259 133 l 181 14 q 173 2 176 6 q 162 -3 169 -3 l 26 -3 m 262 0 q 234 12 246 0 l 95 151 q 83 178 83 162 l 83 748 q 95 776 83 764 l 234 915 q 262 926 246 926 l 535 926 q 563 915 551 926 l 701 776 q 713 748 713 764 l 713 178 q 701 151 713 162 l 563 12 q 535 0 551 0 l 262 0 m 344 185 l 453 185 q 482 224 482 185 l 482 701 q 453 741 482 741 l 344 741 q 315 701 315 741 l 315 224 q 344 185 315 185 m 341 960 q 322 966 328 953 l 298 1018 q 306 1039 293 1031 l 469 1145 q 488 1136 482 1153 l 528 1053 q 520 1035 533 1042 l 341 960 z "},"Õ":{"ha":797,"x_min":83,"x_max":713,"o":"m 262 0 q 234 12 246 0 l 95 151 q 83 178 83 162 l 83 748 q 95 776 83 764 l 234 915 q 262 926 246 926 l 535 926 q 563 915 551 926 l 701 776 q 713 748 713 764 l 713 178 q 701 151 713 162 l 563 12 q 535 0 551 0 l 262 0 m 344 185 l 453 185 q 482 224 482 185 l 482 701 q 453 741 482 741 l 344 741 q 315 701 315 741 l 315 224 q 344 185 315 185 m 261 960 q 252 979 246 960 l 297 1088 q 311 1099 305 1099 l 408 1099 q 420 1088 416 1099 l 438 1038 l 457 1088 q 481 1099 463 1099 l 537 1099 q 546 1080 552 1099 l 503 972 q 490 960 499 960 l 393 960 q 382 972 386 960 l 369 1025 l 335 972 q 311 960 328 960 l 261 960 z "},"Ṍ":{"ha":797,"x_min":83,"x_max":713,"o":"m 262 0 q 234 12 246 0 l 95 151 q 83 178 83 162 l 83 748 q 95 776 83 764 l 234 915 q 262 926 246 926 l 535 926 q 563 915 551 926 l 701 776 q 713 748 713 764 l 713 178 q 701 151 713 162 l 563 12 q 535 0 551 0 l 262 0 m 344 185 l 453 185 q 482 224 482 185 l 482 701 q 453 741 482 741 l 344 741 q 315 701 315 741 l 315 224 q 344 185 315 185 m 261 960 q 252 979 246 960 l 297 1088 q 311 1099 305 1099 l 408 1099 q 420 1088 416 1099 l 438 1038 l 457 1088 q 481 1099 463 1099 l 537 1099 q 546 1080 552 1099 l 503 972 q 490 960 499 960 l 393 960 q 382 972 386 960 l 369 1025 l 335 972 q 311 960 328 960 l 261 960 m 328 1133 q 309 1140 315 1127 l 285 1192 q 292 1213 280 1204 l 456 1319 q 475 1310 469 1326 l 515 1227 q 507 1208 520 1215 l 328 1133 z "},"Ṏ":{"ha":797,"x_min":83,"x_max":713,"o":"m 262 0 q 234 12 246 0 l 95 151 q 83 178 83 162 l 83 748 q 95 776 83 764 l 234 915 q 262 926 246 926 l 535 926 q 563 915 551 926 l 701 776 q 713 748 713 764 l 713 178 q 701 151 713 162 l 563 12 q 535 0 551 0 l 262 0 m 344 185 l 453 185 q 482 224 482 185 l 482 701 q 453 741 482 741 l 344 741 q 315 701 315 741 l 315 224 q 344 185 315 185 m 261 960 q 252 979 246 960 l 297 1088 q 311 1099 305 1099 l 408 1099 q 420 1088 416 1099 l 438 1038 l 457 1088 q 481 1099 463 1099 l 537 1099 q 546 1080 552 1099 l 503 972 q 490 960 499 960 l 393 960 q 382 972 386 960 l 369 1025 l 335 972 q 311 960 328 960 l 261 960 m 197 1157 q 183 1171 183 1157 l 183 1259 q 197 1273 183 1273 l 363 1273 q 375 1259 375 1273 l 375 1171 q 363 1157 375 1157 l 197 1157 m 437 1157 q 423 1171 423 1157 l 423 1259 q 437 1273 423 1273 l 602 1273 q 615 1259 615 1273 l 615 1171 q 602 1157 615 1157 l 437 1157 z "},"Ȭ":{"ha":797,"x_min":83,"x_max":713,"o":"m 262 0 q 234 12 246 0 l 95 151 q 83 178 83 162 l 83 748 q 95 776 83 764 l 234 915 q 262 926 246 926 l 535 926 q 563 915 551 926 l 701 776 q 713 748 713 764 l 713 178 q 701 151 713 162 l 563 12 q 535 0 551 0 l 262 0 m 344 185 l 453 185 q 482 224 482 185 l 482 701 q 453 741 482 741 l 344 741 q 315 701 315 741 l 315 224 q 344 185 315 185 m 261 960 q 252 979 246 960 l 297 1088 q 311 1099 305 1099 l 408 1099 q 420 1088 416 1099 l 438 1038 l 457 1088 q 481 1099 463 1099 l 537 1099 q 546 1080 552 1099 l 503 972 q 490 960 499 960 l 393 960 q 382 972 386 960 l 369 1025 l 335 972 q 311 960 328 960 l 261 960 m 276 1181 q 258 1198 258 1181 l 258 1233 q 276 1250 258 1250 l 519 1250 q 537 1233 537 1250 l 537 1198 q 519 1181 537 1181 l 276 1181 z "},"Œ":{"ha":1083,"x_min":83,"x_max":1000,"o":"m 262 0 q 234 12 246 0 l 95 151 q 83 178 83 162 l 83 748 q 95 776 83 764 l 234 915 q 262 926 246 926 l 983 926 q 1000 908 1000 926 l 1000 758 q 983 741 1000 741 l 713 741 l 713 544 l 960 544 q 977 526 977 544 l 977 399 q 960 382 977 382 l 713 382 l 713 185 l 983 185 q 1000 168 1000 185 l 1000 17 q 983 0 1000 0 l 262 0 m 344 185 l 453 185 q 482 224 482 185 l 482 701 q 453 741 482 741 l 344 741 q 315 701 315 741 l 315 224 q 344 185 315 185 z "},"P":{"ha":692,"x_min":83,"x_max":663,"o":"m 101 0 q 83 17 83 0 l 83 908 q 101 926 83 926 l 485 926 q 513 915 501 926 l 651 776 q 663 748 663 764 l 663 508 q 651 481 663 492 l 513 342 q 485 330 501 330 l 315 330 l 315 17 q 297 0 315 0 l 101 0 m 367 519 q 445 542 424 519 q 467 628 467 565 q 445 715 467 692 q 367 738 424 738 q 289 715 310 738 q 267 628 267 692 q 289 542 267 565 q 367 519 310 519 z "},"Ṕ":{"ha":692,"x_min":83,"x_max":663,"o":"m 101 0 q 83 17 83 0 l 83 908 q 101 926 83 926 l 485 926 q 513 915 501 926 l 651 776 q 663 748 663 764 l 663 508 q 651 481 663 492 l 513 342 q 485 330 501 330 l 315 330 l 315 17 q 297 0 315 0 l 101 0 m 367 519 q 445 542 424 519 q 467 628 467 565 q 445 715 467 692 q 367 738 424 738 q 289 715 310 738 q 267 628 267 692 q 289 542 267 565 q 367 519 310 519 m 233 960 q 214 966 219 953 l 190 1018 q 197 1039 185 1031 l 361 1145 q 380 1136 374 1153 l 419 1053 q 412 1035 425 1042 l 233 960 z "},"Ṗ":{"ha":692,"x_min":83,"x_max":663,"o":"m 101 0 q 83 17 83 0 l 83 908 q 101 926 83 926 l 485 926 q 513 915 501 926 l 651 776 q 663 748 663 764 l 663 508 q 651 481 663 492 l 513 342 q 485 330 501 330 l 315 330 l 315 17 q 297 0 315 0 l 101 0 m 367 519 q 445 542 424 519 q 467 628 467 565 q 445 715 467 692 q 367 738 424 738 q 289 715 310 738 q 267 628 267 692 q 289 542 267 565 q 367 519 310 519 m 304 963 q 255 983 274 963 q 235 1033 235 1003 q 255 1083 235 1063 q 304 1103 274 1103 q 354 1083 335 1103 q 374 1033 374 1063 q 354 983 374 1003 q 304 963 335 963 z "},"Ƥ":{"ha":965,"x_min":83,"x_max":935,"o":"m 104 642 q 83 665 83 642 l 83 835 q 92 863 83 853 l 141 915 q 168 926 151 926 l 373 926 l 373 779 l 235 779 l 235 665 q 213 642 235 642 l 104 642 m 373 0 q 356 17 356 0 l 356 908 q 373 926 356 926 l 757 926 q 785 915 774 926 l 924 776 q 935 748 935 764 l 935 508 q 924 481 935 492 l 785 342 q 757 330 774 330 l 587 330 l 587 17 q 569 0 587 0 l 373 0 m 639 519 q 718 542 697 519 q 739 628 739 565 q 718 715 739 692 q 639 738 697 738 q 561 715 582 738 q 540 628 540 692 q 561 542 540 565 q 639 519 582 519 z "},"Þ":{"ha":656,"x_min":83,"x_max":626,"o":"m 102 0 q 83 19 83 0 l 83 908 q 102 926 83 926 l 297 926 q 315 908 315 926 l 315 683 l 269 729 l 499 729 q 519 721 513 729 l 620 617 q 626 599 626 611 l 626 308 q 620 290 626 295 l 519 185 q 499 177 513 177 l 269 177 l 315 224 l 315 19 q 297 0 315 0 l 102 0 m 337 353 q 415 376 394 353 q 436 463 436 399 q 415 550 436 527 q 337 573 394 573 q 259 550 280 573 q 238 463 238 527 q 259 376 238 399 q 337 353 280 353 z "},"Ᵽ":{"ha":696,"x_min":35,"x_max":694,"o":"m 51 568 q 35 585 35 568 l 35 668 q 51 684 35 684 l 238 684 l 238 661 l 522 661 l 522 684 l 678 684 q 694 668 694 684 l 694 585 q 678 568 694 568 l 522 568 l 522 592 l 238 592 l 238 568 l 51 568 m 103 0 q 85 17 85 0 l 85 908 q 103 926 85 926 l 487 926 q 515 915 503 926 l 653 776 q 665 748 665 764 l 665 508 q 653 481 665 492 l 515 342 q 487 330 503 330 l 317 330 l 317 17 q 299 0 317 0 l 103 0 m 369 519 q 448 542 426 519 q 469 628 469 565 q 448 715 469 692 q 369 738 426 738 q 291 715 312 738 q 269 628 269 692 q 291 542 269 565 q 369 519 312 519 z "},"Q":{"ha":803,"x_min":83,"x_max":720,"o":"m 262 0 q 234 12 245 0 l 95 151 q 83 178 83 162 l 83 748 q 95 776 83 764 l 234 915 q 262 926 245 926 l 542 926 q 569 915 558 926 l 708 776 q 720 748 720 764 l 720 178 q 708 151 720 162 l 569 12 q 542 0 558 0 l 262 0 m 335 -116 q 318 -99 318 -116 l 318 0 l 495 0 l 526 -89 q 523 -108 529 -99 q 506 -116 516 -116 l 335 -116 m 353 185 l 450 185 q 479 224 479 185 l 479 701 q 450 741 479 741 l 353 741 q 324 701 324 741 l 324 224 q 353 185 324 185 z "},"Ɋ":{"ha":910,"x_min":83,"x_max":826,"o":"m 678 -290 q 651 -278 663 -290 l 500 -127 q 489 -99 489 -116 l 489 85 l 419 15 q 392 3 408 3 l 262 3 q 234 15 246 3 l 95 154 q 83 182 83 165 l 83 748 q 95 776 83 764 l 234 915 q 262 926 246 926 l 691 926 q 708 908 708 926 l 708 0 q 717 -22 708 -12 l 819 -125 q 826 -146 826 -131 l 826 -272 q 809 -290 826 -290 l 678 -290 m 344 189 l 477 189 l 477 741 l 344 741 q 315 701 315 741 l 315 228 q 344 189 315 189 z "},"R":{"ha":717,"x_min":83,"x_max":689,"o":"m 101 0 q 83 17 83 0 l 83 908 q 101 926 83 926 l 477 926 q 505 917 494 926 l 665 758 q 674 747 672 751 q 676 731 676 742 l 676 540 q 669 524 676 531 l 592 450 l 528 394 l 604 293 l 683 125 q 687 113 685 119 q 689 99 689 107 l 689 17 q 672 0 689 0 l 488 0 q 467 14 473 0 l 356 339 l 303 339 l 303 17 q 286 0 303 0 l 101 0 m 380 509 q 458 533 438 509 q 479 623 479 557 q 458 714 479 690 q 380 738 438 738 q 301 714 323 738 q 280 623 280 690 q 301 533 280 557 q 380 509 323 509 z "},"Ŕ":{"ha":717,"x_min":83,"x_max":689,"o":"m 101 0 q 83 17 83 0 l 83 908 q 101 926 83 926 l 477 926 q 505 917 494 926 l 665 758 q 674 747 672 751 q 676 731 676 742 l 676 540 q 669 524 676 531 l 592 450 l 528 394 l 604 293 l 683 125 q 687 113 685 119 q 689 99 689 107 l 689 17 q 672 0 689 0 l 488 0 q 467 14 473 0 l 356 339 l 303 339 l 303 17 q 286 0 303 0 l 101 0 m 380 509 q 458 533 438 509 q 479 623 479 557 q 458 714 479 690 q 380 738 438 738 q 301 714 323 738 q 280 623 280 690 q 301 533 280 557 q 380 509 323 509 m 270 960 q 251 966 257 953 l 227 1018 q 235 1039 222 1031 l 399 1145 q 417 1136 411 1153 l 457 1053 q 449 1035 463 1042 l 270 960 z "},"Ř":{"ha":717,"x_min":83,"x_max":689,"o":"m 101 0 q 83 17 83 0 l 83 908 q 101 926 83 926 l 477 926 q 505 917 494 926 l 665 758 q 674 747 672 751 q 676 731 676 742 l 676 540 q 669 524 676 531 l 592 450 l 528 394 l 604 293 l 683 125 q 687 113 685 119 q 689 99 689 107 l 689 17 q 672 0 689 0 l 488 0 q 467 14 473 0 l 356 339 l 303 339 l 303 17 q 286 0 303 0 l 101 0 m 380 509 q 458 533 438 509 q 479 623 479 557 q 458 714 479 690 q 380 738 438 738 q 301 714 323 738 q 280 623 280 690 q 301 533 280 557 q 380 509 323 509 m 274 960 q 255 971 259 960 l 198 1081 q 197 1094 194 1088 q 210 1099 201 1099 l 300 1099 q 317 1087 309 1099 l 335 1052 l 338 1038 l 342 1038 l 346 1052 l 365 1087 q 382 1099 372 1099 l 472 1099 q 485 1094 481 1099 q 484 1081 488 1088 l 426 971 q 406 960 422 960 l 274 960 z "},"ř":{"ha":717,"x_min":83,"x_max":689,"o":"m 101 0 q 83 17 83 0 l 83 908 q 101 926 83 926 l 477 926 q 505 917 494 926 l 665 758 q 674 747 672 751 q 676 731 676 742 l 676 540 q 669 524 676 531 l 592 450 l 528 394 l 604 293 l 683 125 q 687 113 685 119 q 689 99 689 107 l 689 17 q 672 0 689 0 l 488 0 q 467 14 473 0 l 356 339 l 303 339 l 303 17 q 286 0 303 0 l 101 0 m 380 509 q 458 533 438 509 q 479 623 479 557 q 458 714 479 690 q 380 738 438 738 q 301 714 323 738 q 280 623 280 690 q 301 533 280 557 q 380 509 323 509 m 274 960 q 255 971 259 960 l 198 1081 q 197 1094 194 1088 q 210 1099 201 1099 l 300 1099 q 317 1087 309 1099 l 335 1052 l 338 1038 l 342 1038 l 346 1052 l 365 1087 q 382 1099 372 1099 l 472 1099 q 485 1094 481 1099 q 484 1081 488 1088 l 426 971 q 406 960 422 960 l 274 960 z "},"Ŗ":{"ha":717,"x_min":83,"x_max":689,"o":"m 101 0 q 83 17 83 0 l 83 908 q 101 926 83 926 l 477 926 q 505 917 494 926 l 665 758 q 674 747 672 751 q 676 731 676 742 l 676 540 q 669 524 676 531 l 592 450 l 528 394 l 604 293 l 683 125 q 687 113 685 119 q 689 99 689 107 l 689 17 q 672 0 689 0 l 488 0 q 467 14 473 0 l 356 339 l 303 339 l 303 17 q 286 0 303 0 l 101 0 m 380 509 q 458 533 438 509 q 479 623 479 557 q 458 714 479 690 q 380 738 438 738 q 301 714 323 738 q 280 623 280 690 q 301 533 280 557 q 380 509 323 509 m 322 -208 q 313 -199 313 -208 l 313 -149 q 322 -140 313 -140 l 360 -140 q 371 -131 371 -140 l 371 -109 l 313 -109 q 304 -99 304 -106 l 305 -44 q 315 -35 305 -35 l 450 -35 q 459 -44 459 -35 l 459 -130 q 440 -189 459 -169 q 390 -208 421 -208 l 322 -208 z "},"Ȑ":{"ha":717,"x_min":83,"x_max":689,"o":"m 101 0 q 83 17 83 0 l 83 908 q 101 926 83 926 l 477 926 q 505 917 494 926 l 665 758 q 674 747 672 751 q 676 731 676 742 l 676 540 q 669 524 676 531 l 592 450 l 528 394 l 604 293 l 683 125 q 687 113 685 119 q 689 99 689 107 l 689 17 q 672 0 689 0 l 488 0 q 467 14 473 0 l 356 339 l 303 339 l 303 17 q 286 0 303 0 l 101 0 m 380 509 q 458 533 438 509 q 479 623 479 557 q 458 714 479 690 q 380 738 438 738 q 301 714 323 738 q 280 623 280 690 q 301 533 280 557 q 380 509 323 509 m 413 972 q 396 978 401 967 l 322 1137 q 328 1154 317 1149 l 429 1193 q 447 1187 444 1200 l 493 1017 q 486 998 497 1003 l 413 972 m 240 956 q 224 963 229 951 l 149 1121 q 156 1138 144 1133 l 257 1177 q 275 1171 272 1184 l 321 1001 q 314 982 324 987 l 240 956 z "},"Ṙ":{"ha":717,"x_min":83,"x_max":689,"o":"m 101 0 q 83 17 83 0 l 83 908 q 101 926 83 926 l 477 926 q 505 917 494 926 l 665 758 q 674 747 672 751 q 676 731 676 742 l 676 540 q 669 524 676 531 l 592 450 l 528 394 l 604 293 l 683 125 q 687 113 685 119 q 689 99 689 107 l 689 17 q 672 0 689 0 l 488 0 q 467 14 473 0 l 356 339 l 303 339 l 303 17 q 286 0 303 0 l 101 0 m 380 509 q 458 533 438 509 q 479 623 479 557 q 458 714 479 690 q 380 738 438 738 q 301 714 323 738 q 280 623 280 690 q 301 533 280 557 q 380 509 323 509 m 342 963 q 292 983 312 963 q 272 1033 272 1003 q 292 1083 272 1063 q 342 1103 312 1103 q 392 1083 372 1103 q 411 1033 411 1063 q 392 983 411 1003 q 342 963 372 963 z "},"Ṛ":{"ha":717,"x_min":83,"x_max":689,"o":"m 101 0 q 83 17 83 0 l 83 908 q 101 926 83 926 l 477 926 q 505 917 494 926 l 665 758 q 674 747 672 751 q 676 731 676 742 l 676 540 q 669 524 676 531 l 592 450 l 528 394 l 604 293 l 683 125 q 687 113 685 119 q 689 99 689 107 l 689 17 q 672 0 689 0 l 488 0 q 467 14 473 0 l 356 339 l 303 339 l 303 17 q 286 0 303 0 l 101 0 m 380 509 q 458 533 438 509 q 479 623 479 557 q 458 714 479 690 q 380 738 438 738 q 301 714 323 738 q 280 623 280 690 q 301 533 280 557 q 380 509 323 509 m 381 -175 q 332 -155 351 -175 q 312 -106 312 -135 q 332 -55 312 -75 q 381 -35 351 -35 q 431 -55 412 -35 q 451 -106 451 -75 q 431 -155 451 -135 q 381 -175 412 -175 z "},"Ṝ":{"ha":717,"x_min":83,"x_max":689,"o":"m 101 0 q 83 17 83 0 l 83 908 q 101 926 83 926 l 477 926 q 505 917 494 926 l 665 758 q 674 747 672 751 q 676 731 676 742 l 676 540 q 669 524 676 531 l 592 450 l 528 394 l 604 293 l 683 125 q 687 113 685 119 q 689 99 689 107 l 689 17 q 672 0 689 0 l 488 0 q 467 14 473 0 l 356 339 l 303 339 l 303 17 q 286 0 303 0 l 101 0 m 380 509 q 458 533 438 509 q 479 623 479 557 q 458 714 479 690 q 380 738 438 738 q 301 714 323 738 q 280 623 280 690 q 301 533 280 557 q 380 509 323 509 m 381 -175 q 332 -155 351 -175 q 312 -106 312 -135 q 332 -55 312 -75 q 381 -35 351 -35 q 431 -55 412 -35 q 451 -106 451 -75 q 431 -155 451 -135 q 381 -175 412 -175 m 218 1007 q 201 1024 201 1007 l 201 1059 q 218 1076 201 1076 l 462 1076 q 479 1059 479 1076 l 479 1024 q 462 1007 479 1007 l 218 1007 z "},"Ȓ":{"ha":717,"x_min":83,"x_max":689,"o":"m 101 0 q 83 17 83 0 l 83 908 q 101 926 83 926 l 477 926 q 505 917 494 926 l 665 758 q 674 747 672 751 q 676 731 676 742 l 676 540 q 669 524 676 531 l 592 450 l 528 394 l 604 293 l 683 125 q 687 113 685 119 q 689 99 689 107 l 689 17 q 672 0 689 0 l 488 0 q 467 14 473 0 l 356 339 l 303 339 l 303 17 q 286 0 303 0 l 101 0 m 380 509 q 458 533 438 509 q 479 623 479 557 q 458 714 479 690 q 380 738 438 738 q 301 714 323 738 q 280 623 280 690 q 301 533 280 557 q 380 509 323 509 m 257 1099 l 426 1099 q 447 1089 440 1099 l 476 1049 q 483 1028 483 1040 l 483 978 q 465 960 483 960 l 392 960 q 374 978 374 960 l 374 1021 l 309 1021 l 309 978 q 292 960 309 960 l 218 960 q 201 978 201 960 l 201 1028 q 208 1049 201 1040 l 236 1089 q 257 1099 244 1099 z "},"Ṟ":{"ha":717,"x_min":83,"x_max":689,"o":"m 101 0 q 83 17 83 0 l 83 908 q 101 926 83 926 l 477 926 q 505 917 494 926 l 665 758 q 674 747 672 751 q 676 731 676 742 l 676 540 q 669 524 676 531 l 592 450 l 528 394 l 604 293 l 683 125 q 687 113 685 119 q 689 99 689 107 l 689 17 q 672 0 689 0 l 488 0 q 467 14 473 0 l 356 339 l 303 339 l 303 17 q 286 0 303 0 l 101 0 m 380 509 q 458 533 438 509 q 479 623 479 557 q 458 714 479 690 q 380 738 438 738 q 301 714 323 738 q 280 623 280 690 q 301 533 280 557 q 380 509 323 509 m 259 -104 q 242 -87 242 -104 l 242 -52 q 259 -35 242 -35 l 503 -35 q 520 -52 520 -35 l 520 -87 q 503 -104 520 -104 l 259 -104 z "},"Ɍ":{"ha":791,"x_min":76,"x_max":763,"o":"m 175 0 q 158 17 158 0 l 158 339 l 94 339 q 76 356 76 339 l 76 488 q 94 505 76 505 l 158 505 l 158 908 q 175 926 158 926 l 551 926 q 579 917 568 926 l 739 758 q 748 747 747 751 q 750 731 750 742 l 750 540 q 743 524 750 531 l 667 450 l 602 394 l 678 293 l 757 125 q 761 113 760 119 q 763 99 763 107 l 763 17 q 746 0 763 0 l 563 0 q 542 14 547 0 l 430 339 l 378 339 l 378 17 q 360 0 378 0 l 175 0 m 454 509 q 533 533 512 509 q 553 623 553 557 q 533 714 553 690 q 454 738 512 738 q 376 714 397 738 q 354 623 354 690 q 376 533 354 557 q 454 509 397 509 z "},"Ɽ":{"ha":717,"x_min":83,"x_max":689,"o":"m 208 -181 q 163 -165 180 -181 l 103 -108 q 83 -66 83 -90 l 83 908 q 101 926 83 926 l 477 926 q 505 917 494 926 l 665 758 q 674 747 672 751 q 676 731 676 742 l 676 540 q 669 524 676 531 l 592 450 l 528 394 l 604 293 l 683 125 q 687 113 685 119 q 689 99 689 107 l 689 17 q 672 0 689 0 l 500 0 q 479 14 485 0 l 367 339 l 315 339 l 315 -158 q 290 -181 315 -181 l 208 -181 m 380 509 q 458 533 438 509 q 479 623 479 557 q 458 714 479 690 q 380 738 438 738 q 301 714 323 738 q 280 623 280 690 q 301 533 280 557 q 380 509 323 509 z "},"S":{"ha":552,"x_min":63,"x_max":490,"o":"m 80 0 q 63 17 63 0 l 63 148 q 64 163 63 157 q 72 172 65 168 l 253 255 l 253 378 l 74 490 q 63 510 63 497 l 63 765 q 64 782 63 776 q 74 793 65 787 l 257 917 q 270 923 264 921 q 285 926 276 926 l 472 926 q 490 908 490 926 l 490 790 q 479 769 490 775 l 297 694 l 297 566 l 479 462 q 490 440 490 457 l 490 138 q 488 126 490 132 q 481 117 486 119 l 263 8 q 252 3 258 6 q 241 0 247 0 l 80 0 z "},"Ś":{"ha":552,"x_min":63,"x_max":490,"o":"m 80 0 q 63 17 63 0 l 63 148 q 64 163 63 157 q 72 172 65 168 l 253 255 l 253 378 l 74 490 q 63 510 63 497 l 63 765 q 64 782 63 776 q 74 793 65 787 l 257 917 q 270 923 264 921 q 285 926 276 926 l 472 926 q 490 908 490 926 l 490 790 q 479 769 490 775 l 297 694 l 297 566 l 479 462 q 490 440 490 457 l 490 138 q 488 126 490 132 q 481 117 486 119 l 263 8 q 252 3 258 6 q 241 0 247 0 l 80 0 m 257 960 q 238 966 244 953 l 214 1018 q 222 1039 209 1031 l 385 1145 q 404 1136 398 1153 l 444 1053 q 436 1035 449 1042 l 257 960 z "},"Ṥ":{"ha":552,"x_min":63,"x_max":490,"o":"m 80 0 q 63 17 63 0 l 63 148 q 64 163 63 157 q 72 172 65 168 l 253 255 l 253 378 l 74 490 q 63 510 63 497 l 63 765 q 64 782 63 776 q 74 793 65 787 l 257 917 q 270 923 264 921 q 285 926 276 926 l 472 926 q 490 908 490 926 l 490 790 q 479 769 490 775 l 297 694 l 297 566 l 479 462 q 490 440 490 457 l 490 138 q 488 126 490 132 q 481 117 486 119 l 263 8 q 252 3 258 6 q 241 0 247 0 l 80 0 m 257 960 q 238 966 244 953 l 214 1018 q 222 1039 209 1031 l 385 1145 q 404 1136 398 1153 l 444 1053 q 436 1035 449 1042 l 257 960 m 328 1185 q 279 1205 299 1185 q 259 1255 259 1225 q 279 1306 259 1285 q 328 1326 299 1326 q 378 1306 359 1326 q 398 1255 398 1285 q 378 1205 398 1225 q 328 1185 359 1185 z "},"Š":{"ha":552,"x_min":63,"x_max":490,"o":"m 80 0 q 63 17 63 0 l 63 148 q 64 163 63 157 q 72 172 65 168 l 253 255 l 253 378 l 74 490 q 63 510 63 497 l 63 765 q 64 782 63 776 q 74 793 65 787 l 257 917 q 270 923 264 921 q 285 926 276 926 l 472 926 q 490 908 490 926 l 490 790 q 479 769 490 775 l 297 694 l 297 566 l 479 462 q 490 440 490 457 l 490 138 q 488 126 490 132 q 481 117 486 119 l 263 8 q 252 3 258 6 q 241 0 247 0 l 80 0 m 261 960 q 242 971 246 960 l 185 1081 q 184 1094 181 1088 q 197 1099 188 1099 l 287 1099 q 304 1087 296 1099 l 322 1052 l 325 1038 l 329 1038 l 333 1052 l 351 1087 q 369 1099 359 1099 l 459 1099 q 472 1094 468 1099 q 471 1081 475 1088 l 413 971 q 393 960 408 960 l 261 960 z "},"Ṧ":{"ha":552,"x_min":63,"x_max":490,"o":"m 80 0 q 63 17 63 0 l 63 148 q 64 163 63 157 q 72 172 65 168 l 253 255 l 253 378 l 74 490 q 63 510 63 497 l 63 765 q 64 782 63 776 q 74 793 65 787 l 257 917 q 270 923 264 921 q 285 926 276 926 l 472 926 q 490 908 490 926 l 490 790 q 479 769 490 775 l 297 694 l 297 566 l 479 462 q 490 440 490 457 l 490 138 q 488 126 490 132 q 481 117 486 119 l 263 8 q 252 3 258 6 q 241 0 247 0 l 80 0 m 261 960 q 242 971 246 960 l 185 1081 q 184 1094 181 1088 q 197 1099 188 1099 l 287 1099 q 304 1087 296 1099 l 322 1052 l 325 1038 l 329 1038 l 333 1052 l 351 1087 q 369 1099 359 1099 l 459 1099 q 472 1094 468 1099 q 471 1081 475 1088 l 413 971 q 393 960 408 960 l 261 960 m 328 1137 q 279 1157 299 1137 q 259 1206 259 1176 q 279 1257 259 1237 q 328 1277 299 1277 q 378 1257 359 1277 q 398 1206 398 1237 q 378 1157 398 1176 q 328 1137 359 1137 z "},"Ş":{"ha":552,"x_min":63,"x_max":490,"o":"m 80 0 q 63 17 63 0 l 63 148 q 64 163 63 157 q 72 172 65 168 l 253 255 l 253 378 l 74 490 q 63 510 63 497 l 63 765 q 64 782 63 776 q 74 793 65 787 l 257 917 q 270 923 264 921 q 285 926 276 926 l 472 926 q 490 908 490 926 l 490 790 q 479 769 490 775 l 297 694 l 297 566 l 479 462 q 490 440 490 457 l 490 138 q 488 126 490 132 q 481 117 486 119 l 263 8 q 252 3 258 6 q 241 0 247 0 l 80 0 m 91 -224 q 74 -210 74 -224 l 74 -186 q 91 -172 74 -172 l 169 -172 l 169 -116 l 108 -116 q 91 -99 91 -116 l 91 -53 l 126 0 l 220 0 l 185 -53 l 230 -53 q 247 -71 247 -53 l 247 -181 q 238 -203 247 -193 l 224 -217 q 213 -223 219 -222 q 202 -224 208 -224 l 91 -224 z "},"Ŝ":{"ha":552,"x_min":63,"x_max":490,"o":"m 80 0 q 63 17 63 0 l 63 148 q 64 163 63 157 q 72 172 65 168 l 253 255 l 253 378 l 74 490 q 63 510 63 497 l 63 765 q 64 782 63 776 q 74 793 65 787 l 257 917 q 270 923 264 921 q 285 926 276 926 l 472 926 q 490 908 490 926 l 490 790 q 479 769 490 775 l 297 694 l 297 566 l 479 462 q 490 440 490 457 l 490 138 q 488 126 490 132 q 481 117 486 119 l 263 8 q 252 3 258 6 q 241 0 247 0 l 80 0 m 185 960 q 172 966 176 960 q 173 980 169 972 l 235 1099 q 256 1111 240 1111 l 399 1111 q 419 1099 414 1111 l 482 980 q 483 966 487 972 q 471 960 479 960 l 372 960 q 353 974 362 960 l 335 1011 l 332 1026 l 322 1026 l 320 1011 l 301 974 q 283 960 294 960 l 185 960 z "},"Ș":{"ha":552,"x_min":63,"x_max":490,"o":"m 80 0 q 63 17 63 0 l 63 148 q 64 163 63 157 q 72 172 65 168 l 253 255 l 253 378 l 74 490 q 63 510 63 497 l 63 765 q 64 782 63 776 q 74 793 65 787 l 257 917 q 270 923 264 921 q 285 926 276 926 l 472 926 q 490 908 490 926 l 490 790 q 479 769 490 775 l 297 694 l 297 566 l 479 462 q 490 440 490 457 l 490 138 q 488 126 490 132 q 481 117 486 119 l 263 8 q 252 3 258 6 q 241 0 247 0 l 80 0 m 217 -208 q 208 -199 208 -208 l 208 -149 q 217 -140 208 -140 l 255 -140 q 266 -131 266 -140 l 266 -109 l 208 -109 q 199 -99 199 -106 l 200 -44 q 210 -35 200 -35 l 345 -35 q 354 -44 354 -35 l 354 -130 q 335 -189 354 -169 q 285 -208 316 -208 l 217 -208 z "},"Ṡ":{"ha":552,"x_min":63,"x_max":490,"o":"m 80 0 q 63 17 63 0 l 63 148 q 64 163 63 157 q 72 172 65 168 l 253 255 l 253 378 l 74 490 q 63 510 63 497 l 63 765 q 64 782 63 776 q 74 793 65 787 l 257 917 q 270 923 264 921 q 285 926 276 926 l 472 926 q 490 908 490 926 l 490 790 q 479 769 490 775 l 297 694 l 297 566 l 479 462 q 490 440 490 457 l 490 138 q 488 126 490 132 q 481 117 486 119 l 263 8 q 252 3 258 6 q 241 0 247 0 l 80 0 m 328 963 q 279 983 299 963 q 259 1033 259 1003 q 279 1083 259 1063 q 328 1103 299 1103 q 378 1083 359 1103 q 398 1033 398 1063 q 378 983 398 1003 q 328 963 359 963 z "},"Ṣ":{"ha":552,"x_min":63,"x_max":490,"o":"m 80 0 q 63 17 63 0 l 63 148 q 64 163 63 157 q 72 172 65 168 l 253 255 l 253 378 l 74 490 q 63 510 63 497 l 63 765 q 64 782 63 776 q 74 793 65 787 l 257 917 q 270 923 264 921 q 285 926 276 926 l 472 926 q 490 908 490 926 l 490 790 q 479 769 490 775 l 297 694 l 297 566 l 479 462 q 490 440 490 457 l 490 138 q 488 126 490 132 q 481 117 486 119 l 263 8 q 252 3 258 6 q 241 0 247 0 l 80 0 m 276 -175 q 227 -155 247 -175 q 207 -106 207 -135 q 227 -55 207 -75 q 276 -35 247 -35 q 326 -55 307 -35 q 346 -106 346 -75 q 326 -155 346 -135 q 276 -175 307 -175 z "},"Ṩ":{"ha":552,"x_min":63,"x_max":490,"o":"m 80 0 q 63 17 63 0 l 63 148 q 64 163 63 157 q 72 172 65 168 l 253 255 l 253 378 l 74 490 q 63 510 63 497 l 63 765 q 64 782 63 776 q 74 793 65 787 l 257 917 q 270 923 264 921 q 285 926 276 926 l 472 926 q 490 908 490 926 l 490 790 q 479 769 490 775 l 297 694 l 297 566 l 479 462 q 490 440 490 457 l 490 138 q 488 126 490 132 q 481 117 486 119 l 263 8 q 252 3 258 6 q 241 0 247 0 l 80 0 m 276 -175 q 227 -155 247 -175 q 207 -106 207 -135 q 227 -55 207 -75 q 276 -35 247 -35 q 326 -55 307 -35 q 346 -106 346 -75 q 326 -155 346 -135 q 276 -175 307 -175 m 328 963 q 279 983 299 963 q 259 1033 259 1003 q 279 1083 259 1063 q 328 1103 299 1103 q 378 1083 359 1103 q 398 1033 398 1063 q 378 983 398 1003 q 328 963 359 963 z "},"ẞ":{"ha":793,"x_min":83,"x_max":706,"o":"m 101 0 q 83 17 83 0 l 83 908 q 101 926 83 926 l 576 926 q 602 919 593 926 l 672 856 q 678 848 677 853 q 678 838 679 842 l 623 595 l 623 574 l 689 574 q 706 557 706 574 l 706 241 l 583 7 q 571 0 581 0 l 411 0 q 394 17 394 0 l 394 193 l 477 396 l 477 426 l 403 426 q 388 432 394 426 q 384 448 381 439 l 443 692 l 315 692 l 315 17 q 297 0 315 0 l 101 0 z "},"Ꞩ":{"ha":606,"x_min":63,"x_max":544,"o":"m 63 263 l 63 321 l 544 644 l 544 585 l 63 263 m 113 0 q 95 17 95 0 l 95 148 q 96 163 95 157 q 104 172 97 168 l 286 255 l 286 378 l 107 490 q 95 510 95 497 l 95 765 q 97 782 95 776 q 107 793 98 787 l 290 917 q 302 923 297 921 q 317 926 308 926 l 505 926 q 522 908 522 926 l 522 790 q 512 769 522 775 l 330 694 l 330 566 l 512 462 q 522 440 522 457 l 522 138 q 520 126 522 132 q 513 117 519 119 l 295 8 q 285 3 291 6 q 274 0 279 0 l 113 0 z "},"T":{"ha":676,"x_min":83,"x_max":592,"o":"m 240 0 q 222 17 222 0 l 222 741 l 101 741 q 83 758 83 741 l 83 908 q 101 926 83 926 l 575 926 q 592 908 592 926 l 592 758 q 575 741 592 741 l 453 741 l 453 17 q 436 0 453 0 l 240 0 z "},"Ŧ":{"ha":676,"x_min":83,"x_max":592,"o":"m 157 393 q 140 410 140 393 l 140 516 q 157 533 140 533 l 519 533 q 537 516 537 533 l 537 410 q 519 393 537 393 l 157 393 m 240 0 q 222 17 222 0 l 222 741 l 101 741 q 83 758 83 741 l 83 908 q 101 926 83 926 l 575 926 q 592 908 592 926 l 592 758 q 575 741 592 741 l 453 741 l 453 17 q 436 0 453 0 l 240 0 z "},"Ť":{"ha":676,"x_min":83,"x_max":592,"o":"m 240 0 q 222 17 222 0 l 222 741 l 101 741 q 83 758 83 741 l 83 908 q 101 926 83 926 l 575 926 q 592 908 592 926 l 592 758 q 575 741 592 741 l 453 741 l 453 17 q 436 0 453 0 l 240 0 m 267 960 q 248 971 252 960 l 191 1081 q 190 1094 187 1088 q 203 1099 194 1099 l 293 1099 q 310 1087 302 1099 l 328 1052 l 331 1038 l 335 1038 l 339 1052 l 358 1087 q 375 1099 365 1099 l 465 1099 q 478 1094 474 1099 q 477 1081 481 1088 l 419 971 q 399 960 415 960 l 267 960 z "},"Ţ":{"ha":676,"x_min":83,"x_max":592,"o":"m 240 0 q 222 17 222 0 l 222 741 l 101 741 q 83 758 83 741 l 83 908 q 101 926 83 926 l 575 926 q 592 908 592 926 l 592 758 q 575 741 592 741 l 453 741 l 453 17 q 436 0 453 0 l 240 0 m 265 -224 q 248 -210 248 -224 l 248 -186 q 265 -172 248 -172 l 344 -172 l 344 -116 l 283 -116 q 265 -99 265 -116 l 265 -53 l 301 0 l 394 0 l 359 -53 l 404 -53 q 422 -71 422 -53 l 422 -181 q 412 -203 422 -193 l 398 -217 q 388 -223 393 -222 q 376 -224 382 -224 l 265 -224 z "},"Ṱ":{"ha":676,"x_min":83,"x_max":592,"o":"m 240 0 q 222 17 222 0 l 222 741 l 101 741 q 83 758 83 741 l 83 908 q 101 926 83 926 l 575 926 q 592 908 592 926 l 592 758 q 575 741 592 741 l 453 741 l 453 17 q 436 0 453 0 l 240 0 m 203 -174 q 190 -168 194 -174 q 191 -155 187 -162 l 248 -45 q 267 -35 252 -35 l 399 -35 q 419 -45 415 -35 l 477 -155 q 478 -168 481 -162 q 465 -174 474 -174 l 375 -174 q 358 -161 365 -174 l 339 -126 l 335 -112 l 331 -112 l 328 -126 l 310 -161 q 293 -174 302 -174 l 203 -174 z "},"Ț":{"ha":676,"x_min":83,"x_max":592,"o":"m 240 0 q 222 17 222 0 l 222 741 l 101 741 q 83 758 83 741 l 83 908 q 101 926 83 926 l 575 926 q 592 908 592 926 l 592 758 q 575 741 592 741 l 453 741 l 453 17 q 436 0 453 0 l 240 0 m 276 -208 q 267 -199 267 -208 l 267 -149 q 276 -140 267 -140 l 313 -140 q 324 -131 324 -140 l 324 -109 l 267 -109 q 258 -99 258 -106 l 258 -44 q 268 -35 258 -35 l 403 -35 q 413 -44 413 -35 l 413 -130 q 393 -189 413 -169 q 343 -208 374 -208 l 276 -208 z "},"Ⱦ":{"ha":676,"x_min":83,"x_max":592,"o":"m 104 -82 q 97 -64 90 -82 l 497 1059 q 505 1071 499 1067 q 517 1075 510 1075 l 559 1075 q 567 1057 574 1075 l 167 -66 q 159 -78 164 -74 q 146 -82 153 -82 l 104 -82 m 240 0 q 222 17 222 0 l 222 741 l 101 741 q 83 758 83 741 l 83 908 q 101 926 83 926 l 575 926 q 592 908 592 926 l 592 758 q 575 741 592 741 l 453 741 l 453 17 q 436 0 453 0 l 240 0 z "},"Ṫ":{"ha":676,"x_min":83,"x_max":592,"o":"m 240 0 q 222 17 222 0 l 222 741 l 101 741 q 83 758 83 741 l 83 908 q 101 926 83 926 l 575 926 q 592 908 592 926 l 592 758 q 575 741 592 741 l 453 741 l 453 17 q 436 0 453 0 l 240 0 m 335 963 q 285 983 305 963 q 265 1033 265 1003 q 285 1083 265 1063 q 335 1103 305 1103 q 385 1083 365 1103 q 404 1033 404 1063 q 385 983 404 1003 q 335 963 365 963 z "},"Ṭ":{"ha":676,"x_min":83,"x_max":592,"o":"m 240 0 q 222 17 222 0 l 222 741 l 101 741 q 83 758 83 741 l 83 908 q 101 926 83 926 l 575 926 q 592 908 592 926 l 592 758 q 575 741 592 741 l 453 741 l 453 17 q 436 0 453 0 l 240 0 m 335 -175 q 285 -155 305 -175 q 265 -106 265 -135 q 285 -55 265 -75 q 335 -35 305 -35 q 385 -55 365 -35 q 404 -106 404 -75 q 385 -155 404 -135 q 335 -175 365 -175 z "},"Ƭ":{"ha":794,"x_min":83,"x_max":710,"o":"m 358 0 q 340 17 340 0 l 340 741 l 238 741 l 238 648 q 227 623 238 633 q 201 613 217 613 l 118 613 q 83 648 83 613 l 83 793 q 100 838 83 822 l 168 906 q 210 926 188 926 l 693 926 q 710 908 710 926 l 710 758 q 693 741 710 741 l 572 741 l 572 17 q 554 0 572 0 l 358 0 z "},"Ṯ":{"ha":676,"x_min":83,"x_max":592,"o":"m 240 0 q 222 17 222 0 l 222 741 l 101 741 q 83 758 83 741 l 83 908 q 101 926 83 926 l 575 926 q 592 908 592 926 l 592 758 q 575 741 592 741 l 453 741 l 453 17 q 436 0 453 0 l 240 0 m 213 -104 q 195 -87 195 -104 l 195 -52 q 213 -35 195 -35 l 456 -35 q 474 -52 474 -35 l 474 -87 q 456 -104 474 -104 l 213 -104 z "},"Ʈ":{"ha":676,"x_min":83,"x_max":592,"o":"m 370 -260 q 325 -244 342 -260 l 242 -165 q 222 -123 222 -146 l 222 741 l 101 741 q 83 758 83 741 l 83 908 q 101 926 83 926 l 575 926 q 592 908 592 926 l 592 758 q 575 741 592 741 l 453 741 l 453 -72 l 507 -72 q 532 -82 523 -72 q 542 -108 542 -92 l 542 -226 q 507 -260 542 -260 l 370 -260 z "},"U":{"ha":757,"x_min":83,"x_max":674,"o":"m 262 0 q 234 12 245 0 l 95 151 q 83 178 83 162 l 83 908 q 101 926 83 926 l 297 926 q 315 908 315 926 l 315 199 q 328 185 315 185 l 442 185 l 442 908 q 460 926 442 926 l 656 926 q 674 908 674 926 l 674 17 q 656 0 674 0 l 262 0 z "},"Ú":{"ha":757,"x_min":83,"x_max":674,"o":"m 262 0 q 234 12 245 0 l 95 151 q 83 178 83 162 l 83 908 q 101 926 83 926 l 297 926 q 315 908 315 926 l 315 199 q 328 185 315 185 l 442 185 l 442 908 q 460 926 442 926 l 656 926 q 674 908 674 926 l 674 17 q 656 0 674 0 l 262 0 m 307 960 q 288 966 294 953 l 264 1018 q 272 1039 259 1031 l 435 1145 q 454 1136 448 1153 l 494 1053 q 486 1035 499 1042 l 307 960 z "},"Ʉ":{"ha":757,"x_min":-3,"x_max":759,"o":"m 262 0 q 234 12 245 0 l 95 151 q 83 178 83 162 l 83 908 q 101 926 83 926 l 297 926 q 315 908 315 926 l 315 199 q 328 185 315 185 l 442 185 l 442 908 q 460 926 442 926 l 656 926 q 674 908 674 926 l 674 17 q 656 0 674 0 l 262 0 m 14 435 q -3 452 -3 435 l -3 475 q 14 492 -3 492 l 742 492 q 759 475 759 492 l 759 452 q 742 435 759 435 l 14 435 z "},"Ŭ":{"ha":757,"x_min":83,"x_max":674,"o":"m 262 0 q 234 12 245 0 l 95 151 q 83 178 83 162 l 83 908 q 101 926 83 926 l 297 926 q 315 908 315 926 l 315 199 q 328 185 315 185 l 442 185 l 442 908 q 460 926 442 926 l 656 926 q 674 908 674 926 l 674 17 q 656 0 674 0 l 262 0 m 294 960 q 273 971 281 960 l 244 1010 q 238 1031 238 1020 l 238 1082 q 255 1099 238 1099 l 328 1099 q 346 1082 346 1099 l 346 1039 l 411 1039 l 411 1082 q 428 1099 411 1099 l 502 1099 q 519 1082 519 1099 l 519 1031 q 513 1010 519 1020 l 484 971 q 463 960 476 960 l 294 960 z "},"Ǔ":{"ha":757,"x_min":83,"x_max":674,"o":"m 262 0 q 234 12 245 0 l 95 151 q 83 178 83 162 l 83 908 q 101 926 83 926 l 297 926 q 315 908 315 926 l 315 199 q 328 185 315 185 l 442 185 l 442 908 q 460 926 442 926 l 656 926 q 674 908 674 926 l 674 17 q 656 0 674 0 l 262 0 m 311 960 q 292 971 296 960 l 235 1081 q 234 1094 231 1088 q 247 1099 238 1099 l 337 1099 q 354 1087 346 1099 l 372 1052 l 375 1038 l 379 1038 l 383 1052 l 401 1087 q 419 1099 409 1099 l 509 1099 q 522 1094 518 1099 q 521 1081 525 1088 l 463 971 q 443 960 458 960 l 311 960 z "},"ǔ":{"ha":757,"x_min":83,"x_max":674,"o":"m 262 0 q 234 12 245 0 l 95 151 q 83 178 83 162 l 83 908 q 101 926 83 926 l 297 926 q 315 908 315 926 l 315 199 q 328 185 315 185 l 442 185 l 442 908 q 460 926 442 926 l 656 926 q 674 908 674 926 l 674 17 q 656 0 674 0 l 262 0 m 311 960 q 292 971 296 960 l 235 1081 q 234 1094 231 1088 q 247 1099 238 1099 l 337 1099 q 354 1087 346 1099 l 372 1052 l 375 1038 l 379 1038 l 383 1052 l 401 1087 q 419 1099 409 1099 l 509 1099 q 522 1094 518 1099 q 521 1081 525 1088 l 463 971 q 443 960 458 960 l 311 960 z "},"Û":{"ha":757,"x_min":83,"x_max":674,"o":"m 262 0 q 234 12 245 0 l 95 151 q 83 178 83 162 l 83 908 q 101 926 83 926 l 297 926 q 315 908 315 926 l 315 199 q 328 185 315 185 l 442 185 l 442 908 q 460 926 442 926 l 656 926 q 674 908 674 926 l 674 17 q 656 0 674 0 l 262 0 m 235 960 q 222 966 226 960 q 223 980 219 972 l 285 1099 q 306 1111 290 1111 l 449 1111 q 469 1099 464 1111 l 532 980 q 533 966 537 972 q 521 960 529 960 l 422 960 q 403 974 412 960 l 385 1011 l 382 1026 l 372 1026 l 370 1011 l 351 974 q 333 960 344 960 l 235 960 z "},"û":{"ha":757,"x_min":83,"x_max":674,"o":"m 262 0 q 234 12 245 0 l 95 151 q 83 178 83 162 l 83 908 q 101 926 83 926 l 297 926 q 315 908 315 926 l 315 199 q 328 185 315 185 l 442 185 l 442 908 q 460 926 442 926 l 656 926 q 674 908 674 926 l 674 17 q 656 0 674 0 l 262 0 m 235 960 q 222 966 226 960 q 223 980 219 972 l 285 1099 q 306 1111 290 1111 l 449 1111 q 469 1099 464 1111 l 532 980 q 533 966 537 972 q 521 960 529 960 l 422 960 q 403 974 412 960 l 385 1011 l 382 1026 l 372 1026 l 370 1011 l 351 974 q 333 960 344 960 l 235 960 z "},"Ṷ":{"ha":757,"x_min":83,"x_max":674,"o":"m 262 0 q 234 12 245 0 l 95 151 q 83 178 83 162 l 83 908 q 101 926 83 926 l 297 926 q 315 908 315 926 l 315 199 q 328 185 315 185 l 442 185 l 442 908 q 460 926 442 926 l 656 926 q 674 908 674 926 l 674 17 q 656 0 674 0 l 262 0 m 257 -174 q 244 -168 248 -174 q 245 -155 241 -162 l 302 -45 q 322 -35 306 -35 l 453 -35 q 473 -45 469 -35 l 531 -155 q 532 -168 535 -162 q 519 -174 528 -174 l 429 -174 q 412 -161 419 -174 l 393 -126 l 390 -112 l 385 -112 l 383 -126 l 365 -161 q 347 -174 356 -174 l 257 -174 z "},"Ȕ":{"ha":757,"x_min":83,"x_max":674,"o":"m 262 0 q 234 12 245 0 l 95 151 q 83 178 83 162 l 83 908 q 101 926 83 926 l 297 926 q 315 908 315 926 l 315 199 q 328 185 315 185 l 442 185 l 442 908 q 460 926 442 926 l 656 926 q 674 908 674 926 l 674 17 q 656 0 674 0 l 262 0 m 449 972 q 433 978 438 967 l 358 1137 q 365 1154 353 1149 l 466 1193 q 484 1187 481 1200 l 530 1017 q 523 998 533 1003 l 449 972 m 277 956 q 260 963 266 951 l 186 1121 q 192 1138 181 1133 l 294 1177 q 312 1171 308 1184 l 358 1001 q 351 982 361 987 l 277 956 z "},"ȕ":{"ha":757,"x_min":83,"x_max":674,"o":"m 262 0 q 234 12 245 0 l 95 151 q 83 178 83 162 l 83 908 q 101 926 83 926 l 297 926 q 315 908 315 926 l 315 199 q 328 185 315 185 l 442 185 l 442 908 q 460 926 442 926 l 656 926 q 674 908 674 926 l 674 17 q 656 0 674 0 l 262 0 m 449 972 q 433 978 438 967 l 358 1137 q 365 1154 353 1149 l 466 1193 q 484 1187 481 1200 l 530 1017 q 523 998 533 1003 l 449 972 m 277 956 q 260 963 266 951 l 186 1121 q 192 1138 181 1133 l 294 1177 q 312 1171 308 1184 l 358 1001 q 351 982 361 987 l 277 956 z "},"Ü":{"ha":757,"x_min":83,"x_max":674,"o":"m 262 0 q 234 12 245 0 l 95 151 q 83 178 83 162 l 83 908 q 101 926 83 926 l 297 926 q 315 908 315 926 l 315 199 q 328 185 315 185 l 442 185 l 442 908 q 460 926 442 926 l 656 926 q 674 908 674 926 l 674 17 q 656 0 674 0 l 262 0 m 176 983 q 163 997 163 983 l 163 1085 q 176 1099 163 1099 l 342 1099 q 354 1085 354 1099 l 354 997 q 342 983 354 983 l 176 983 m 416 983 q 402 997 402 983 l 402 1085 q 416 1099 402 1099 l 581 1099 q 594 1085 594 1099 l 594 997 q 581 983 594 983 l 416 983 z "},"ü":{"ha":757,"x_min":83,"x_max":674,"o":"m 262 0 q 234 12 245 0 l 95 151 q 83 178 83 162 l 83 908 q 101 926 83 926 l 297 926 q 315 908 315 926 l 315 199 q 328 185 315 185 l 442 185 l 442 908 q 460 926 442 926 l 656 926 q 674 908 674 926 l 674 17 q 656 0 674 0 l 262 0 m 176 983 q 163 997 163 983 l 163 1085 q 176 1099 163 1099 l 342 1099 q 354 1085 354 1099 l 354 997 q 342 983 354 983 l 176 983 m 416 983 q 402 997 402 983 l 402 1085 q 416 1099 402 1099 l 581 1099 q 594 1085 594 1099 l 594 997 q 581 983 594 983 l 416 983 z "},"Ǘ":{"ha":757,"x_min":83,"x_max":674,"o":"m 262 0 q 234 12 245 0 l 95 151 q 83 178 83 162 l 83 908 q 101 926 83 926 l 297 926 q 315 908 315 926 l 315 199 q 328 185 315 185 l 442 185 l 442 908 q 460 926 442 926 l 656 926 q 674 908 674 926 l 674 17 q 656 0 674 0 l 262 0 m 176 983 q 163 997 163 983 l 163 1085 q 176 1099 163 1099 l 342 1099 q 354 1085 354 1099 l 354 997 q 342 983 354 983 l 176 983 m 416 983 q 402 997 402 983 l 402 1085 q 416 1099 402 1099 l 581 1099 q 594 1085 594 1099 l 594 997 q 581 983 594 983 l 416 983 m 307 1133 q 288 1140 294 1127 l 264 1192 q 272 1213 259 1204 l 435 1319 q 454 1310 448 1326 l 494 1227 q 486 1208 499 1215 l 307 1133 z "},"ǘ":{"ha":757,"x_min":83,"x_max":674,"o":"m 262 0 q 234 12 245 0 l 95 151 q 83 178 83 162 l 83 908 q 101 926 83 926 l 297 926 q 315 908 315 926 l 315 199 q 328 185 315 185 l 442 185 l 442 908 q 460 926 442 926 l 656 926 q 674 908 674 926 l 674 17 q 656 0 674 0 l 262 0 m 176 983 q 163 997 163 983 l 163 1085 q 176 1099 163 1099 l 342 1099 q 354 1085 354 1099 l 354 997 q 342 983 354 983 l 176 983 m 416 983 q 402 997 402 983 l 402 1085 q 416 1099 402 1099 l 581 1099 q 594 1085 594 1099 l 594 997 q 581 983 594 983 l 416 983 m 307 1133 q 288 1140 294 1127 l 264 1192 q 272 1213 259 1204 l 435 1319 q 454 1310 448 1326 l 494 1227 q 486 1208 499 1215 l 307 1133 z "},"Ṳ":{"ha":757,"x_min":83,"x_max":674,"o":"m 262 0 q 234 12 245 0 l 95 151 q 83 178 83 162 l 83 908 q 101 926 83 926 l 297 926 q 315 908 315 926 l 315 199 q 328 185 315 185 l 442 185 l 442 908 q 460 926 442 926 l 656 926 q 674 908 674 926 l 674 17 q 656 0 674 0 l 262 0 m 187 -151 q 173 -137 173 -151 l 173 -49 q 187 -35 173 -35 l 352 -35 q 365 -49 365 -35 l 365 -137 q 352 -151 365 -151 l 187 -151 m 426 -151 q 413 -137 413 -151 l 413 -49 q 426 -35 413 -35 l 592 -35 q 604 -49 604 -35 l 604 -137 q 592 -151 604 -151 l 426 -151 z "},"Ǚ":{"ha":757,"x_min":83,"x_max":674,"o":"m 262 0 q 234 12 245 0 l 95 151 q 83 178 83 162 l 83 908 q 101 926 83 926 l 297 926 q 315 908 315 926 l 315 199 q 328 185 315 185 l 442 185 l 442 908 q 460 926 442 926 l 656 926 q 674 908 674 926 l 674 17 q 656 0 674 0 l 262 0 m 176 983 q 163 997 163 983 l 163 1085 q 176 1099 163 1099 l 342 1099 q 354 1085 354 1099 l 354 997 q 342 983 354 983 l 176 983 m 416 983 q 402 997 402 983 l 402 1085 q 416 1099 402 1099 l 581 1099 q 594 1085 594 1099 l 594 997 q 581 983 594 983 l 416 983 m 311 1134 q 292 1144 296 1134 l 235 1254 q 234 1267 231 1262 q 247 1273 238 1273 l 337 1273 q 354 1260 346 1273 l 372 1226 l 375 1212 l 379 1212 l 383 1226 l 401 1260 q 419 1273 409 1273 l 509 1273 q 522 1267 518 1273 q 521 1254 525 1262 l 463 1144 q 443 1134 458 1134 l 311 1134 z "},"ǚ":{"ha":757,"x_min":83,"x_max":674,"o":"m 262 0 q 234 12 245 0 l 95 151 q 83 178 83 162 l 83 908 q 101 926 83 926 l 297 926 q 315 908 315 926 l 315 199 q 328 185 315 185 l 442 185 l 442 908 q 460 926 442 926 l 656 926 q 674 908 674 926 l 674 17 q 656 0 674 0 l 262 0 m 176 983 q 163 997 163 983 l 163 1085 q 176 1099 163 1099 l 342 1099 q 354 1085 354 1099 l 354 997 q 342 983 354 983 l 176 983 m 416 983 q 402 997 402 983 l 402 1085 q 416 1099 402 1099 l 581 1099 q 594 1085 594 1099 l 594 997 q 581 983 594 983 l 416 983 m 311 1134 q 292 1144 296 1134 l 235 1254 q 234 1267 231 1262 q 247 1273 238 1273 l 337 1273 q 354 1260 346 1273 l 372 1226 l 375 1212 l 379 1212 l 383 1226 l 401 1260 q 419 1273 409 1273 l 509 1273 q 522 1267 518 1273 q 521 1254 525 1262 l 463 1144 q 443 1134 458 1134 l 311 1134 z "},"Ǜ":{"ha":757,"x_min":83,"x_max":674,"o":"m 262 0 q 234 12 245 0 l 95 151 q 83 178 83 162 l 83 908 q 101 926 83 926 l 297 926 q 315 908 315 926 l 315 199 q 328 185 315 185 l 442 185 l 442 908 q 460 926 442 926 l 656 926 q 674 908 674 926 l 674 17 q 656 0 674 0 l 262 0 m 176 983 q 163 997 163 983 l 163 1085 q 176 1099 163 1099 l 342 1099 q 354 1085 354 1099 l 354 997 q 342 983 354 983 l 176 983 m 416 983 q 402 997 402 983 l 402 1085 q 416 1099 402 1099 l 581 1099 q 594 1085 594 1099 l 594 997 q 581 983 594 983 l 416 983 m 450 1133 l 271 1208 q 263 1227 258 1215 l 303 1310 q 322 1319 309 1326 l 485 1213 q 493 1192 498 1204 l 469 1140 q 450 1133 464 1127 z "},"ǜ":{"ha":757,"x_min":83,"x_max":674,"o":"m 262 0 q 234 12 245 0 l 95 151 q 83 178 83 162 l 83 908 q 101 926 83 926 l 297 926 q 315 908 315 926 l 315 199 q 328 185 315 185 l 442 185 l 442 908 q 460 926 442 926 l 656 926 q 674 908 674 926 l 674 17 q 656 0 674 0 l 262 0 m 176 983 q 163 997 163 983 l 163 1085 q 176 1099 163 1099 l 342 1099 q 354 1085 354 1099 l 354 997 q 342 983 354 983 l 176 983 m 416 983 q 402 997 402 983 l 402 1085 q 416 1099 402 1099 l 581 1099 q 594 1085 594 1099 l 594 997 q 581 983 594 983 l 416 983 m 450 1133 l 271 1208 q 263 1227 258 1215 l 303 1310 q 322 1319 309 1326 l 485 1213 q 493 1192 498 1204 l 469 1140 q 450 1133 464 1127 z "},"Ǖ":{"ha":757,"x_min":83,"x_max":674,"o":"m 262 0 q 234 12 245 0 l 95 151 q 83 178 83 162 l 83 908 q 101 926 83 926 l 297 926 q 315 908 315 926 l 315 199 q 328 185 315 185 l 442 185 l 442 908 q 460 926 442 926 l 656 926 q 674 908 674 926 l 674 17 q 656 0 674 0 l 262 0 m 176 983 q 163 997 163 983 l 163 1085 q 176 1099 163 1099 l 342 1099 q 354 1085 354 1099 l 354 997 q 342 983 354 983 l 176 983 m 416 983 q 402 997 402 983 l 402 1085 q 416 1099 402 1099 l 581 1099 q 594 1085 594 1099 l 594 997 q 581 983 594 983 l 416 983 m 255 1181 q 238 1198 238 1181 l 238 1233 q 255 1250 238 1250 l 499 1250 q 516 1233 516 1250 l 516 1198 q 499 1181 516 1181 l 255 1181 z "},"ǖ":{"ha":757,"x_min":83,"x_max":674,"o":"m 262 0 q 234 12 245 0 l 95 151 q 83 178 83 162 l 83 908 q 101 926 83 926 l 297 926 q 315 908 315 926 l 315 199 q 328 185 315 185 l 442 185 l 442 908 q 460 926 442 926 l 656 926 q 674 908 674 926 l 674 17 q 656 0 674 0 l 262 0 m 176 983 q 163 997 163 983 l 163 1085 q 176 1099 163 1099 l 342 1099 q 354 1085 354 1099 l 354 997 q 342 983 354 983 l 176 983 m 416 983 q 402 997 402 983 l 402 1085 q 416 1099 402 1099 l 581 1099 q 594 1085 594 1099 l 594 997 q 581 983 594 983 l 416 983 m 255 1181 q 238 1198 238 1181 l 238 1233 q 255 1250 238 1250 l 499 1250 q 516 1233 516 1250 l 516 1198 q 499 1181 516 1181 l 255 1181 z "},"Ụ":{"ha":757,"x_min":83,"x_max":674,"o":"m 262 0 q 234 12 245 0 l 95 151 q 83 178 83 162 l 83 908 q 101 926 83 926 l 297 926 q 315 908 315 926 l 315 199 q 328 185 315 185 l 442 185 l 442 908 q 460 926 442 926 l 656 926 q 674 908 674 926 l 674 17 q 656 0 674 0 l 262 0 m 389 -175 q 339 -155 359 -175 q 319 -106 319 -135 q 339 -55 319 -75 q 389 -35 359 -35 q 439 -55 419 -35 q 458 -106 458 -75 q 439 -155 458 -135 q 389 -175 419 -175 z "},"ụ":{"ha":757,"x_min":83,"x_max":674,"o":"m 262 0 q 234 12 245 0 l 95 151 q 83 178 83 162 l 83 908 q 101 926 83 926 l 297 926 q 315 908 315 926 l 315 199 q 328 185 315 185 l 442 185 l 442 908 q 460 926 442 926 l 656 926 q 674 908 674 926 l 674 17 q 656 0 674 0 l 262 0 m 389 -175 q 339 -155 359 -175 q 319 -106 319 -135 q 339 -55 319 -75 q 389 -35 359 -35 q 439 -55 419 -35 q 458 -106 458 -75 q 439 -155 458 -135 q 389 -175 419 -175 z "},"Ù":{"ha":757,"x_min":83,"x_max":674,"o":"m 262 0 q 234 12 245 0 l 95 151 q 83 178 83 162 l 83 908 q 101 926 83 926 l 297 926 q 315 908 315 926 l 315 199 q 328 185 315 185 l 442 185 l 442 908 q 460 926 442 926 l 656 926 q 674 908 674 926 l 674 17 q 656 0 674 0 l 262 0 m 450 960 l 271 1035 q 263 1053 258 1042 l 303 1136 q 322 1145 309 1153 l 485 1039 q 493 1018 498 1031 l 469 966 q 450 960 464 953 z "},"ù":{"ha":757,"x_min":83,"x_max":674,"o":"m 262 0 q 234 12 245 0 l 95 151 q 83 178 83 162 l 83 908 q 101 926 83 926 l 297 926 q 315 908 315 926 l 315 199 q 328 185 315 185 l 442 185 l 442 908 q 460 926 442 926 l 656 926 q 674 908 674 926 l 674 17 q 656 0 674 0 l 262 0 m 450 960 l 271 1035 q 263 1053 258 1042 l 303 1136 q 322 1145 309 1153 l 485 1039 q 493 1018 498 1031 l 469 966 q 450 960 464 953 z "},"Ủ":{"ha":757,"x_min":83,"x_max":674,"o":"m 262 0 q 234 12 245 0 l 95 151 q 83 178 83 162 l 83 908 q 101 926 83 926 l 297 926 q 315 908 315 926 l 315 199 q 328 185 315 185 l 442 185 l 442 908 q 460 926 442 926 l 656 926 q 674 908 674 926 l 674 17 q 656 0 674 0 l 262 0 m 427 960 q 410 978 410 960 l 410 1019 l 258 1019 q 241 1037 241 1019 l 241 1075 q 262 1099 241 1099 l 447 1099 q 467 1090 458 1099 l 507 1049 q 515 1026 515 1040 l 515 978 q 498 960 515 960 l 427 960 z "},"ủ":{"ha":757,"x_min":83,"x_max":674,"o":"m 262 0 q 234 12 245 0 l 95 151 q 83 178 83 162 l 83 908 q 101 926 83 926 l 297 926 q 315 908 315 926 l 315 199 q 328 185 315 185 l 442 185 l 442 908 q 460 926 442 926 l 656 926 q 674 908 674 926 l 674 17 q 656 0 674 0 l 262 0 m 427 960 q 410 978 410 960 l 410 1019 l 258 1019 q 241 1037 241 1019 l 241 1075 q 262 1099 241 1099 l 447 1099 q 467 1090 458 1099 l 507 1049 q 515 1026 515 1040 l 515 978 q 498 960 515 960 l 427 960 z "},"Ư":{"ha":757,"x_min":83,"x_max":861,"o":"m 262 0 q 234 12 245 0 l 95 151 q 83 178 83 162 l 83 908 q 101 926 83 926 l 297 926 q 315 908 315 926 l 315 199 q 328 185 315 185 l 442 185 l 442 908 q 460 926 442 926 l 656 926 q 674 908 674 926 l 674 17 q 656 0 674 0 l 262 0 m 596 811 q 564 822 575 811 q 552 847 552 833 l 552 908 q 569 926 552 926 l 733 926 l 733 994 q 750 1012 733 1012 l 844 1012 q 861 994 861 1012 l 861 884 q 853 863 861 871 l 813 821 q 792 811 806 811 l 596 811 z "},"Ứ":{"ha":757,"x_min":83,"x_max":917,"o":"m 262 0 q 234 12 245 0 l 95 151 q 83 178 83 162 l 83 908 q 101 926 83 926 l 297 926 q 315 908 315 926 l 315 199 q 328 185 315 185 l 442 185 l 442 908 q 460 926 442 926 l 656 926 q 674 908 674 926 l 674 17 q 656 0 674 0 l 262 0 m 596 811 q 564 822 575 811 q 552 847 552 833 l 552 908 q 569 926 552 926 l 733 926 l 733 994 q 750 1012 733 1012 l 844 1012 q 861 994 861 1012 l 861 884 q 853 863 861 871 l 813 821 q 792 811 806 811 l 596 811 m 725 960 q 706 966 712 953 l 682 1018 q 690 1039 677 1031 l 853 1145 q 872 1136 866 1153 l 912 1053 q 904 1035 917 1042 l 725 960 z "},"ứ":{"ha":757,"x_min":83,"x_max":917,"o":"m 262 0 q 234 12 245 0 l 95 151 q 83 178 83 162 l 83 908 q 101 926 83 926 l 297 926 q 315 908 315 926 l 315 199 q 328 185 315 185 l 442 185 l 442 908 q 460 926 442 926 l 656 926 q 674 908 674 926 l 674 17 q 656 0 674 0 l 262 0 m 596 811 q 564 822 575 811 q 552 847 552 833 l 552 908 q 569 926 552 926 l 733 926 l 733 994 q 750 1012 733 1012 l 844 1012 q 861 994 861 1012 l 861 884 q 853 863 861 871 l 813 821 q 792 811 806 811 l 596 811 m 725 960 q 706 966 712 953 l 682 1018 q 690 1039 677 1031 l 853 1145 q 872 1136 866 1153 l 912 1053 q 904 1035 917 1042 l 725 960 z "},"Ự":{"ha":757,"x_min":83,"x_max":866,"o":"m 262 0 q 234 12 245 0 l 95 151 q 83 178 83 162 l 83 908 q 101 926 83 926 l 297 926 q 315 908 315 926 l 315 199 q 328 185 315 185 l 442 185 l 442 908 q 460 926 442 926 l 656 926 q 674 908 674 926 l 674 17 q 656 0 674 0 l 262 0 m 596 811 q 564 822 575 811 q 552 847 552 833 l 552 908 q 569 926 552 926 l 733 926 l 733 994 q 750 1012 733 1012 l 844 1012 q 861 994 861 1012 l 861 884 q 853 863 861 871 l 813 821 q 792 811 806 811 l 596 811 m 797 -175 q 747 -155 767 -175 q 727 -106 727 -135 q 747 -55 727 -75 q 797 -35 767 -35 q 847 -55 827 -35 q 866 -106 866 -75 q 847 -155 866 -135 q 797 -175 827 -175 z "},"ự":{"ha":757,"x_min":83,"x_max":866,"o":"m 262 0 q 234 12 245 0 l 95 151 q 83 178 83 162 l 83 908 q 101 926 83 926 l 297 926 q 315 908 315 926 l 315 199 q 328 185 315 185 l 442 185 l 442 908 q 460 926 442 926 l 656 926 q 674 908 674 926 l 674 17 q 656 0 674 0 l 262 0 m 596 811 q 564 822 575 811 q 552 847 552 833 l 552 908 q 569 926 552 926 l 733 926 l 733 994 q 750 1012 733 1012 l 844 1012 q 861 994 861 1012 l 861 884 q 853 863 861 871 l 813 821 q 792 811 806 811 l 596 811 m 797 -175 q 747 -155 767 -175 q 727 -106 727 -135 q 747 -55 727 -75 q 797 -35 767 -35 q 847 -55 827 -35 q 866 -106 866 -75 q 847 -155 866 -135 q 797 -175 827 -175 z "},"Ừ":{"ha":757,"x_min":83,"x_max":916,"o":"m 262 0 q 234 12 245 0 l 95 151 q 83 178 83 162 l 83 908 q 101 926 83 926 l 297 926 q 315 908 315 926 l 315 199 q 328 185 315 185 l 442 185 l 442 908 q 460 926 442 926 l 656 926 q 674 908 674 926 l 674 17 q 656 0 674 0 l 262 0 m 596 811 q 564 822 575 811 q 552 847 552 833 l 552 908 q 569 926 552 926 l 733 926 l 733 994 q 750 1012 733 1012 l 844 1012 q 861 994 861 1012 l 861 884 q 853 863 861 871 l 813 821 q 792 811 806 811 l 596 811 m 868 960 l 689 1035 q 681 1053 676 1042 l 721 1136 q 740 1145 727 1153 l 903 1039 q 911 1018 916 1031 l 887 966 q 868 960 882 953 z "},"ừ":{"ha":757,"x_min":83,"x_max":916,"o":"m 262 0 q 234 12 245 0 l 95 151 q 83 178 83 162 l 83 908 q 101 926 83 926 l 297 926 q 315 908 315 926 l 315 199 q 328 185 315 185 l 442 185 l 442 908 q 460 926 442 926 l 656 926 q 674 908 674 926 l 674 17 q 656 0 674 0 l 262 0 m 596 811 q 564 822 575 811 q 552 847 552 833 l 552 908 q 569 926 552 926 l 733 926 l 733 994 q 750 1012 733 1012 l 844 1012 q 861 994 861 1012 l 861 884 q 853 863 861 871 l 813 821 q 792 811 806 811 l 596 811 m 868 960 l 689 1035 q 681 1053 676 1042 l 721 1136 q 740 1145 727 1153 l 903 1039 q 911 1018 916 1031 l 887 966 q 868 960 882 953 z "},"Ử":{"ha":757,"x_min":83,"x_max":933,"o":"m 262 0 q 234 12 245 0 l 95 151 q 83 178 83 162 l 83 908 q 101 926 83 926 l 297 926 q 315 908 315 926 l 315 199 q 328 185 315 185 l 442 185 l 442 908 q 460 926 442 926 l 656 926 q 674 908 674 926 l 674 17 q 656 0 674 0 l 262 0 m 596 811 q 564 822 575 811 q 552 847 552 833 l 552 908 q 569 926 552 926 l 733 926 l 733 994 q 750 1012 733 1012 l 844 1012 q 861 994 861 1012 l 861 884 q 853 863 861 871 l 813 821 q 792 811 806 811 l 596 811 m 845 960 q 828 978 828 960 l 828 1019 l 676 1019 q 659 1037 659 1019 l 659 1075 q 680 1099 659 1099 l 865 1099 q 885 1090 876 1099 l 925 1049 q 933 1026 933 1040 l 933 978 q 916 960 933 960 l 845 960 z "},"ử":{"ha":757,"x_min":83,"x_max":933,"o":"m 262 0 q 234 12 245 0 l 95 151 q 83 178 83 162 l 83 908 q 101 926 83 926 l 297 926 q 315 908 315 926 l 315 199 q 328 185 315 185 l 442 185 l 442 908 q 460 926 442 926 l 656 926 q 674 908 674 926 l 674 17 q 656 0 674 0 l 262 0 m 596 811 q 564 822 575 811 q 552 847 552 833 l 552 908 q 569 926 552 926 l 733 926 l 733 994 q 750 1012 733 1012 l 844 1012 q 861 994 861 1012 l 861 884 q 853 863 861 871 l 813 821 q 792 811 806 811 l 596 811 m 845 960 q 828 978 828 960 l 828 1019 l 676 1019 q 659 1037 659 1019 l 659 1075 q 680 1099 659 1099 l 865 1099 q 885 1090 876 1099 l 925 1049 q 933 1026 933 1040 l 933 978 q 916 960 933 960 l 845 960 z "},"Ữ":{"ha":757,"x_min":83,"x_max":949,"o":"m 262 0 q 234 12 245 0 l 95 151 q 83 178 83 162 l 83 908 q 101 926 83 926 l 297 926 q 315 908 315 926 l 315 199 q 328 185 315 185 l 442 185 l 442 908 q 460 926 442 926 l 656 926 q 674 908 674 926 l 674 17 q 656 0 674 0 l 262 0 m 596 811 q 564 822 575 811 q 552 847 552 833 l 552 908 q 569 926 552 926 l 733 926 l 733 994 q 750 1012 733 1012 l 844 1012 q 861 994 861 1012 l 861 884 q 853 863 861 871 l 813 821 q 792 811 806 811 l 596 811 m 658 960 q 649 979 643 960 l 694 1088 q 708 1099 702 1099 l 806 1099 q 817 1088 813 1099 l 835 1038 l 854 1088 q 878 1099 860 1099 l 934 1099 q 943 1080 949 1099 l 901 972 q 887 960 897 960 l 790 960 q 779 972 783 960 l 766 1025 l 733 972 q 708 960 726 960 l 658 960 z "},"Ű":{"ha":757,"x_min":83,"x_max":674,"o":"m 262 0 q 234 12 245 0 l 95 151 q 83 178 83 162 l 83 908 q 101 926 83 926 l 297 926 q 315 908 315 926 l 315 199 q 328 185 315 185 l 442 185 l 442 908 q 460 926 442 926 l 656 926 q 674 908 674 926 l 674 17 q 656 0 674 0 l 262 0 m 419 983 q 404 989 410 983 q 401 1000 398 994 l 447 1081 q 476 1099 458 1099 l 580 1099 q 597 1093 591 1099 q 597 1081 603 1087 l 519 1000 q 485 983 505 983 l 419 983 m 274 983 q 257 1000 257 983 l 257 1081 q 274 1099 257 1099 l 390 1099 q 405 1094 400 1099 q 407 1081 410 1088 l 363 1000 q 334 983 353 983 l 274 983 z "},"Ȗ":{"ha":757,"x_min":83,"x_max":674,"o":"m 262 0 q 234 12 245 0 l 95 151 q 83 178 83 162 l 83 908 q 101 926 83 926 l 297 926 q 315 908 315 926 l 315 199 q 328 185 315 185 l 442 185 l 442 908 q 460 926 442 926 l 656 926 q 674 908 674 926 l 674 17 q 656 0 674 0 l 262 0 m 294 1099 l 463 1099 q 484 1089 476 1099 l 513 1049 q 519 1028 519 1040 l 519 978 q 502 960 519 960 l 428 960 q 411 978 411 960 l 411 1021 l 346 1021 l 346 978 q 328 960 346 960 l 255 960 q 238 978 238 960 l 238 1028 q 244 1049 238 1040 l 273 1089 q 294 1099 281 1099 z "},"Ū":{"ha":757,"x_min":83,"x_max":674,"o":"m 262 0 q 234 12 245 0 l 95 151 q 83 178 83 162 l 83 908 q 101 926 83 926 l 297 926 q 315 908 315 926 l 315 199 q 328 185 315 185 l 442 185 l 442 908 q 460 926 442 926 l 656 926 q 674 908 674 926 l 674 17 q 656 0 674 0 l 262 0 m 255 1007 q 238 1024 238 1007 l 238 1059 q 255 1076 238 1076 l 499 1076 q 516 1059 516 1076 l 516 1024 q 499 1007 516 1007 l 255 1007 z "},"Ṻ":{"ha":757,"x_min":83,"x_max":674,"o":"m 262 0 q 234 12 245 0 l 95 151 q 83 178 83 162 l 83 908 q 101 926 83 926 l 297 926 q 315 908 315 926 l 315 199 q 328 185 315 185 l 442 185 l 442 908 q 460 926 442 926 l 656 926 q 674 908 674 926 l 674 17 q 656 0 674 0 l 262 0 m 255 1007 q 238 1024 238 1007 l 238 1059 q 255 1076 238 1076 l 499 1076 q 516 1059 516 1076 l 516 1024 q 499 1007 516 1007 l 255 1007 m 176 1157 q 163 1171 163 1157 l 163 1259 q 176 1273 163 1273 l 342 1273 q 354 1259 354 1273 l 354 1171 q 342 1157 354 1157 l 176 1157 m 416 1157 q 402 1171 402 1157 l 402 1259 q 416 1273 402 1273 l 581 1273 q 594 1259 594 1273 l 594 1171 q 581 1157 594 1157 l 416 1157 z "},"Ų":{"ha":757,"x_min":83,"x_max":674,"o":"m 262 0 q 234 12 245 0 l 95 151 q 83 178 83 162 l 83 908 q 101 926 83 926 l 297 926 q 315 908 315 926 l 315 199 q 328 185 315 185 l 442 185 l 442 908 q 460 926 442 926 l 656 926 q 674 908 674 926 l 674 17 q 656 0 674 0 l 262 0 m 581 -208 q 574 -206 576 -208 l 510 -175 q 507 -168 507 -173 l 507 -48 q 510 -41 507 -42 l 574 4 q 581 6 576 6 l 651 6 q 656 0 656 6 l 656 -58 q 652 -65 656 -62 l 602 -88 q 599 -94 599 -90 l 599 -111 q 602 -117 599 -115 l 652 -137 q 656 -144 656 -138 l 656 -201 q 651 -208 656 -208 l 581 -208 z "},"Ʊ":{"ha":863,"x_min":83,"x_max":779,"o":"m 324 0 q 302 8 311 0 l 130 165 q 120 185 120 172 l 120 611 q 121 624 120 617 q 128 633 122 630 l 191 672 l 191 742 l 101 742 q 83 759 83 742 l 83 908 q 101 926 83 926 l 335 926 q 352 908 352 926 l 352 257 q 432 194 352 194 q 512 257 512 194 l 512 908 q 529 926 512 926 l 762 926 q 779 908 779 926 l 779 759 q 762 742 779 742 l 670 742 l 670 672 l 733 633 q 740 624 739 630 q 741 611 741 617 l 741 185 q 731 165 741 172 l 559 8 q 537 0 550 0 l 324 0 z "},"Ů":{"ha":757,"x_min":83,"x_max":674,"o":"m 262 0 q 234 12 245 0 l 95 151 q 83 178 83 162 l 83 908 q 101 926 83 926 l 297 926 q 315 908 315 926 l 315 199 q 328 185 315 185 l 442 185 l 442 908 q 460 926 442 926 l 656 926 q 674 908 674 926 l 674 17 q 656 0 674 0 l 262 0 m 260 960 q 242 978 242 960 l 242 1082 q 260 1099 242 1099 l 498 1099 q 515 1082 515 1099 l 515 978 q 498 960 515 960 l 260 960 m 380 979 q 416 994 401 979 q 431 1031 431 1010 q 416 1068 431 1053 q 380 1082 402 1082 q 343 1067 358 1082 q 328 1031 328 1052 q 343 995 328 1010 q 380 979 359 979 z "},"Ũ":{"ha":757,"x_min":83,"x_max":674,"o":"m 262 0 q 234 12 245 0 l 95 151 q 83 178 83 162 l 83 908 q 101 926 83 926 l 297 926 q 315 908 315 926 l 315 199 q 328 185 315 185 l 442 185 l 442 908 q 460 926 442 926 l 656 926 q 674 908 674 926 l 674 17 q 656 0 674 0 l 262 0 m 240 960 q 231 979 225 960 l 276 1088 q 290 1099 284 1099 l 388 1099 q 399 1088 395 1099 l 417 1038 l 436 1088 q 460 1099 442 1099 l 516 1099 q 525 1080 531 1099 l 483 972 q 469 960 478 960 l 372 960 q 361 972 365 960 l 348 1025 l 315 972 q 290 960 308 960 l 240 960 z "},"Ṹ":{"ha":757,"x_min":83,"x_max":674,"o":"m 262 0 q 234 12 245 0 l 95 151 q 83 178 83 162 l 83 908 q 101 926 83 926 l 297 926 q 315 908 315 926 l 315 199 q 328 185 315 185 l 442 185 l 442 908 q 460 926 442 926 l 656 926 q 674 908 674 926 l 674 17 q 656 0 674 0 l 262 0 m 240 960 q 231 979 225 960 l 276 1088 q 290 1099 284 1099 l 388 1099 q 399 1088 395 1099 l 417 1038 l 436 1088 q 460 1099 442 1099 l 516 1099 q 525 1080 531 1099 l 483 972 q 469 960 478 960 l 372 960 q 361 972 365 960 l 348 1025 l 315 972 q 290 960 308 960 l 240 960 m 307 1133 q 288 1140 294 1127 l 264 1192 q 272 1213 259 1204 l 435 1319 q 454 1310 448 1326 l 494 1227 q 486 1208 499 1215 l 307 1133 z "},"Ṵ":{"ha":757,"x_min":83,"x_max":674,"o":"m 262 0 q 234 12 245 0 l 95 151 q 83 178 83 162 l 83 908 q 101 926 83 926 l 297 926 q 315 908 315 926 l 315 199 q 328 185 315 185 l 442 185 l 442 908 q 460 926 442 926 l 656 926 q 674 908 674 926 l 674 17 q 656 0 674 0 l 262 0 m 251 -174 q 242 -155 235 -174 l 287 -47 q 301 -35 294 -35 l 398 -35 q 410 -47 406 -35 l 428 -96 l 447 -47 q 471 -35 452 -35 l 526 -35 q 535 -54 542 -35 l 493 -162 q 479 -174 489 -174 l 383 -174 q 372 -162 376 -174 l 358 -109 l 325 -162 q 301 -174 318 -174 l 251 -174 z "},"V":{"ha":785,"x_min":83,"x_max":701,"o":"m 262 0 q 234 12 245 0 l 95 151 q 83 178 83 162 l 83 908 q 101 926 83 926 l 297 926 q 315 908 315 926 l 315 186 l 470 186 l 470 908 q 488 926 470 926 l 684 926 q 701 908 701 926 l 701 178 q 690 151 701 162 l 551 12 q 523 0 540 0 l 262 0 z "},"Ɣ":{"ha":783,"x_min":83,"x_max":700,"o":"m 257 -115 q 235 -106 244 -115 l 179 -52 q 170 -30 170 -43 l 170 151 q 182 174 170 164 l 235 217 l 235 222 l 90 349 q 84 359 85 354 q 83 370 83 365 l 83 908 q 101 926 83 926 l 302 926 q 319 908 319 926 l 319 340 l 464 340 l 464 908 q 481 926 464 926 l 683 926 q 700 908 700 926 l 700 370 q 699 359 700 365 q 693 349 699 354 l 551 222 l 551 217 l 602 176 q 613 155 613 167 l 613 -30 q 604 -52 613 -43 l 551 -106 q 529 -115 542 -115 l 257 -115 m 392 -16 q 452 8 426 -16 q 477 65 477 32 q 452 127 477 102 q 392 151 426 151 q 332 127 358 151 q 307 65 307 102 q 332 8 307 32 q 392 -16 358 -16 z "},"ɣ":{"ha":783,"x_min":83,"x_max":700,"o":"m 257 -115 q 235 -106 244 -115 l 179 -52 q 170 -30 170 -43 l 170 151 q 182 174 170 164 l 235 217 l 235 222 l 90 349 q 84 359 85 354 q 83 370 83 365 l 83 908 q 101 926 83 926 l 302 926 q 319 908 319 926 l 319 340 l 464 340 l 464 908 q 481 926 464 926 l 683 926 q 700 908 700 926 l 700 370 q 699 359 700 365 q 693 349 699 354 l 551 222 l 551 217 l 602 176 q 613 155 613 167 l 613 -30 q 604 -52 613 -43 l 551 -106 q 529 -115 542 -115 l 257 -115 m 392 -16 q 452 8 426 -16 q 477 65 477 32 q 452 127 477 102 q 392 151 426 151 q 332 127 358 151 q 307 65 307 102 q 332 8 307 32 q 392 -16 358 -16 z "},"Ṿ":{"ha":785,"x_min":83,"x_max":701,"o":"m 262 0 q 234 12 245 0 l 95 151 q 83 178 83 162 l 83 908 q 101 926 83 926 l 297 926 q 315 908 315 926 l 315 186 l 470 186 l 470 908 q 488 926 470 926 l 684 926 q 701 908 701 926 l 701 178 q 690 151 701 162 l 551 12 q 523 0 540 0 l 262 0 m 392 -175 q 343 -155 363 -175 q 323 -106 323 -135 q 343 -55 323 -75 q 392 -35 363 -35 q 442 -55 423 -35 q 462 -106 462 -75 q 442 -155 462 -135 q 392 -175 423 -175 z "},"Ʋ":{"ha":781,"x_min":83,"x_max":703,"o":"m 229 0 q 208 12 215 0 l 89 224 q 83 245 83 235 l 83 897 q 101 915 83 915 l 297 915 q 315 897 315 915 l 315 184 l 471 184 l 471 803 l 433 919 q 447 939 426 939 l 635 939 q 655 925 649 939 l 699 818 q 703 797 703 806 l 703 253 q 697 231 703 244 l 567 10 q 545 0 563 0 l 229 0 z "},"Ṽ":{"ha":785,"x_min":83,"x_max":701,"o":"m 262 0 q 234 12 245 0 l 95 151 q 83 178 83 162 l 83 908 q 101 926 83 926 l 297 926 q 315 908 315 926 l 315 186 l 470 186 l 470 908 q 488 926 470 926 l 684 926 q 701 908 701 926 l 701 178 q 690 151 701 162 l 551 12 q 523 0 540 0 l 262 0 m 254 960 q 245 979 239 960 l 290 1088 q 304 1099 298 1099 l 401 1099 q 413 1088 409 1099 l 431 1038 l 450 1088 q 474 1099 456 1099 l 530 1099 q 539 1080 545 1099 l 497 972 q 483 960 492 960 l 386 960 q 375 972 379 960 l 362 1025 l 328 972 q 304 960 322 960 l 254 960 z "},"Ʌ":{"ha":785,"x_min":83,"x_max":701,"o":"m 523 926 q 551 914 540 926 l 690 775 q 701 747 701 764 l 701 17 q 684 0 701 0 l 488 0 q 470 17 470 0 l 470 740 l 315 740 l 315 17 q 297 0 315 0 l 101 0 q 83 17 83 0 l 83 747 q 95 775 83 764 l 234 914 q 262 926 245 926 l 523 926 z "},"W":{"ha":1172,"x_min":83,"x_max":1088,"o":"m 262 0 q 234 12 245 0 l 95 151 q 83 178 83 162 l 83 908 q 101 926 83 926 l 297 926 q 315 908 315 926 l 315 186 l 470 186 l 470 908 q 488 926 470 926 l 684 926 q 701 908 701 926 l 701 186 l 856 186 l 856 908 q 874 926 856 926 l 1071 926 q 1088 908 1088 926 l 1088 178 q 1076 151 1088 162 l 938 12 q 910 0 926 0 l 747 0 q 719 12 731 0 l 602 128 l 569 128 l 453 12 q 425 0 441 0 l 262 0 z "},"Ẃ":{"ha":1172,"x_min":83,"x_max":1088,"o":"m 262 0 q 234 12 245 0 l 95 151 q 83 178 83 162 l 83 908 q 101 926 83 926 l 297 926 q 315 908 315 926 l 315 186 l 470 186 l 470 908 q 488 926 470 926 l 684 926 q 701 908 701 926 l 701 186 l 856 186 l 856 908 q 874 926 856 926 l 1071 926 q 1088 908 1088 926 l 1088 178 q 1076 151 1088 162 l 938 12 q 910 0 926 0 l 747 0 q 719 12 731 0 l 602 128 l 569 128 l 453 12 q 425 0 441 0 l 262 0 m 514 960 q 495 966 501 953 l 471 1018 q 478 1039 466 1031 l 642 1145 q 661 1136 655 1153 l 701 1053 q 693 1035 706 1042 l 514 960 z "},"Ŵ":{"ha":1172,"x_min":83,"x_max":1088,"o":"m 262 0 q 234 12 245 0 l 95 151 q 83 178 83 162 l 83 908 q 101 926 83 926 l 297 926 q 315 908 315 926 l 315 186 l 470 186 l 470 908 q 488 926 470 926 l 684 926 q 701 908 701 926 l 701 186 l 856 186 l 856 908 q 874 926 856 926 l 1071 926 q 1088 908 1088 926 l 1088 178 q 1076 151 1088 162 l 938 12 q 910 0 926 0 l 747 0 q 719 12 731 0 l 602 128 l 569 128 l 453 12 q 425 0 441 0 l 262 0 m 442 960 q 429 966 433 960 q 430 980 426 972 l 492 1099 q 513 1111 497 1111 l 656 1111 q 676 1099 671 1111 l 739 980 q 740 966 744 972 q 728 960 736 960 l 629 960 q 610 974 619 960 l 592 1011 l 589 1026 l 579 1026 l 577 1011 l 558 974 q 540 960 551 960 l 442 960 z "},"Ẅ":{"ha":1172,"x_min":83,"x_max":1088,"o":"m 262 0 q 234 12 245 0 l 95 151 q 83 178 83 162 l 83 908 q 101 926 83 926 l 297 926 q 315 908 315 926 l 315 186 l 470 186 l 470 908 q 488 926 470 926 l 684 926 q 701 908 701 926 l 701 186 l 856 186 l 856 908 q 874 926 856 926 l 1071 926 q 1088 908 1088 926 l 1088 178 q 1076 151 1088 162 l 938 12 q 910 0 926 0 l 747 0 q 719 12 731 0 l 602 128 l 569 128 l 453 12 q 425 0 441 0 l 262 0 m 383 983 q 369 997 369 983 l 369 1085 q 383 1099 369 1099 l 549 1099 q 561 1085 561 1099 l 561 997 q 549 983 561 983 l 383 983 m 623 983 q 609 997 609 983 l 609 1085 q 623 1099 609 1099 l 788 1099 q 801 1085 801 1099 l 801 997 q 788 983 801 983 l 623 983 z "},"Ẇ":{"ha":1172,"x_min":83,"x_max":1088,"o":"m 262 0 q 234 12 245 0 l 95 151 q 83 178 83 162 l 83 908 q 101 926 83 926 l 297 926 q 315 908 315 926 l 315 186 l 470 186 l 470 908 q 488 926 470 926 l 684 926 q 701 908 701 926 l 701 186 l 856 186 l 856 908 q 874 926 856 926 l 1071 926 q 1088 908 1088 926 l 1088 178 q 1076 151 1088 162 l 938 12 q 910 0 926 0 l 747 0 q 719 12 731 0 l 602 128 l 569 128 l 453 12 q 425 0 441 0 l 262 0 m 585 963 q 536 983 556 963 q 516 1033 516 1003 q 536 1083 516 1063 q 585 1103 556 1103 q 635 1083 616 1103 q 655 1033 655 1063 q 635 983 655 1003 q 585 963 616 963 z "},"Ẉ":{"ha":1172,"x_min":83,"x_max":1088,"o":"m 262 0 q 234 12 245 0 l 95 151 q 83 178 83 162 l 83 908 q 101 926 83 926 l 297 926 q 315 908 315 926 l 315 186 l 470 186 l 470 908 q 488 926 470 926 l 684 926 q 701 908 701 926 l 701 186 l 856 186 l 856 908 q 874 926 856 926 l 1071 926 q 1088 908 1088 926 l 1088 178 q 1076 151 1088 162 l 938 12 q 910 0 926 0 l 747 0 q 719 12 731 0 l 602 128 l 569 128 l 453 12 q 425 0 441 0 l 262 0 m 585 -175 q 536 -155 556 -175 q 516 -106 516 -135 q 536 -55 516 -75 q 585 -35 556 -35 q 635 -55 616 -35 q 655 -106 655 -75 q 635 -155 655 -135 q 585 -175 616 -175 z "},"Ẁ":{"ha":1172,"x_min":83,"x_max":1088,"o":"m 262 0 q 234 12 245 0 l 95 151 q 83 178 83 162 l 83 908 q 101 926 83 926 l 297 926 q 315 908 315 926 l 315 186 l 470 186 l 470 908 q 488 926 470 926 l 684 926 q 701 908 701 926 l 701 186 l 856 186 l 856 908 q 874 926 856 926 l 1071 926 q 1088 908 1088 926 l 1088 178 q 1076 151 1088 162 l 938 12 q 910 0 926 0 l 747 0 q 719 12 731 0 l 602 128 l 569 128 l 453 12 q 425 0 441 0 l 262 0 m 657 960 l 478 1035 q 470 1053 465 1042 l 510 1136 q 528 1145 516 1153 l 692 1039 q 700 1018 705 1031 l 676 966 q 657 960 671 953 z "},"Ⱳ":{"ha":1354,"x_min":83,"x_max":1340,"o":"m 262 0 q 234 12 245 0 l 95 151 q 83 178 83 162 l 83 908 q 101 926 83 926 l 297 926 q 315 908 315 926 l 315 186 l 470 186 l 470 908 q 488 926 470 926 l 684 926 q 701 908 701 926 l 701 186 l 856 186 l 856 908 q 865 931 856 922 l 911 978 q 926 984 915 984 l 1071 984 q 1088 967 1088 984 l 1088 178 q 1076 151 1088 162 l 938 12 q 910 0 926 0 l 747 0 q 719 12 731 0 l 602 128 l 569 128 l 453 12 q 425 0 441 0 l 262 0 m 1200 734 q 1183 751 1183 734 l 1183 809 l 1072 809 q 1054 826 1054 809 l 1054 967 q 1072 984 1054 984 l 1267 984 q 1290 976 1281 984 l 1331 936 q 1340 915 1340 929 l 1340 778 q 1330 745 1340 757 q 1304 734 1319 734 l 1200 734 z "},"X":{"ha":785,"x_min":83,"x_max":701,"o":"m 103 0 q 85 17 85 0 l 85 351 q 86 362 85 357 q 92 372 88 367 l 183 462 l 183 486 l 90 578 q 84 589 85 584 q 83 599 83 594 l 83 908 q 101 926 83 926 l 297 926 q 315 908 315 926 l 315 568 l 470 568 l 470 908 q 488 926 470 926 l 684 926 q 701 908 701 926 l 701 599 q 701 589 701 594 q 694 578 700 584 l 602 486 l 602 462 l 692 372 q 699 362 698 367 q 699 351 699 357 l 699 17 q 682 0 699 0 l 485 0 q 467 17 467 0 l 467 383 l 317 383 l 317 17 q 300 0 317 0 l 103 0 z "},"Ẍ":{"ha":785,"x_min":83,"x_max":701,"o":"m 103 0 q 85 17 85 0 l 85 351 q 86 362 85 357 q 92 372 88 367 l 183 462 l 183 486 l 90 578 q 84 589 85 584 q 83 599 83 594 l 83 908 q 101 926 83 926 l 297 926 q 315 908 315 926 l 315 568 l 470 568 l 470 908 q 488 926 470 926 l 684 926 q 701 908 701 926 l 701 599 q 701 589 701 594 q 694 578 700 584 l 602 486 l 602 462 l 692 372 q 699 362 698 367 q 699 351 699 357 l 699 17 q 682 0 699 0 l 485 0 q 467 17 467 0 l 467 383 l 317 383 l 317 17 q 300 0 317 0 l 103 0 m 190 983 q 176 997 176 983 l 176 1085 q 190 1099 176 1099 l 356 1099 q 368 1085 368 1099 l 368 997 q 356 983 368 983 l 190 983 m 430 983 q 416 997 416 983 l 416 1085 q 430 1099 416 1099 l 595 1099 q 608 1085 608 1099 l 608 997 q 595 983 608 983 l 430 983 z "},"Ẋ":{"ha":785,"x_min":83,"x_max":701,"o":"m 103 0 q 85 17 85 0 l 85 351 q 86 362 85 357 q 92 372 88 367 l 183 462 l 183 486 l 90 578 q 84 589 85 584 q 83 599 83 594 l 83 908 q 101 926 83 926 l 297 926 q 315 908 315 926 l 315 568 l 470 568 l 470 908 q 488 926 470 926 l 684 926 q 701 908 701 926 l 701 599 q 701 589 701 594 q 694 578 700 584 l 602 486 l 602 462 l 692 372 q 699 362 698 367 q 699 351 699 357 l 699 17 q 682 0 699 0 l 485 0 q 467 17 467 0 l 467 383 l 317 383 l 317 17 q 300 0 317 0 l 103 0 m 392 963 q 343 983 363 963 q 323 1033 323 1003 q 343 1083 323 1063 q 392 1103 363 1103 q 442 1083 423 1103 q 462 1033 462 1063 q 442 983 462 1003 q 392 963 423 963 z "},"Y":{"ha":729,"x_min":56,"x_max":674,"o":"m 266 0 q 249 17 249 0 l 249 288 l 63 474 q 57 484 58 479 q 56 494 56 488 l 56 908 q 73 926 56 926 l 269 926 q 287 908 287 926 l 287 488 l 442 488 l 442 908 q 460 926 442 926 l 656 926 q 674 908 674 926 l 674 494 q 673 484 674 488 q 667 474 672 479 l 481 288 l 481 17 q 464 0 481 0 l 266 0 z "}}}
